{
.appVersion = "1342";
classes = (
{
automatic = 1;

glyphs = (
{
color = 4;
glyphname = A;
layers = (
{
anchors = (
{
name = bottom;
position = "{350, 0}";
},
{
name = ogonek;
position = "{691, 0}";
},
{
name = top;
position = "{462, 705}";
}
);
background = {
anchors = (
{
name = bottom;
position = "{350, 0}";
},
{
name = ogonek;
position = "{691, 0}";
},
{
name = top;
position = "{462, 705}";
}
);
paths = (
{
closed = 1;
nodes = (
"141 0 LINE",
"255 191 LINE",
"166 131 LINE",
"575 131 LINE",
"503 191 LINE",
"557 0 LINE",
"773 0 LINE",
"548 705 LINE",
"373 705 LINE",
"-74 0 LINE"
);
},
{
closed = 1;
nodes = (
"430 485 LINE",
"495 238 LINE",
"531 294 LINE",
"262 294 LINE",
"283 238 LINE",
"425 485 LINE"
);
}
);
};
layerId = "BFD2D546-DAD9-41DE-8B9F-F3E812C082B3";
paths = (
{
closed = 1;
nodes = (
"148 0 LINE",
"262 191 LINE",
"173 131 LINE",
"582 131 LINE",
"510 191 LINE",
"564 0 LINE",
"773 0 LINE",
"548 705 LINE",
"373 705 LINE",
"-74 0 LINE"
);
},
{
closed = 1;
nodes = (
"437 485 LINE",
"502 238 LINE",
"538 294 LINE",
"269 294 LINE",
"290 238 LINE",
"432 485 LINE"
);
}
);
width = 779;
},
{
anchors = (
{
name = bottom;
position = "{318, 0}";
},
{
name = ogonek;
position = "{647, 0}";
},
{
name = top;
position = "{430, 705}";
}
);
background = {
anchors = (
{
name = bottom;
position = "{318, 0}";
},
{
name = ogonek;
position = "{647, 0}";
},
{
name = top;
position = "{430, 705}";
}
);
paths = (
{
closed = 1;
nodes = (
"39 0 LINE",
"158 204 LINE",
"129 195 LINE",
"566 195 LINE",
"544 204 LINE",
"601 0 LINE",
"647 0 LINE",
"450 705 LINE",
"409 705 LINE",
"-6 0 LINE"
);
},
{
closed = 1;
nodes = (
"421 649 LINE",
"538 228 LINE",
"555 234 LINE",
"152 234 LINE",
"173 228 LINE",
"419 649 LINE"
);
}
);
};
layerId = "C98CF2FB-27AB-48B2-98BD-5B202BDF0FA3";
paths = (
{
closed = 1;
nodes = (
"42 0 LINE",
"161 204 LINE",
"132 195 LINE",
"569 195 LINE",
"547 204 LINE",
"604 0 LINE",
"647 0 LINE",
"450 705 LINE",
"409 705 LINE",
"-6 0 LINE"
);
},
{
closed = 1;
nodes = (
"424 649 LINE",
"541 228 LINE",
"558 234 LINE",
"155 234 LINE",
"176 228 LINE",
"422 649 LINE"
);
}
);
width = 721;
},
{
anchors = (
{
name = bottom;
position = "{334, 0}";
},
{
name = ogonek;
position = "{669, 0}";
},
{
name = top;
position = "{446, 705}";
}
);
layerId = "AFEE2FCF-314D-4571-9AD7-6410332F14FF";
paths = (
{
closed = 1;
nodes = (
"95 0 LINE",
"212 198 LINE",
"153 163 LINE",
"576 163 LINE",
"529 198 LINE",
"584 0 LINE",
"710 0 LINE",
"499 705 LINE",
"391 705 LINE",
"-40 0 LINE"
);
},
{
closed = 1;
nodes = (
"431 567 LINE",
"522 233 LINE",
"548 264 LINE",
"212 264 LINE",
"233 233 LINE",
"427 567 LINE"
);
}
);
width = 750;
}
);
leftKerningGroup = A;
rightKerningGroup = A;
unicode = 0041;
userData = {
anchors = (
);
b = {
};
com.typemytype.robofont.layerData = {
b = {
anchors = (
);
components = (
);
contours = (
{
points = (
{
segmentType = line;
smooth = 0;
x = 403;
y = 502;
},
{
segmentType = line;
smooth = 0;
x = 703;
y = 1275;
},
{
segmentType = line;
smooth = 0;
x = 705;
y = 1275;
},
{
segmentType = line;
smooth = 0;
x = 1004;
y = 502;
}
);
},
{
points = (
{
segmentType = curve;
smooth = 1;
x = 150;
y = 0;
},
{
smooth = 0;
x = 181;
y = 0;
},
{
smooth = 0;
x = 214;
y = 15;
},
{
segmentType = curve;
smooth = 1;
x = 229;
y = 53;
},
{
segmentType = line;
smooth = 0;
x = 356;
y = 373;
},
{
segmentType = line;
smooth = 0;
x = 1051;
y = 373;
},
{
segmentType = line;
smooth = 1;
x = 1179;
y = 53;
},
{
smooth = 0;
x = 1193;
y = 17;
},
{
smooth = 0;
x = 1228;
y = 0;
},
{
segmentType = curve;
smooth = 1;
x = 1260;
y = 0;
},
{
smooth = 0;
x = 1306;
y = 0;
},
{
smooth = 0;
x = 1354;
y = 31;
},
{
segmentType = curve;
smooth = 1;
x = 1354;
y = 80;
},
{
smooth = 0;
x = 1354;
y = 87;
},
{
smooth = 0;
x = 1352;
y = 97;
},
{
segmentType = curve;
smooth = 0;
x = 1349;
y = 108;
},
{
segmentType = line;
smooth = 1;
x = 871;
y = 1288;
},
{
smooth = 0;
x = 817;
y = 1420;
},
{
smooth = 0;
x = 777;
y = 1430;
},
{
segmentType = curve;
smooth = 1;
x = 710;
y = 1430;
},
{
smooth = 0;
x = 644;
y = 1430;
},
{
smooth = 0;
x = 596;
y = 1413;
},
{
segmentType = curve;
smooth = 1;
x = 542;
y = 1280;
},
{
segmentType = line;
smooth = 1;
x = 66;
y = 108;
},
{
smooth = 0;
x = 62;
y = 97;
},
{
smooth = 0;
x = 60;
y = 87;
},
{
segmentType = curve;
smooth = 1;
x = 60;
y = 78;
},
{
smooth = 0;
x = 60;
y = 32;
},
{
smooth = 0;
x = 106;
y = 0;
}
);
}
);
lib = {
};
name = A;
unicodes = (
);
width = 1414;
};
};
components = (
);
contours = {
};
lib = {
};
name = A;
points = {
};
segmentType = line;
unicodes = (
);
width = 1445;
x = 718;
y = 1232;
};
},
{
color = 4;
glyphname = AE;
layers = (
{
anchors = (
{
name = bottom;
position = "{483, 0}";
},
{
name = top;
position = "{596, 705}";
}
);
background = {
anchors = (
{
name = bottom;
position = "{483, 0}";
},
{
name = top;
position = "{596, 705}";
}
);
paths = (
{
closed = 1;
nodes = (
"133 0 LINE",
"276 186 LINE",
"209 131 LINE",
"549 131 LINE",
"525 189 LINE",
"508 0 LINE",
"970 0 LINE",
"996 164 LINE",
"691 164 LINE",
"710 127 LINE",
"725 285 LINE",
"694 276 LINE",
"991 276 LINE",
"1017 440 LINE",
"724 440 LINE",
"733 381 LINE",
"750 559 LINE",
"721 541 LINE",
"1056 541 LINE",
"1082 705 LINE",
"475 705 LINE",
"-94 0 LINE"
);
},
{
closed = 1;
nodes = (
"558 541 LINE",
"530 235 LINE",
"554 295 LINE",
"316 295 LINE",
"319 243 LINE",
"548 541 LINE"
);
}
);
};
guideLines = (
{
angle = -86.1502;
position = "{508, 320}";
},
{
angle = -86.1502;
position = "{677, 220}";
},
{
angle = 52.9779;
position = "{344, 271}";
}
);
layerId = "BFD2D546-DAD9-41DE-8B9F-F3E812C082B3";
paths = (
{
closed = 1;
nodes = (
"140 0 LINE",
"280 186 LINE",
"209 131 LINE",
"549 131 LINE",
"525 189 LINE",
"508 0 LINE",
"970 0 LINE",
"996 164 LINE",
"691 164 LINE",
"710 127 LINE",
"725 285 LINE",
"694 276 LINE",
"991 276 LINE",
"1017 440 LINE",
"724 440 LINE",
"733 381 LINE",
"750 559 LINE",
"721 541 LINE",
"1056 541 LINE",
"1082 705 LINE",
"468 705 LINE",
"-94 0 LINE"
);
},
{
closed = 1;
nodes = (
"558 541 LINE",
"530 235 LINE",
"554 295 LINE",
"316 295 LINE",
"323 243 LINE",
"548 541 LINE"
);
}
);
width = 1037;
},
{
anchors = (
{
name = bottom;
position = "{475, 0}";
},
{
name = top;
position = "{586, 705}";
}
);
background = {
anchors = (
{
name = bottom;
position = "{475, 0}";
},
{
name = top;
position = "{586, 705}";
}
);
paths = (
{
closed = 1;
nodes = (
"22 0 LINE",
"180 207 LINE",
"161 195 LINE",
"559 195 LINE",
"535 198 LINE",
"523 0 LINE",
"899 0 LINE",
"905 39 LINE",
"563 39 LINE",
"567 20 LINE",
"587 348 LINE",
"578 338 LINE",
"932 338 LINE",
"938 377 LINE",
"573 377 LINE",
"589 366 LINE",
"609 690 LINE",
"585 666 LINE",
"1004 666 LINE",
"1011 705 LINE",
"509 705 LINE",
"-26 0 LINE"
);
},
{
closed = 1;
nodes = (
"565 665 LINE",
"538 225 LINE",
"546 234 LINE",
"187 234 LINE",
"192 224 LINE",
"524 665 LINE"
);
}
);
};
guideLines = (
{
angle = 95.3971;
position = "{632, 344}";
},
{
angle = 95.3971;
position = "{674, 344}";
}
);
layerId = "C98CF2FB-27AB-48B2-98BD-5B202BDF0FA3";
paths = (
{
closed = 1;
nodes = (
"27 0 LINE",
"185 207 LINE",
"161 195 LINE",
"559 195 LINE",
"535 198 LINE",
"523 0 LINE",
"899 0 LINE",
"905 39 LINE",
"563 39 LINE",
"567 20 LINE",
"587 348 LINE",
"578 338 LINE",
"932 338 LINE",
"938 377 LINE",
"573 377 LINE",
"589 366 LINE",
"609 690 LINE",
"585 666 LINE",
"1004 666 LINE",
"1011 705 LINE",
"509 705 LINE",
"-26 0 LINE"
);
},
{
closed = 1;
nodes = (
"565 665 LINE",
"538 225 LINE",
"546 234 LINE",
"187 234 LINE",
"197 224 LINE",
"529 665 LINE"
);
}
);
width = 996;
},
{
anchors = (
{
name = bottom;
position = "{479, 0}";
},
{
name = top;
position = "{591, 705}";
}
);
layerId = "AFEE2FCF-314D-4571-9AD7-6410332F14FF";
paths = (
{
closed = 1;
nodes = (
"84 0 LINE",
"233 197 LINE",
"185 163 LINE",
"554 163 LINE",
"530 194 LINE",
"516 0 LINE",
"935 0 LINE",
"951 102 LINE",
"627 102 LINE",
"639 74 LINE",
"656 317 LINE",
"636 307 LINE",
"962 307 LINE",
"978 409 LINE",
"649 409 LINE",
"661 374 LINE",
"680 625 LINE",
"653 604 LINE",
"1030 604 LINE",
"1047 705 LINE",
"489 705 LINE",
"-60 0 LINE"
);
},
{
closed = 1;
nodes = (
"562 603 LINE",
"534 230 LINE",
"550 265 LINE",
"252 265 LINE",
"260 234 LINE",
"539 603 LINE"
);
}
);
width = 1017;
}
);
leftKerningGroup = A;
rightKerningGroup = E;
rightMetricsKey = E;
unicode = 00C6;
userData = {
com.typemytype.robofont.layerData = {
b = {
anchors = (
);
components = (
);
contours = (
);
lib = {
};
name = AE;
unicodes = (
);
width = 1976;
};
};
};
},
{
color = 4;
glyphname = B;
layers = (
{
anchors = (
{
name = bottom;
position = "{321, 0}";
},
{
name = top;
position = "{433, 705}";
}
);
background = {
anchors = (
{
name = bottom;
position = "{321, 0}";
},
{
name = top;
position = "{433, 705}";
}
);
paths = (
{
closed = 1;
nodes = (
"389 0 LINE SMOOTH",
"548 0 OFFCURVE",
"661 79 OFFCURVE",
"680 202 CURVE SMOOTH",
"695 294 OFFCURVE",
"649 355 OFFCURVE",
"553 375 CURVE",
"551 358 LINE",
"637 379 OFFCURVE",
"697 441 OFFCURVE",
"710 523 CURVE SMOOTH",
"727 633 OFFCURVE",
"649 705 OFFCURVE",
"491 705 CURVE SMOOTH",
"130 705 LINE",
"18 0 LINE"
);
},
{
closed = 1;
nodes = (
"268 280 LINE",
"404 280 LINE SMOOTH",
"462 280 OFFCURVE",
"485 260 OFFCURVE",
"479 218 CURVE SMOOTH",
"472 176 OFFCURVE",
"443 156 OFFCURVE",
"385 156 CURVE SMOOTH",
"249 156 LINE"
);
},
{
closed = 1;
nodes = (
"311 549 LINE",
"425 549 LINE SMOOTH",
"484 549 OFFCURVE",
"505 533 OFFCURVE",
"499 493 CURVE SMOOTH",
"493 453 OFFCURVE",
"466 436 OFFCURVE",
"407 436 CURVE SMOOTH",
"293 436 LINE"
);
}
);
};
layerId = "BFD2D546-DAD9-41DE-8B9F-F3E812C082B3";
paths = (
{
closed = 1;
nodes = (
"399 0 LINE SMOOTH",
"558 0 OFFCURVE",
"661 79 OFFCURVE",
"679 192 CURVE SMOOTH",
"693 284 OFFCURVE",
"649 353 OFFCURVE",
"553 373 CURVE",
"551 356 LINE",
"637 377 OFFCURVE",
"697 441 OFFCURVE",
"708 513 CURVE SMOOTH",
"727 633 OFFCURVE",
"649 705 OFFCURVE",
"481 705 CURVE SMOOTH",
"130 705 LINE",
"18 0 LINE"
);
},
{
closed = 1;
nodes = (
"268 280 LINE",
"401 280 LINE SMOOTH",
"462 280 OFFCURVE",
"485 260 OFFCURVE",
"478 213 CURVE SMOOTH",
"472 176 OFFCURVE",
"446 156 OFFCURVE",
"388 156 CURVE SMOOTH",
"249 156 LINE"
);
},
{
closed = 1;
nodes = (
"311 549 LINE",
"422 549 LINE SMOOTH",
"484 549 OFFCURVE",
"505 533 OFFCURVE",
"498 489 CURVE SMOOTH",
"493 453 OFFCURVE",
"469 436 OFFCURVE",
"410 436 CURVE SMOOTH",
"293 436 LINE"
);
}
);
width = 708;
},
{
anchors = (
{
name = bottom;
position = "{301, 0}";
},
{
name = top;
position = "{412, 705}";
}
);
background = {
anchors = (
{
name = bottom;
position = "{301, 0}";
},
{
name = top;
position = "{412, 705}";
}
);
paths = (
{
closed = 1;
nodes = (
"328 0 LINE SMOOTH",
"478 0 OFFCURVE",
"571 65 OFFCURVE",
"591 191 CURVE SMOOTH",
"607 293 OFFCURVE",
"552 355 OFFCURVE",
"449 365 CURVE",
"447 351 LINE",
"545 370 OFFCURVE",
"613 430 OFFCURVE",
"628 521 CURVE SMOOTH",
"646 639 OFFCURVE",
"574 705 OFFCURVE",
"426 705 CURVE SMOOTH",
"169 705 LINE",
"57 0 LINE"
);
},
{
closed = 1;
nodes = (
"152 337 LINE",
"380 337 LINE SMOOTH",
"495 337 OFFCURVE",
"564 297 OFFCURVE",
"547 188 CURVE SMOOTH",
"530 80 OFFCURVE",
"448 39 OFFCURVE",
"333 39 CURVE SMOOTH",
"105 39 LINE"
);
},
{
closed = 1;
nodes = (
"204 666 LINE",
"417 666 LINE SMOOTH",
"541 666 OFFCURVE",
"598 615 OFFCURVE",
"584 521 CURVE SMOOTH",
"569 427 OFFCURVE",
"496 376 OFFCURVE",
"372 376 CURVE SMOOTH",
"159 376 LINE"
);
}
);
};
layerId = "C98CF2FB-27AB-48B2-98BD-5B202BDF0FA3";
paths = (
{
closed = 1;
nodes = (
"328 0 LINE SMOOTH",
"478 0 OFFCURVE",
"569 55 OFFCURVE",
"589 181 CURVE SMOOTH",
"605 283 OFFCURVE",
"552 353 OFFCURVE",
"449 363 CURVE",
"447 349 LINE",
"545 368 OFFCURVE",
"611 420 OFFCURVE",
"627 516 CURVE SMOOTH",
"646 639 OFFCURVE",
"574 705 OFFCURVE",
"436 705 CURVE SMOOTH",
"169 705 LINE",
"57 0 LINE"
);
},
{
closed = 1;
nodes = (
"152 337 LINE",
"390 337 LINE SMOOTH",
"495 337 OFFCURVE",
"564 297 OFFCURVE",
"545 178 CURVE SMOOTH",
"530 80 OFFCURVE",
"448 39 OFFCURVE",
"333 39 CURVE SMOOTH",
"105 39 LINE"
);
},
{
closed = 1;
nodes = (
"204 666 LINE",
"437 666 LINE SMOOTH",
"545 666 OFFCURVE",
"598 615 OFFCURVE",
"582 511 CURVE SMOOTH",
"569 427 OFFCURVE",
"496 376 OFFCURVE",
"372 376 CURVE SMOOTH",
"159 376 LINE"
);
}
);
width = 672;
},
{
anchors = (
{
name = bottom;
position = "{311, 0}";
},
{
name = top;
position = "{423, 705}";
}
);
layerId = "AFEE2FCF-314D-4571-9AD7-6410332F14FF";
paths = (
{
closed = 1;
nodes = (
"364 0 LINE SMOOTH",
"518 0 OFFCURVE",
"615 67 OFFCURVE",
"634 187 CURVE SMOOTH",
"649 284 OFFCURVE",
"601 353 OFFCURVE",
"501 368 CURVE",
"499 353 LINE",
"591 373 OFFCURVE",
"654 431 OFFCURVE",
"668 515 CURVE SMOOTH",
"687 636 OFFCURVE",
"612 705 OFFCURVE",
"459 705 CURVE SMOOTH",
"150 705 LINE",
"38 0 LINE"
);
},
{
closed = 1;
nodes = (
"210 309 LINE",
"396 309 LINE SMOOTH",
"479 309 OFFCURVE",
"525 279 OFFCURVE",
"512 196 CURVE SMOOTH",
"501 128 OFFCURVE",
"447 98 OFFCURVE",
"361 98 CURVE SMOOTH",
"177 98 LINE"
);
},
{
closed = 1;
nodes = (
"258 608 LINE",
"430 608 LINE SMOOTH",
"515 608 OFFCURVE",
"552 574 OFFCURVE",
"540 500 CURVE SMOOTH",
"531 440 OFFCURVE",
"483 406 OFFCURVE",
"391 406 CURVE SMOOTH",
"226 406 LINE"
);
}
);
width = 690;
}
);
leftKerningGroup = H;
rightKerningGroup = B;
unicode = 0042;
userData = {
anchors = (
);
b = {
};
com.typemytype.robofont.layerData = {
b = {
anchors = (
);
components = (
);
contours = (
{
points = (
{
segmentType = curve;
smooth = 1;
x = 266;
y = 0;
},
{
segmentType = line;
smooth = 1;
x = 1035;
y = 0;
},
{
smooth = 0;
x = 1084;
y = 0;
},
{
smooth = 0;
x = 1108;
y = 36;
},
{
segmentType = curve;
smooth = 1;
x = 1108;
y = 73;
},
{
smooth = 0;
x = 1108;
y = 109;
},
{
smooth = 0;
x = 1084;
y = 145;
},
{
segmentType = curve;
smooth = 1;
x = 1035;
y = 145;
},
{
segmentType = line;
smooth = 0;
x = 353;
y = 145;
},
{
segmentType = line;
smooth = 0;
x = 353;
y = 662;
},
{
segmentType = line;
smooth = 1;
x = 975;
y = 662;
},
{
smooth = 0;
x = 1024;
y = 662;
},
{
smooth = 0;
x = 1049;
y = 698;
},
{
segmentType = curve;
smooth = 1;
x = 1049;
y = 734;
},
{
smooth = 0;
x = 1049;
y = 770;
},
{
smooth = 0;
x = 1026;
y = 806;
},
{
segmentType = curve;
smooth = 1;
x = 975;
y = 806;
},
{
segmentType = line;
smooth = 0;
x = 353;
y = 806;
},
{
segmentType = line;
smooth = 0;
x = 353;
y = 1281;
},
{
segmentType = line;
smooth = 1;
x = 1007;
y = 1281;
},
{
smooth = 0;
x = 1056;
y = 1281;
},
{
smooth = 0;
x = 1080;
y = 1317;
},
{
segmentType = curve;
smooth = 1;
x = 1080;
y = 1354;
},
{
smooth = 0;
x = 1080;
y = 1390;
},
{
smooth = 0;
x = 1056;
y = 1426;
},
{
segmentType = curve;
smooth = 1;
x = 1007;
y = 1426;
},
{
segmentType = line;
smooth = 1;
x = 261;
y = 1426;
},
{
smooth = 0;
x = 213;
y = 1426;
},
{
smooth = 0;
x = 178;
y = 1383;
},
{
segmentType = curve;
smooth = 1;
x = 178;
y = 1340;
},
{
segmentType = line;
smooth = 1;
x = 178;
y = 86;
},
{
smooth = 0;
x = 178;
y = 41;
},
{
smooth = 0;
x = 222;
y = 0;
}
);
}
);
lib = {
};
name = B;
unicodes = (
);
width = 1292;
};
};
components = (
);
contours = {
};
lib = {
};
name = B;
points = {
};
segmentType = curve;
unicodes = (
);
width = 1395;
x = 676;
y = 1260;
};
},
{
color = 4;
glyphname = Bhook;
production = uni0181;
layers = (
{
background = {
paths = (
{
closed = 1;
nodes = (
"602 0 LINE SMOOTH",
"761 0 OFFCURVE",
"864 79 OFFCURVE",
"882 192 CURVE SMOOTH",
"897 284 OFFCURVE",
"852 353 OFFCURVE",
"756 373 CURVE",
"754 356 LINE",
"840 377 OFFCURVE",
"900 441 OFFCURVE",
"911 513 CURVE SMOOTH",
"929 633 OFFCURVE",
"852 705 OFFCURVE",
"684 705 CURVE SMOOTH",
"333 705 LINE",
"221 0 LINE"
);
},
{
closed = 1;
nodes = (
"471 280 LINE",
"604 280 LINE SMOOTH",
"665 280 OFFCURVE",
"689 260 OFFCURVE",
"681 213 CURVE SMOOTH",
"675 176 OFFCURVE",
"649 156 OFFCURVE",
"591 156 CURVE SMOOTH",
"452 156 LINE"
);
},
{
closed = 1;
nodes = (
"514 549 LINE",
"625 549 LINE SMOOTH",
"687 549 OFFCURVE",
"708 533 OFFCURVE",
"701 489 CURVE SMOOTH",
"695 453 OFFCURVE",
"672 436 OFFCURVE",
"613 436 CURVE SMOOTH",
"496 436 LINE"
);
}
);
};
layerId = "BFD2D546-DAD9-41DE-8B9F-F3E812C082B3";
paths = (
{
closed = 1;
nodes = (
"602 0 LINE SMOOTH",
"761 0 OFFCURVE",
"864 79 OFFCURVE",
"882 192 CURVE SMOOTH",
"897 284 OFFCURVE",
"852 353 OFFCURVE",
"756 373 CURVE",
"754 356 LINE",
"839 377 OFFCURVE",
"900 441 OFFCURVE",
"911 513 CURVE SMOOTH",
"929 633 OFFCURVE",
"852 705 OFFCURVE",
"684 705 CURVE SMOOTH",
"322 705 LINE SMOOTH",
"156 705 OFFCURVE",
"60 630 OFFCURVE",
"38 491 CURVE SMOOTH",
"28 432 LINE",
"199 432 LINE",
"208 485 LINE SMOOTH",
"216 539 OFFCURVE",
"242 561 OFFCURVE",
"295 561 CURVE SMOOTH",
"310 561 LINE",
"221 0 LINE"
);
},
{
closed = 1;
nodes = (
"471 280 LINE",
"604 280 LINE SMOOTH",
"665 280 OFFCURVE",
"689 260 OFFCURVE",
"681 213 CURVE SMOOTH",
"675 176 OFFCURVE",
"649 156 OFFCURVE",
"591 156 CURVE SMOOTH",
"452 156 LINE"
);
},
{
closed = 1;
nodes = (
"514 549 LINE",
"625 549 LINE SMOOTH",
"687 549 OFFCURVE",
"708 533 OFFCURVE",
"701 489 CURVE SMOOTH",
"695 453 OFFCURVE",
"672 436 OFFCURVE",
"613 436 CURVE SMOOTH",
"496 436 LINE"
);
}
);
width = 911;
},
{
background = {
paths = (
{
closed = 1;
nodes = (
"434 0 LINE SMOOTH",
"584 0 OFFCURVE",
"675 55 OFFCURVE",
"695 181 CURVE SMOOTH",
"711 283 OFFCURVE",
"658 353 OFFCURVE",
"555 363 CURVE",
"553 349 LINE",
"651 368 OFFCURVE",
"717 420 OFFCURVE",
"733 516 CURVE SMOOTH",
"753 639 OFFCURVE",
"680 705 OFFCURVE",
"542 705 CURVE SMOOTH",
"275 705 LINE",
"163 0 LINE"
);
},
{
closed = 1;
nodes = (
"258 337 LINE",
"496 337 LINE SMOOTH",
"601 337 OFFCURVE",
"670 297 OFFCURVE",
"651 178 CURVE SMOOTH",
"635 80 OFFCURVE",
"554 39 OFFCURVE",
"439 39 CURVE SMOOTH",
"211 39 LINE"
);
},
{
closed = 1;
nodes = (
"310 666 LINE",
"543 666 LINE SMOOTH",
"651 666 OFFCURVE",
"704 615 OFFCURVE",
"688 511 CURVE SMOOTH",
"675 427 OFFCURVE",
"602 376 OFFCURVE",
"478 376 CURVE SMOOTH",
"265 376 LINE"
);
}
);
};
layerId = "C98CF2FB-27AB-48B2-98BD-5B202BDF0FA3";
paths = (
{
closed = 1;
nodes = (
"433 0 LINE SMOOTH",
"584 0 OFFCURVE",
"675 55 OFFCURVE",
"695 181 CURVE SMOOTH",
"711 283 OFFCURVE",
"658 353 OFFCURVE",
"555 363 CURVE",
"553 349 LINE",
"651 368 OFFCURVE",
"717 420 OFFCURVE",
"733 516 CURVE SMOOTH",
"753 639 OFFCURVE",
"680 705 OFFCURVE",
"542 705 CURVE SMOOTH",
"247 705 LINE SMOOTH",
"124 705 OFFCURVE",
"63 655 OFFCURVE",
"46 551 CURVE SMOOTH",
"39 506 LINE",
"79 506 LINE",
"86 549 LINE SMOOTH",
"99 629 OFFCURVE",
"144 666 OFFCURVE",
"229 666 CURVE SMOOTH",
"268 666 LINE",
"163 0 LINE"
);
},
{
closed = 1;
nodes = (
"258 337 LINE",
"496 337 LINE SMOOTH",
"601 337 OFFCURVE",
"670 297 OFFCURVE",
"651 178 CURVE SMOOTH",
"635 80 OFFCURVE",
"554 39 OFFCURVE",
"439 39 CURVE SMOOTH",
"211 39 LINE"
);
},
{
closed = 1;
nodes = (
"310 666 LINE",
"543 666 LINE SMOOTH",
"651 666 OFFCURVE",
"704 615 OFFCURVE",
"688 511 CURVE SMOOTH",
"675 427 OFFCURVE",
"602 376 OFFCURVE",
"478 376 CURVE SMOOTH",
"265 376 LINE"
);
}
);
width = 778;
},
{
layerId = "AFEE2FCF-314D-4571-9AD7-6410332F14FF";
paths = (
{
closed = 1;
nodes = (
"518 0 LINE SMOOTH",
"673 0 OFFCURVE",
"770 67 OFFCURVE",
"789 187 CURVE SMOOTH",
"804 284 OFFCURVE",
"755 353 OFFCURVE",
"656 368 CURVE",
"654 353 LINE",
"745 373 OFFCURVE",
"809 431 OFFCURVE",
"822 515 CURVE SMOOTH",
"841 636 OFFCURVE",
"766 705 OFFCURVE",
"613 705 CURVE SMOOTH",
"285 705 LINE SMOOTH",
"140 705 OFFCURVE",
"62 643 OFFCURVE",
"42 521 CURVE SMOOTH",
"34 469 LINE",
"139 469 LINE",
"147 517 LINE SMOOTH",
"158 584 OFFCURVE",
"193 614 OFFCURVE",
"262 614 CURVE SMOOTH",
"289 614 LINE",
"192 0 LINE"
);
},
{
closed = 1;
nodes = (
"365 309 LINE",
"550 309 LINE SMOOTH",
"633 309 OFFCURVE",
"680 279 OFFCURVE",
"666 196 CURVE SMOOTH",
"655 128 OFFCURVE",
"602 98 OFFCURVE",
"515 98 CURVE SMOOTH",
"332 98 LINE"
);
},
{
closed = 1;
nodes = (
"412 608 LINE",
"584 608 LINE SMOOTH",
"669 608 OFFCURVE",
"706 574 OFFCURVE",
"695 500 CURVE SMOOTH",
"685 440 OFFCURVE",
"637 406 OFFCURVE",
"546 406 CURVE SMOOTH",
"381 406 LINE"
);
}
);
width = 844.5;
}
);
leftKerningGroup = Bhook;
rightKerningGroup = B;
unicode = 0181;
},
{
color = 4;
glyphname = C;
layers = (
{
anchors = (
{
name = bottom;
position = "{371, 0}";
},
{
name = top;
position = "{482, 705}";
}
);
background = {
anchors = (
{
name = bottom;
position = "{371, 0}";
},
{
name = top;
position = "{482, 705}";
}
);
paths = (
{
closed = 1;
nodes = (
"481 -12 OFFCURVE",
"568 14 OFFCURVE",
"629 59 CURVE",
"593 228 LINE",
"527 188 OFFCURVE",
"483 175 OFFCURVE",
"423 175 CURVE SMOOTH",
"315 175 OFFCURVE",
"265 237 OFFCURVE",
"283 353 CURVE SMOOTH",
"301 468 OFFCURVE",
"371 530 OFFCURVE",
"479 530 CURVE SMOOTH",
"539 530 OFFCURVE",
"579 517 OFFCURVE",
"633 477 CURVE",
"722 646 LINE",
"675 691 OFFCURVE",
"597 717 OFFCURVE",
"501 717 CURVE SMOOTH",
"265 717 OFFCURVE",
"92 572 OFFCURVE",
"57 353 CURVE SMOOTH",
"22 137 OFFCURVE",
"149 -12 OFFCURVE",
"385 -12 CURVE SMOOTH"
);
}
);
};
layerId = "BFD2D546-DAD9-41DE-8B9F-F3E812C082B3";
paths = (
{
closed = 1;
nodes = (
"496 -12 OFFCURVE",
"583 14 OFFCURVE",
"654 59 CURVE",
"601 228 LINE",
"538 188 OFFCURVE",
"486 175 OFFCURVE",
"432 175 CURVE SMOOTH",
"319 175 OFFCURVE",
"266 247 OFFCURVE",
"285 367 CURVE SMOOTH",
"302 474 OFFCURVE",
"377 530 OFFCURVE",
"479 530 CURVE SMOOTH",
"539 530 OFFCURVE",
"579 517 OFFCURVE",
"633 487 CURVE",
"702 656 LINE",
"654 691 OFFCURVE",
"576 716 OFFCURVE",
"487 717 CURVE SMOOTH",
"256 719 OFFCURVE",
"94 591 OFFCURVE",
"60 373 CURVE SMOOTH",
"26 156 OFFCURVE",
"146 -12 OFFCURVE",
"402 -12 CURVE SMOOTH"
);
}
);
width = 685;
},
{
anchors = (
{
name = bottom;
position = "{344, 0}";
},
{
name = top;
position = "{458, 705}";
}
);
background = {
anchors = (
{
name = bottom;
position = "{1044, 0}";
},
{
name = top;
position = "{1158, 705}";
}
);
paths = (
{
closed = 1;
nodes = (
"1145 -8 OFFCURVE",
"1228 25 OFFCURVE",
"1298 88 CURVE",
"1281 123 LINE",
"1207 60 OFFCURVE",
"1140 33 OFFCURVE",
"1049 33 CURVE SMOOTH",
"871 33 OFFCURVE",
"797 150 OFFCURVE",
"829 353 CURVE SMOOTH",
"861 555 OFFCURVE",
"972 672 OFFCURVE",
"1150 672 CURVE SMOOTH",
"1241 672 OFFCURVE",
"1299 645 OFFCURVE",
"1354 582 CURVE",
"1382 617 LINE",
"1332 680 OFFCURVE",
"1260 713 OFFCURVE",
"1158 713 CURVE SMOOTH",
"954 713 OFFCURVE",
"819 576 OFFCURVE",
"784 353 CURVE SMOOTH",
"749 129 OFFCURVE",
"840 -8 OFFCURVE",
"1044 -8 CURVE SMOOTH"
);
},
{
closed = 1;
nodes = (
"537 -8 OFFCURVE",
"670 119 OFFCURVE",
"705 342 CURVE SMOOTH",
"740 564 OFFCURVE",
"646 713 OFFCURVE",
"447 713 CURVE SMOOTH",
"254 713 OFFCURVE",
"121 586 OFFCURVE",
"86 363 CURVE SMOOTH",
"51 139 OFFCURVE",
"145 -8 OFFCURVE",
"343 -8 CURVE SMOOTH"
);
},
{
closed = 1;
nodes = (
"178 33 OFFCURVE",
"97 156 OFFCURVE",
"129 353 CURVE SMOOTH",
"162 555 OFFCURVE",
"272 672 OFFCURVE",
"445 672 CURVE SMOOTH",
"613 672 OFFCURVE",
"693 548 OFFCURVE",
"662 352 CURVE SMOOTH",
"630 150 OFFCURVE",
"519 33 OFFCURVE",
"346 33 CURVE SMOOTH"
);
}
);
};
layerId = "C98CF2FB-27AB-48B2-98BD-5B202BDF0FA3";
paths = (
{
closed = 1;
nodes = (
"454 -8 OFFCURVE",
"547 25 OFFCURVE",
"607 88 CURVE",
"585 122 LINE",
"522 59 OFFCURVE",
"444 33 OFFCURVE",
"363 33 CURVE SMOOTH",
"171 33 OFFCURVE",
"98 160 OFFCURVE",
"129 353 CURVE SMOOTH",
"161 555 OFFCURVE",
"272 672 OFFCURVE",
"447 672 CURVE SMOOTH",
"534 672 OFFCURVE",
"592 650 OFFCURVE",
"651 589 CURVE",
"674 625 LINE",
"620 684 OFFCURVE",
"548 713 OFFCURVE",
"450 713 CURVE SMOOTH",
"254 713 OFFCURVE",
"121 586 OFFCURVE",
"85 363 CURVE SMOOTH",
"50 139 OFFCURVE",
"140 -8 OFFCURVE",
"363 -8 CURVE SMOOTH"
);
}
);
width = 684;
},
{
anchors = (
{
name = bottom;
position = "{358, 0}";
},
{
name = top;
position = "{470, 705}";
}
);
layerId = "AFEE2FCF-314D-4571-9AD7-6410332F14FF";
paths = (
{
closed = 1;
nodes = (
"475 -10 OFFCURVE",
"565 20 OFFCURVE",
"631 74 CURVE",
"593 175 LINE",
"530 124 OFFCURVE",
"465 104 OFFCURVE",
"398 104 CURVE SMOOTH",
"245 104 OFFCURVE",
"182 204 OFFCURVE",
"207 360 CURVE SMOOTH",
"232 515 OFFCURVE",
"325 601 OFFCURVE",
"463 601 CURVE SMOOTH",
"537 601 OFFCURVE",
"586 584 OFFCURVE",
"642 538 CURVE",
"688 641 LINE",
"637 688 OFFCURVE",
"562 715 OFFCURVE",
"469 715 CURVE SMOOTH",
"255 716 OFFCURVE",
"108 589 OFFCURVE",
"73 368 CURVE SMOOTH",
"38 148 OFFCURVE",
"143 -10 OFFCURVE",
"383 -10 CURVE SMOOTH"
);
}
);
width = 684.5;
}
);
leftKerningGroup = O;
rightKerningGroup = C;
unicode = 0043;
userData = {
anchors = (
);
b = {
};
com.typemytype.robofont.layerData = {
b = {
anchors = (
);
components = (
);
contours = (
);
lib = {
};
name = C;
unicodes = (
);
width = 1353.89001;
};
};
components = (
);
contours = (
);
lib = {
};
name = C;
unicodes = (
);
width = 1354;
};
},
{
color = 4;
glyphname = D;
layers = (
{
anchors = (
{
name = bottom;
position = "{364, 0}";
},
{
name = center;
position = "{234, 358}";
},
{
name = top;
position = "{476, 705}";
}
);
background = {
anchors = (
{
name = bottom;
position = "{364, 0}";
},
{
name = center;
position = "{234, 358}";
},
{
name = top;
position = "{476, 705}";
}
);
paths = (
{
closed = 1;
nodes = (
"317 0 LINE SMOOTH",
"573 0 OFFCURVE",
"732 137 OFFCURVE",
"766 353 CURVE SMOOTH",
"800 570 OFFCURVE",
"685 705 OFFCURVE",
"429 705 CURVE SMOOTH",
"130 705 LINE",
"18 0 LINE"
);
},
{
closed = 1;
nodes = (
"318 531 LINE",
"388 531 LINE SMOOTH",
"518 531 OFFCURVE",
"571 475 OFFCURVE",
"552 353 CURVE SMOOTH",
"533 231 OFFCURVE",
"463 174 OFFCURVE",
"332 174 CURVE SMOOTH",
"262 174 LINE"
);
}
);
};
layerId = "BFD2D546-DAD9-41DE-8B9F-F3E812C082B3";
paths = (
{
closed = 1;
nodes = (
"327 0 LINE SMOOTH",
"573 0 OFFCURVE",
"728 113 OFFCURVE",
"763 333 CURVE SMOOTH",
"798 557 OFFCURVE",
"685 705 OFFCURVE",
"409 705 CURVE SMOOTH",
"130 705 LINE",
"18 0 LINE"
);
},
{
closed = 1;
nodes = (
"318 531 LINE",
"385 531 LINE SMOOTH",
"518 531 OFFCURVE",
"571 475 OFFCURVE",
"550 338 CURVE SMOOTH",
"533 231 OFFCURVE",
"463 174 OFFCURVE",
"332 174 CURVE SMOOTH",
"262 174 LINE"
);
}
);
width = 791;
},
{
anchors = (
{
name = bottom;
position = "{332, 0}";
},
{
name = center;
position = "{193, 358}";
},
{
name = top;
position = "{444, 705}";
}
);
background = {
anchors = (
{
name = bottom;
position = "{332, 0}";
},
{
name = center;
position = "{193, 358}";
},
{
name = top;
position = "{444, 705}";
}
);
paths = (
{
closed = 1;
nodes = (
"271 0 LINE SMOOTH",
"499 0 OFFCURVE",
"644 122 OFFCURVE",
"681 353 CURVE SMOOTH",
"717 583 OFFCURVE",
"611 705 OFFCURVE",
"383 705 CURVE SMOOTH",
"169 705 LINE",
"57 0 LINE"
);
},
{
closed = 1;
nodes = (
"204 666 LINE",
"372 666 LINE SMOOTH",
"582 666 OFFCURVE",
"669 562 OFFCURVE",
"636 353 CURVE SMOOTH",
"603 144 OFFCURVE",
"483 39 OFFCURVE",
"273 39 CURVE SMOOTH",
"105 39 LINE"
);
}
);
};
layerId = "C98CF2FB-27AB-48B2-98BD-5B202BDF0FA3";
paths = (
{
closed = 1;
nodes = (
"271 0 LINE SMOOTH",
"499 0 OFFCURVE",
"642 112 OFFCURVE",
"679 343 CURVE SMOOTH",
"715 573 OFFCURVE",
"615 705 OFFCURVE",
"378 705 CURVE SMOOTH",
"169 705 LINE",
"57 0 LINE"
);
},
{
closed = 1;
nodes = (
"204 666 LINE",
"372 666 LINE SMOOTH",
"582 666 OFFCURVE",
"669 562 OFFCURVE",
"636 353 CURVE SMOOTH",
"602 139 OFFCURVE",
"483 39 OFFCURVE",
"273 39 CURVE SMOOTH",
"105 39 LINE"
);
}
);
width = 733;
},
{
anchors = (
{
name = bottom;
position = "{348, 0}";
},
{
name = center;
position = "{214, 358}";
},
{
name = top;
position = "{460, 705}";
}
);
layerId = "AFEE2FCF-314D-4571-9AD7-6410332F14FF";
paths = (
{
closed = 1;
nodes = (
"299 0 LINE SMOOTH",
"536 0 OFFCURVE",
"685 113 OFFCURVE",
"721 338 CURVE SMOOTH",
"757 565 OFFCURVE",
"650 705 OFFCURVE",
"394 705 CURVE SMOOTH",
"150 705 LINE",
"38 0 LINE"
);
},
{
closed = 1;
nodes = (
"261 599 LINE",
"379 599 LINE SMOOTH",
"550 599 OFFCURVE",
"620 519 OFFCURVE",
"593 346 CURVE SMOOTH",
"568 185 OFFCURVE",
"473 107 OFFCURVE",
"303 107 CURVE SMOOTH",
"184 107 LINE"
);
}
);
width = 762;
}
);
leftKerningGroup = H;
rightKerningGroup = O;
unicode = 0044;
userData = {
anchors = (
);
b = {
};
com.typemytype.robofont.layerData = {
b = {
anchors = (
);
components = (
);
contours = (
{
points = (
{
segmentType = curve;
smooth = 1;
x = 266;
y = 0;
},
{
segmentType = line;
smooth = 1;
x = 1035;
y = 0;
},
{
smooth = 0;
x = 1084;
y = 0;
},
{
smooth = 0;
x = 1108;
y = 34;
},
{
segmentType = curve;
smooth = 1;
x = 1108;
y = 71;
},
{
smooth = 0;
x = 1108;
y = 107;
},
{
smooth = 0;
x = 1084;
y = 141;
},
{
segmentType = curve;
smooth = 1;
x = 1035;
y = 141;
},
{
segmentType = line;
smooth = 0;
x = 356;
y = 141;
},
{
segmentType = line;
smooth = 0;
x = 356;
y = 665;
},
{
segmentType = line;
smooth = 1;
x = 975;
y = 665;
},
{
smooth = 0;
x = 1024;
y = 665;
},
{
smooth = 0;
x = 1049;
y = 698;
},
{
segmentType = curve;
smooth = 1;
x = 1049;
y = 734;
},
{
smooth = 0;
x = 1049;
y = 770;
},
{
smooth = 0;
x = 1026;
y = 803;
},
{
segmentType = curve;
smooth = 1;
x = 975;
y = 803;
},
{
segmentType = line;
smooth = 0;
x = 356;
y = 803;
},
{
segmentType = line;
smooth = 0;
x = 356;
y = 1285;
},
{
segmentType = line;
smooth = 1;
x = 1007;
y = 1285;
},
{
smooth = 0;
x = 1056;
y = 1285;
},
{
smooth = 0;
x = 1080;
y = 1319;
},
{
segmentType = curve;
smooth = 1;
x = 1080;
y = 1356;
},
{
smooth = 0;
x = 1080;
y = 1392;
},
{
smooth = 0;
x = 1056;
y = 1426;
},
{
segmentType = curve;
smooth = 1;
x = 1007;
y = 1426;
},
{
segmentType = line;
smooth = 1;
x = 261;
y = 1426;
},
{
smooth = 0;
x = 213;
y = 1426;
},
{
smooth = 0;
x = 178;
y = 1383;
},
{
segmentType = curve;
smooth = 1;
x = 178;
y = 1340;
},
{
segmentType = line;
smooth = 1;
x = 178;
y = 86;
},
{
smooth = 0;
x = 178;
y = 41;
},
{
smooth = 0;
x = 222;
y = 0;
}
);
}
);
lib = {
};
name = D;
unicodes = (
);
width = 1499;
};
};
components = (
);
contours = (
);
lib = {
};
name = D;
unicodes = (
);
width = 1535;
};
},
{
color = 4;
glyphname = Dhook;
production = uni018A;
layers = (
{
background = {
paths = (
{
closed = 1;
nodes = (
"530 0 LINE SMOOTH",
"776 0 OFFCURVE",
"931 113 OFFCURVE",
"966 333 CURVE SMOOTH",
"1002 557 OFFCURVE",
"888 705 OFFCURVE",
"612 705 CURVE SMOOTH",
"333 705 LINE",
"221 0 LINE"
);
},
{
closed = 1;
nodes = (
"521 531 LINE",
"588 531 LINE SMOOTH",
"721 531 OFFCURVE",
"773 475 OFFCURVE",
"753 338 CURVE SMOOTH",
"737 231 OFFCURVE",
"666 174 OFFCURVE",
"535 174 CURVE SMOOTH",
"465 174 LINE"
);
}
);
};
layerId = "BFD2D546-DAD9-41DE-8B9F-F3E812C082B3";
paths = (
{
closed = 1;
nodes = (
"530 0 LINE SMOOTH",
"776 0 OFFCURVE",
"931 113 OFFCURVE",
"966 333 CURVE SMOOTH",
"1001 556 OFFCURVE",
"888 705 OFFCURVE",
"612 705 CURVE SMOOTH",
"321 705 LINE SMOOTH",
"156 705 OFFCURVE",
"60 630 OFFCURVE",
"38 491 CURVE SMOOTH",
"28 432 LINE",
"199 432 LINE",
"208 485 LINE SMOOTH",
"216 539 OFFCURVE",
"242 561 OFFCURVE",
"295 561 CURVE SMOOTH",
"310 561 LINE",
"221 0 LINE"
);
},
{
closed = 1;
nodes = (
"521 531 LINE",
"588 531 LINE SMOOTH",
"721 531 OFFCURVE",
"773 475 OFFCURVE",
"753 338 CURVE SMOOTH",
"737 231 OFFCURVE",
"666 174 OFFCURVE",
"535 174 CURVE SMOOTH",
"465 174 LINE"
);
}
);
width = 994;
},
{
background = {
paths = (
{
closed = 1;
nodes = (
"377 0 LINE SMOOTH",
"605 0 OFFCURVE",
"748 112 OFFCURVE",
"785 343 CURVE SMOOTH",
"822 573 OFFCURVE",
"721 705 OFFCURVE",
"484 705 CURVE SMOOTH",
"275 705 LINE",
"163 0 LINE"
);
},
{
closed = 1;
nodes = (
"310 666 LINE",
"478 666 LINE SMOOTH",
"688 666 OFFCURVE",
"775 562 OFFCURVE",
"742 353 CURVE SMOOTH",
"708 139 OFFCURVE",
"589 39 OFFCURVE",
"379 39 CURVE SMOOTH",
"211 39 LINE"
);
}
);
};
layerId = "C98CF2FB-27AB-48B2-98BD-5B202BDF0FA3";
paths = (
{
closed = 1;
nodes = (
"377 0 LINE SMOOTH",
"605 0 OFFCURVE",
"748 112 OFFCURVE",
"785 343 CURVE SMOOTH",
"822 573 OFFCURVE",
"721 705 OFFCURVE",
"484 705 CURVE SMOOTH",
"238 705 LINE SMOOTH",
"126 705 OFFCURVE",
"63 655 OFFCURVE",
"46 551 CURVE SMOOTH",
"39 506 LINE",
"79 506 LINE",
"86 549 LINE SMOOTH",
"99 629 OFFCURVE",
"144 666 OFFCURVE",
"229 666 CURVE SMOOTH",
"268 666 LINE",
"163 0 LINE"
);
},
{
closed = 1;
nodes = (
"310 666 LINE",
"478 666 LINE SMOOTH",
"688 666 OFFCURVE",
"775 562 OFFCURVE",
"742 353 CURVE SMOOTH",
"708 139 OFFCURVE",
"589 39 OFFCURVE",
"379 39 CURVE SMOOTH",
"211 39 LINE"
);
}
);
width = 839;
},
{
layerId = "AFEE2FCF-314D-4571-9AD7-6410332F14FF";
paths = (
{
closed = 1;
nodes = (
"454 0 LINE SMOOTH",
"691 0 OFFCURVE",
"840 113 OFFCURVE",
"876 338 CURVE SMOOTH",
"912 565 OFFCURVE",
"805 705 OFFCURVE",
"548 705 CURVE SMOOTH",
"280 705 LINE SMOOTH",
"141 705 OFFCURVE",
"62 643 OFFCURVE",
"42 521 CURVE SMOOTH",
"34 469 LINE",
"139 469 LINE",
"147 517 LINE SMOOTH",
"158 584 OFFCURVE",
"193 614 OFFCURVE",
"262 614 CURVE SMOOTH",
"289 614 LINE",
"192 0 LINE"
);
},
{
closed = 1;
nodes = (
"416 599 LINE",
"533 599 LINE SMOOTH",
"705 599 OFFCURVE",
"774 519 OFFCURVE",
"748 346 CURVE SMOOTH",
"723 185 OFFCURVE",
"628 107 OFFCURVE",
"457 107 CURVE SMOOTH",
"338 107 LINE"
);
}
);
width = 916.5;
}
);
leftKerningGroup = Bhook;
rightKerningGroup = O;
unicode = 018A;
},
{
glyphname = E;
layers = (
{
anchors = (
{
name = bottom;
position = "{303, 0}";
},
{
name = ogonek;
position = "{483, 0}";
},
{
name = top;
position = "{415, 705}";
},
{
name = topleft;
position = "{89, 705}";
}
);
background = {
anchors = (
{
name = bottom;
position = "{303, 0}";
},
{
name = ogonek;
position = "{483, 0}";
},
{
name = top;
position = "{415, 705}";
},
{
name = topleft;
position = "{89, 705}";
}
);
paths = (
{
closed = 1;
nodes = (
"541 0 LINE",
"567 164 LINE",
"250 164 LINE",
"268 276 LINE",
"561 276 LINE",
"587 440 LINE",
"294 440 LINE",
"310 541 LINE",
"627 541 LINE",
"653 705 LINE",
"130 705 LINE",
"18 0 LINE"
);
}
);
};
layerId = "BFD2D546-DAD9-41DE-8B9F-F3E812C082B3";
paths = (
{
closed = 1;
nodes = (
"541 0 LINE",
"567 164 LINE",
"250 164 LINE",
"268 276 LINE",
"561 276 LINE",
"587 440 LINE",
"294 440 LINE",
"310 541 LINE",
"627 541 LINE",
"653 705 LINE",
"130 705 LINE",
"18 0 LINE"
);
}
);
width = 608;
},
{
anchors = (
{
name = bottom;
position = "{283, 0}";
},
{
name = ogonek;
position = "{459, 0}";
},
{
name = top;
position = "{395, 705}";
},
{
name = topleft;
position = "{97, 705}";
}
);
background = {
anchors = (
{
name = bottom;
position = "{283, 0}";
},
{
name = ogonek;
position = "{459, 0}";
},
{
name = top;
position = "{395, 705}";
},
{
name = topleft;
position = "{97, 705}";
}
);
paths = (
{
closed = 1;
nodes = (
"485 0 LINE",
"491 39 LINE",
"105 39 LINE",
"153 338 LINE",
"517 338 LINE",
"523 377 LINE",
"159 377 LINE",
"204 666 LINE",
"590 666 LINE",
"597 705 LINE",
"169 705 LINE",
"57 0 LINE"
);
}
);
};
layerId = "C98CF2FB-27AB-48B2-98BD-5B202BDF0FA3";
paths = (
{
closed = 1;
nodes = (
"485 0 LINE",
"491 39 LINE",
"105 39 LINE",
"153 338 LINE",
"517 338 LINE",
"523 377 LINE",
"159 377 LINE",
"204 666 LINE",
"590 666 LINE",
"597 705 LINE",
"169 705 LINE",
"57 0 LINE"
);
}
);
width = 582;
},
{
anchors = (
{
name = bottom;
position = "{293, 0}";
},
{
name = ogonek;
position = "{471, 0}";
},
{
name = top;
position = "{405, 705}";
},
{
name = topleft;
position = "{93, 705}";
}
);
layerId = "AFEE2FCF-314D-4571-9AD7-6410332F14FF";
paths = (
{
closed = 1;
nodes = (
"513 0 LINE",
"529 102 LINE",
"178 102 LINE",
"211 307 LINE",
"539 307 LINE",
"555 409 LINE",
"227 409 LINE",
"257 604 LINE",
"609 604 LINE",
"625 705 LINE",
"150 705 LINE",
"38 0 LINE"
);
}
);
width = 595;
}
);
leftKerningGroup = H;
rightKerningGroup = E;
unicode = 0045;
userData = {
anchors = (
);
b = {
};
com.typemytype.robofont.layerData = {
b = {
anchors = (
);
components = (
);
contours = (
);
lib = {
};
name = E;
unicodes = (
);
width = 1234;
};
};
components = (
);
contours = (
);
lib = {
};
name = E;
unicodes = (
);
width = 1258;
};
},
{
glyphname = F;
layers = (
{
anchors = (
{
name = bottom;
position = "{273, 0}";
},
{
name = top;
position = "{391, 705}";
}
);
background = {
anchors = (
{
name = bottom;
position = "{273, 0}";
},
{
name = top;
position = "{391, 705}";
}
);
paths = (
{
closed = 1;
nodes = (
"234 0 LINE",
"276 267 LINE",
"548 267 LINE",
"574 431 LINE",
"302 431 LINE",
"320 541 LINE",
"616 541 LINE",
"642 705 LINE",
"130 705 LINE",
"18 0 LINE"
);
}
);
};
layerId = "BFD2D546-DAD9-41DE-8B9F-F3E812C082B3";
paths = (
{
closed = 1;
nodes = (
"234 0 LINE",
"276 267 LINE",
"548 267 LINE",
"574 431 LINE",
"302 431 LINE",
"320 541 LINE",
"616 541 LINE",
"642 705 LINE",
"130 705 LINE",
"18 0 LINE"
);
}
);
width = 590;
},
{
anchors = (
{
name = bottom;
position = "{260, 0}";
},
{
name = top;
position = "{372, 705}";
}
);
background = {
anchors = (
{
name = bottom;
position = "{260, 0}";
},
{
name = top;
position = "{372, 705}";
}
);
paths = (
{
closed = 1;
nodes = (
"99 0 LINE",
"153 338 LINE",
"508 338 LINE",
"514 377 LINE",
"159 377 LINE",
"204 666 LINE",
"580 666 LINE",
"587 705 LINE",
"169 705 LINE",
"57 0 LINE"
);
}
);
};
layerId = "C98CF2FB-27AB-48B2-98BD-5B202BDF0FA3";
paths = (
{
closed = 1;
nodes = (
"99 0 LINE",
"153 338 LINE",
"508 338 LINE",
"514 377 LINE",
"159 377 LINE",
"204 666 LINE",
"580 666 LINE",
"587 705 LINE",
"169 705 LINE",
"57 0 LINE"
);
}
);
width = 554;
},
{
anchors = (
{
name = bottom;
position = "{267, 0}";
},
{
name = top;
position = "{382, 705}";
}
);
layerId = "AFEE2FCF-314D-4571-9AD7-6410332F14FF";
paths = (
{
closed = 1;
nodes = (
"167 0 LINE",
"215 303 LINE",
"528 303 LINE",
"544 404 LINE",
"231 404 LINE",
"262 604 LINE",
"598 604 LINE",
"615 705 LINE",
"150 705 LINE",
"38 0 LINE"
);
}
);
width = 572;
}
);
leftKerningGroup = H;
rightKerningGroup = F;
unicode = 0046;
userData = {
anchors = (
);
b = {
};
com.typemytype.robofont.layerData = {
b = {
anchors = (
);
components = (
);
contours = (
{
points = (
{
segmentType = curve;
smooth = 1;
x = 266;
y = 0;
},
{
segmentType = line;
smooth = 1;
x = 1035;
y = 0;
},
{
smooth = 0;
x = 1084;
y = 0;
},
{
smooth = 0;
x = 1108;
y = 34;
},
{
segmentType = curve;
smooth = 1;
x = 1108;
y = 71;
},
{
smooth = 0;
x = 1108;
y = 107;
},
{
smooth = 0;
x = 1084;
y = 141;
},
{
segmentType = curve;
smooth = 1;
x = 1035;
y = 141;
},
{
segmentType = line;
smooth = 0;
x = 353;
y = 141;
},
{
segmentType = line;
smooth = 0;
x = 353;
y = 665;
},
{
segmentType = line;
smooth = 1;
x = 975;
y = 665;
},
{
smooth = 0;
x = 1024;
y = 665;
},
{
smooth = 0;
x = 1049;
y = 698;
},
{
segmentType = curve;
smooth = 1;
x = 1049;
y = 734;
},
{
smooth = 0;
x = 1049;
y = 770;
},
{
smooth = 0;
x = 1026;
y = 803;
},
{
segmentType = curve;
smooth = 1;
x = 975;
y = 803;
},
{
segmentType = line;
smooth = 0;
x = 353;
y = 803;
},
{
segmentType = line;
smooth = 0;
x = 353;
y = 1285;
},
{
segmentType = line;
smooth = 1;
x = 1007;
y = 1285;
},
{
smooth = 0;
x = 1056;
y = 1285;
},
{
smooth = 0;
x = 1080;
y = 1319;
},
{
segmentType = curve;
smooth = 1;
x = 1080;
y = 1356;
},
{
smooth = 0;
x = 1080;
y = 1392;
},
{
smooth = 0;
x = 1056;
y = 1426;
},
{
segmentType = curve;
smooth = 1;
x = 1007;
y = 1426;
},
{
segmentType = line;
smooth = 1;
x = 261;
y = 1426;
},
{
smooth = 0;
x = 213;
y = 1426;
},
{
smooth = 0;
x = 178;
y = 1383;
},
{
segmentType = curve;
smooth = 1;
x = 178;
y = 1340;
},
{
segmentType = line;
smooth = 1;
x = 178;
y = 86;
},
{
smooth = 0;
x = 178;
y = 41;
},
{
smooth = 0;
x = 222;
y = 0;
}
);
}
);
lib = {
};
name = F;
unicodes = (
);
width = 1142;
};
};
components = (
);
contours = (
);
lib = {
};
name = F;
unicodes = (
);
width = 1175;
};
},
{
color = 4;
glyphname = G;
layers = (
{
anchors = (
{
name = bottom;
position = "{395, 0}";
},
{
name = top;
position = "{500, 705}";
}
);
background = {
anchors = (
{
name = bottom;
position = "{395, 0}";
},
{
name = top;
position = "{500, 705}";
}
);
paths = (
{
closed = 1;
nodes = (
"486 -12 OFFCURVE",
"588 7 OFFCURVE",
"675 45 CURVE",
"732 406 LINE",
"422 406 LINE",
"399 258 LINE",
"534 258 LINE",
"511 115 LINE",
"560 187 LINE",
"510 174 OFFCURVE",
"462 167 OFFCURVE",
"427 167 CURVE SMOOTH",
"306 167 OFFCURVE",
"263 228 OFFCURVE",
"282 348 CURVE SMOOTH",
"301 470 OFFCURVE",
"372 534 OFFCURVE",
"503 534 CURVE SMOOTH",
"573 534 OFFCURVE",
"611 524 OFFCURVE",
"668 488 CURVE",
"758 653 LINE",
"709 694 OFFCURVE",
"631 717 OFFCURVE",
"530 717 CURVE SMOOTH",
"270 717 OFFCURVE",
"92 572 OFFCURVE",
"56 348 CURVE SMOOTH",
"22 135 OFFCURVE",
"134 -12 OFFCURVE",
"387 -12 CURVE SMOOTH"
);
}
);
};
layerId = "BFD2D546-DAD9-41DE-8B9F-F3E812C082B3";
paths = (
{
closed = 1;
nodes = (
"496 -12 OFFCURVE",
"598 7 OFFCURVE",
"675 45 CURVE",
"732 406 LINE",
"422 406 LINE",
"399 258 LINE",
"534 258 LINE",
"511 115 LINE",
"570 187 LINE",
"520 174 OFFCURVE",
"482 167 OFFCURVE",
"437 167 CURVE SMOOTH",
"306 167 OFFCURVE",
"265 238 OFFCURVE",
"284 358 CURVE SMOOTH",
"301 470 OFFCURVE",
"372 534 OFFCURVE",
"503 534 CURVE SMOOTH",
"573 534 OFFCURVE",
"611 526 OFFCURVE",
"668 500 CURVE",
"738 665 LINE",
"689 696 OFFCURVE",
"611 717 OFFCURVE",
"510 717 CURVE SMOOTH",
"268 717 OFFCURVE",
"95 591 OFFCURVE",
"59 368 CURVE SMOOTH",
"24 145 OFFCURVE",
"134 -12 OFFCURVE",
"410 -12 CURVE SMOOTH"
);
}
);
width = 756;
},
{
anchors = (
{
name = bottom;
position = "{366, 0}";
},
{
name = top;
position = "{463, 705}";
}
);
background = {
anchors = (
{
name = bottom;
position = "{366, 0}";
},
{
name = top;
position = "{463, 705}";
}
);
paths = (
{
closed = 1;
nodes = (
"449 -8 OFFCURVE",
"545 13 OFFCURVE",
"600 41 CURVE",
"651 357 LINE",
"417 357 LINE",
"410 318 LINE",
"604 318 LINE",
"560 38 LINE",
"578 74 LINE",
"514 47 OFFCURVE",
"447 33 OFFCURVE",
"371 33 CURVE SMOOTH",
"171 33 OFFCURVE",
"96 145 OFFCURVE",
"129 352 CURVE SMOOTH",
"161 555 OFFCURVE",
"279 672 OFFCURVE",
"457 672 CURVE SMOOTH",
"550 672 OFFCURVE",
"599 645 OFFCURVE",
"656 582 CURVE",
"684 617 LINE",
"633 680 OFFCURVE",
"568 713 OFFCURVE",
"465 713 CURVE SMOOTH",
"261 713 OFFCURVE",
"119 576 OFFCURVE",
"84 353 CURVE SMOOTH",
"48 124 OFFCURVE",
"140 -8 OFFCURVE",
"365 -8 CURVE SMOOTH"
);
}
);
};
layerId = "C98CF2FB-27AB-48B2-98BD-5B202BDF0FA3";
paths = (
{
closed = 1;
nodes = (
"449 -8 OFFCURVE",
"546 13 OFFCURVE",
"601 44 CURVE",
"651 357 LINE",
"417 357 LINE",
"410 318 LINE",
"604 318 LINE",
"560 38 LINE",
"578 77 LINE",
"514 47 OFFCURVE",
"447 33 OFFCURVE",
"371 33 CURVE SMOOTH",
"171 33 OFFCURVE",
"97 152 OFFCURVE",
"129 352 CURVE SMOOTH",
"161 555 OFFCURVE",
"279 672 OFFCURVE",
"457 672 CURVE SMOOTH",
"550 672 OFFCURVE",
"602 648 OFFCURVE",
"656 592 CURVE",
"680 629 LINE",
"629 682 OFFCURVE",
"564 713 OFFCURVE",
"460 713 CURVE SMOOTH",
"258 713 OFFCURVE",
"121 586 OFFCURVE",
"86 363 CURVE SMOOTH",
"50 134 OFFCURVE",
"140 -8 OFFCURVE",
"372 -8 CURVE SMOOTH"
);
}
);
width = 723;
},
{
anchors = (
{
name = bottom;
position = "{381, 0}";
},
{
name = top;
position = "{482, 705}";
}
);
layerId = "AFEE2FCF-314D-4571-9AD7-6410332F14FF";
paths = (
{
closed = 1;
nodes = (
"473 -10 OFFCURVE",
"572 10 OFFCURVE",
"638 45 CURVE",
"692 382 LINE",
"420 382 LINE",
"405 288 LINE",
"569 288 LINE",
"536 77 LINE",
"574 132 LINE",
"517 111 OFFCURVE",
"465 100 OFFCURVE",
"404 100 CURVE SMOOTH",
"239 100 OFFCURVE",
"181 195 OFFCURVE",
"207 355 CURVE SMOOTH",
"231 513 OFFCURVE",
"326 603 OFFCURVE",
"480 603 CURVE SMOOTH",
"562 603 OFFCURVE",
"607 587 OFFCURVE",
"662 546 CURVE",
"709 647 LINE",
"659 689 OFFCURVE",
"588 715 OFFCURVE",
"485 715 CURVE SMOOTH",
"263 715 OFFCURVE",
"108 589 OFFCURVE",
"73 366 CURVE SMOOTH",
"37 140 OFFCURVE",
"137 -10 OFFCURVE",
"391 -10 CURVE SMOOTH"
);
}
);
width = 739.5;
}
);
leftKerningGroup = O;
rightKerningGroup = G;
unicode = 0047;
userData = {
anchors = (
);
b = {
};
com.typemytype.robofont.layerData = {
b = {
anchors = (
);
components = (
);
contours = (
{
points = (
{
segmentType = curve;
smooth = 1;
x = 783;
y = "-22";
},
{
smooth = 0;
x = 965;
y = "-22";
},
{
smooth = 0;
x = 1086;
y = 34;
},
{
segmentType = curve;
smooth = 1;
x = 1166;
y = 86;
},
{
smooth = 0;
x = 1270;
y = 154;
},
{
smooth = 0;
x = 1186;
y = 258;
},
{
segmentType = curve;
smooth = 1;
x = 1112;
y = 214;
},
{
smooth = 0;
x = 1024;
y = 162;
},
{
smooth = 0;
x = 939;
y = 120;
},
{
segmentType = curve;
smooth = 1;
x = 806;
y = 120;
},
{
smooth = 0;
x = 446;
y = 120;
},
{
smooth = 0;
x = 316;
y = 406;
},
{
segmentType = curve;
smooth = 1;
x = 316;
y = 706;
},
{
smooth = 0;
x = 316;
y = 1005;
},
{
smooth = 0;
x = 450;
y = 1296;
},
{
segmentType = curve;
smooth = 1;
x = 801;
y = 1296;
},
{
smooth = 0;
x = 980;
y = 1296;
},
{
smooth = 0;
x = 1053;
y = 1246;
},
{
segmentType = curve;
smooth = 1;
x = 1094;
y = 1225;
},
{
smooth = 0;
x = 1174;
y = 1184;
},
{
smooth = 0;
x = 1231;
y = 1300;
},
{
segmentType = curve;
smooth = 1;
x = 1156;
y = 1343;
},
{
smooth = 0;
x = 1106;
y = 1372;
},
{
smooth = 0;
x = 995;
y = 1438;
},
{
segmentType = curve;
smooth = 1;
x = 797;
y = 1438;
},
{
smooth = 0;
x = 359;
y = 1438;
},
{
smooth = 0;
x = 128;
y = 1093;
},
{
segmentType = curve;
smooth = 1;
x = 128;
y = 704;
},
{
smooth = 0;
x = 128;
y = 307;
},
{
smooth = 0;
x = 350;
y = "-22";
}
);
}
);
lib = {
};
name = G;
unicodes = (
);
width = 1448;
};
};
components = (
);
contours = (
);
lib = {
};
name = G;
unicodes = (
);
width = 1538;
};
},
{
glyphname = H;
layers = (
{
anchors = (
{
name = bottom;
position = "{355, 0}";
},
{
name = center;
position = "{446, 575}";
},
{
name = top;
position = "{467, 705}";
},
{
name = topleft;
position = "{89, 705}";
}
);
background = {
anchors = (
{
name = bottom;
position = "{355, 0}";
},
{
name = center;
position = "{446, 575}";
},
{
name = top;
position = "{467, 705}";
},
{
name = topleft;
position = "{89, 705}";
}
);
paths = (
{
closed = 1;
nodes = (
"234 0 LINE",
"277 269 LINE",
"518 269 LINE",
"475 0 LINE",
"691 0 LINE",
"803 705 LINE",
"587 705 LINE",
"545 445 LINE",
"304 445 LINE",
"346 705 LINE",
"130 705 LINE",
"18 0 LINE"
);
}
);
};
layerId = "BFD2D546-DAD9-41DE-8B9F-F3E812C082B3";
paths = (
{
closed = 1;
nodes = (
"234 0 LINE",
"277 269 LINE",
"518 269 LINE",
"475 0 LINE",
"691 0 LINE",
"803 705 LINE",
"587 705 LINE",
"545 445 LINE",
"304 445 LINE",
"346 705 LINE",
"130 705 LINE",
"18 0 LINE"
);
}
);
width = 789;
},
{
anchors = (
{
name = bottom;
position = "{340, 0}";
},
{
name = center;
position = "{426, 546}";
},
{
name = top;
position = "{452, 705}";
},
{
name = topleft;
position = "{97, 705}";
}
);
background = {
anchors = (
{
name = bottom;
position = "{340, 0}";
},
{
name = center;
position = "{426, 546}";
},
{
name = top;
position = "{452, 705}";
},
{
name = topleft;
position = "{97, 705}";
}
);
paths = (
{
closed = 1;
nodes = (
"99 0 LINE",
"153 338 LINE",
"634 338 LINE",
"580 0 LINE",
"622 0 LINE",
"734 705 LINE",
"692 705 LINE",
"640 377 LINE",
"159 377 LINE",
"211 705 LINE",
"169 705 LINE",
"57 0 LINE"
);
}
);
};
layerId = "C98CF2FB-27AB-48B2-98BD-5B202BDF0FA3";
paths = (
{
closed = 1;
nodes = (
"99 0 LINE",
"153 338 LINE",
"634 338 LINE",
"580 0 LINE",
"622 0 LINE",
"734 705 LINE",
"692 705 LINE",
"640 377 LINE",
"159 377 LINE",
"211 705 LINE",
"169 705 LINE",
"57 0 LINE"
);
}
);
width = 759;
},
{
anchors = (
{
name = bottom;
position = "{348, 0}";
},
{
name = center;
position = "{436, 561}";
},
{
name = top;
position = "{460, 705}";
},
{
name = topleft;
position = "{93, 705}";
}
);
layerId = "AFEE2FCF-314D-4571-9AD7-6410332F14FF";
paths = (
{
closed = 1;
nodes = (
"167 0 LINE",
"215 304 LINE",
"576 304 LINE",
"528 0 LINE",
"657 0 LINE",
"769 705 LINE",
"640 705 LINE",
"593 411 LINE",
"232 411 LINE",
"279 705 LINE",
"150 705 LINE",
"38 0 LINE"
);
}
);
width = 774;
}
);
leftKerningGroup = H;
rightKerningGroup = H;
unicode = 0048;
userData = {
anchors = (
);
b = {
};
com.typemytype.robofont.layerData = {
b = {
anchors = (
);
components = (
);
contours = (
);
lib = {
};
name = H;
unicodes = (
);
width = 1464;
};
};
components = (
);
contours = (
);
lib = {
};
name = H;
unicodes = (
);
width = 1524;
};
},
{
glyphname = Hbar;
layers = (
{
background = {
paths = (
{
closed = 1;
nodes = (
"277 0 LINE",
"316 246 LINE",
"557 246 LINE",
"518 0 LINE",
"734 0 LINE",
"812 495 LINE",
"888 495 LINE",
"912 644 LINE",
"836 644 LINE",
"846 705 LINE",
"630 705 LINE",
"620 644 LINE",
"379 644 LINE",
"389 705 LINE",
"173 705 LINE",
"163 644 LINE",
"87 644 LINE",
"63 495 LINE",
"139 495 LINE",
"61 0 LINE"
);
},
{
closed = 1;
nodes = (
"355 495 LINE",
"596 495 LINE",
"585 422 LINE",
"344 422 LINE"
);
}
);
};
layerId = "BFD2D546-DAD9-41DE-8B9F-F3E812C082B3";
paths = (
{
closed = 1;
nodes = (
"277 0 LINE",
"316 246 LINE",
"557 246 LINE",
"518 0 LINE",
"734 0 LINE",
"812 495 LINE",
"888 495 LINE",
"912 644 LINE",
"836 644 LINE",
"846 705 LINE",
"630 705 LINE",
"620 644 LINE",
"379 644 LINE",
"389 705 LINE",
"173 705 LINE",
"163 644 LINE",
"87 644 LINE",
"63 495 LINE",
"139 495 LINE",
"61 0 LINE"
);
},
{
closed = 1;
nodes = (
"355 495 LINE",
"596 495 LINE",
"585 422 LINE",
"344 422 LINE"
);
}
);
width = 875;
},
{
background = {
paths = (
{
closed = 1;
nodes = (
"104 0 LINE",
"158 338 LINE",
"637 338 LINE",
"583 0 LINE",
"625 0 LINE",
"708 527 LINE",
"806 527 LINE",
"812 565 LINE",
"714 565 LINE",
"737 705 LINE",
"695 705 LINE",
"672 565 LINE",
"193 565 LINE",
"216 705 LINE",
"174 705 LINE",
"151 565 LINE",
"53 565 LINE",
"47 527 LINE",
"145 527 LINE",
"62 0 LINE"
);
},
{
closed = 1;
nodes = (
"187 527 LINE",
"666 527 LINE",
"643 377 LINE",
"164 377 LINE"
);
}
);
};
layerId = "C98CF2FB-27AB-48B2-98BD-5B202BDF0FA3";
paths = (
{
closed = 1;
nodes = (
"104 0 LINE",
"158 338 LINE",
"637 338 LINE",
"583 0 LINE",
"625 0 LINE",
"708 527 LINE",
"806 527 LINE",
"812 565 LINE",
"714 565 LINE",
"737 705 LINE",
"695 705 LINE",
"672 565 LINE",
"193 565 LINE",
"216 705 LINE",
"174 705 LINE",
"151 565 LINE",
"53 565 LINE",
"47 527 LINE",
"145 527 LINE",
"62 0 LINE"
);
},
{
closed = 1;
nodes = (
"187 527 LINE",
"666 527 LINE",
"643 377 LINE",
"164 377 LINE"
);
}
);
width = 767;
},
{
layerId = "AFEE2FCF-314D-4571-9AD7-6410332F14FF";
paths = (
{
closed = 1;
nodes = (
"191 0 LINE",
"237 292 LINE",
"597 292 LINE",
"551 0 LINE",
"680 0 LINE",
"760 511 LINE",
"847 511 LINE",
"862 605 LINE",
"775 605 LINE",
"792 705 LINE",
"663 705 LINE",
"646 605 LINE",
"286 605 LINE",
"303 705 LINE",
"174 705 LINE",
"157 605 LINE",
"70 605 LINE",
"55 511 LINE",
"142 511 LINE",
"62 0 LINE"
);
},
{
closed = 1;
nodes = (
"271 511 LINE",
"631 511 LINE",
"614 400 LINE",
"254 400 LINE"
);
}
);
width = 821;
}
);
leftKerningGroup = H;
rightKerningGroup = H;
unicode = 0126;
userData = {
com.typemytype.robofont.layerData = {
b = {
anchors = (
);
components = (
);
contours = (
);
lib = {
};
name = Hbar;
unicodes = (
);
width = 1464;
};
};
};
},
{
glyphname = I;
layers = (
{
anchors = (
{
name = bottom;
position = "{126, 0}";
},
{
name = ogonek;
position = "{179, 0}";
},
{
name = top;
position = "{238, 705}";
},
{
name = topleft;
position = "{89, 705}";
}
);
background = {
anchors = (
{
name = bottom;
position = "{126, 0}";
},
{
name = ogonek;
position = "{179, 0}";
},
{
name = top;
position = "{238, 705}";
},
{
name = topleft;
position = "{89, 705}";
}
);
paths = (
{
closed = 1;
nodes = (
"234 0 LINE",
"346 705 LINE",
"130 705 LINE",
"18 0 LINE"
);
}
);
};
layerId = "BFD2D546-DAD9-41DE-8B9F-F3E812C082B3";
paths = (
{
closed = 1;
nodes = (
"234 0 LINE",
"346 705 LINE",
"130 705 LINE",
"18 0 LINE"
);
}
);
width = 332;
},
{
anchors = (
{
name = bottom;
position = "{78, 0}";
},
{
name = ogonek;
position = "{99, 0}";
},
{
name = top;
position = "{190, 705}";
},
{
name = topleft;
position = "{98, 705}";
}
);
background = {
anchors = (
{
name = bottom;
position = "{78, 0}";
},
{
name = ogonek;
position = "{99, 0}";
},
{
name = top;
position = "{190, 705}";
},
{
name = topleft;
position = "{98, 705}";
}
);
paths = (
{
closed = 1;
nodes = (
"99 0 LINE",
"211 705 LINE",
"169 705 LINE",
"57 0 LINE"
);
}
);
};
layerId = "C98CF2FB-27AB-48B2-98BD-5B202BDF0FA3";
paths = (
{
closed = 1;
nodes = (
"99 0 LINE",
"211 705 LINE",
"169 705 LINE",
"57 0 LINE"
);
}
);
width = 236;
},
{
anchors = (
{
name = bottom;
position = "{102, 0}";
},
{
name = ogonek;
position = "{139, 0}";
},
{
name = top;
position = "{214, 705}";
},
{
name = topleft;
position = "{94, 705}";
}
);
layerId = "AFEE2FCF-314D-4571-9AD7-6410332F14FF";
paths = (
{
closed = 1;
nodes = (
"167 0 LINE",
"279 705 LINE",
"150 705 LINE",
"38 0 LINE"
);
}
);
width = 284;
}
);
leftKerningGroup = H;
rightKerningGroup = H;
unicode = 0049;
userData = {
anchors = (
);
b = {
};
com.typemytype.robofont.layerData = {
b = {
anchors = (
);
components = (
);
contours = (
);
lib = {
};
name = I;
unicodes = (
);
width = 592;
};
};
components = (
);
contours = (
);
lib = {
};
name = I;
unicodes = (
);
width = 637;
};
},
{
color = 4;
glyphname = J;
layers = (
{
anchors = (
{
name = bottom;
position = "{220, 0}";
},
{
name = top;
position = "{332, 705}";
}
);
background = {
anchors = (
{
name = bottom;
position = "{220, 0}";
},
{
name = top;
position = "{332, 705}";
}
);
paths = (
{
closed = 1;
nodes = (
"227 -187 OFFCURVE",
"309 -102 OFFCURVE",
"338 83 CURVE SMOOTH",
"437 705 LINE",
"221 705 LINE",
"122 82 LINE SMOOTH",
"111 10 OFFCURVE",
"89 -20 OFFCURVE",
"29 -20 CURVE SMOOTH",
"15 -20 OFFCURVE",
"-14 -18 OFFCURVE",
"-39 -13 CURVE",
"-65 -177 LINE",
"-27 -185 OFFCURVE",
"14 -187 OFFCURVE",
"39 -187 CURVE SMOOTH"
);
}
);
};
layerId = "BFD2D546-DAD9-41DE-8B9F-F3E812C082B3";
paths = (
{
closed = 1;
nodes = (
"227 -187 OFFCURVE",
"305 -122 OFFCURVE",
"335 63 CURVE SMOOTH",
"437 705 LINE",
"221 705 LINE",
"122 82 LINE SMOOTH",
"111 10 OFFCURVE",
"89 -20 OFFCURVE",
"29 -20 CURVE SMOOTH",
"15 -20 OFFCURVE",
"-14 -18 OFFCURVE",
"-39 -10 CURVE",
"-65 -174 LINE",
"-27 -185 OFFCURVE",
"14 -187 OFFCURVE",
"39 -187 CURVE SMOOTH"
);
}
);
width = 423;
},
{
anchors = (
{
name = bottom;
position = "{141, 0}";
},
{
name = top;
position = "{253, 705}";
}
);
background = {
anchors = (
{
name = bottom;
position = "{141, 0}";
},
{
name = top;
position = "{253, 705}";
}
);
paths = (
{
closed = 1;
nodes = (
"89 -186 OFFCURVE",
"143 -127 OFFCURVE",
"159 -26 CURVE SMOOTH",
"275 705 LINE",
"233 705 LINE",
"117 -24 LINE SMOOTH",
"104 -110 OFFCURVE",
"62 -148 OFFCURVE",
"1 -148 CURVE SMOOTH",
"-18 -148 OFFCURVE",
"-38 -145 OFFCURVE",
"-62 -139 CURVE",
"-68 -178 LINE",
"-44 -184 OFFCURVE",
"-20 -186 OFFCURVE",
"1 -186 CURVE SMOOTH"
);
}
);
};
layerId = "C98CF2FB-27AB-48B2-98BD-5B202BDF0FA3";
paths = (
{
closed = 1;
nodes = (
"89 -186 OFFCURVE",
"143 -127 OFFCURVE",
"159 -26 CURVE SMOOTH",
"275 705 LINE",
"233 705 LINE",
"117 -24 LINE SMOOTH",
"104 -110 OFFCURVE",
"62 -148 OFFCURVE",
"1 -148 CURVE SMOOTH",
"-18 -148 OFFCURVE",
"-38 -145 OFFCURVE",
"-62 -136 CURVE",
"-68 -175 LINE",
"-44 -184 OFFCURVE",
"-20 -186 OFFCURVE",
"1 -186 CURVE SMOOTH"
);
}
);
width = 300;
},
{
anchors = (
{
name = bottom;
position = "{181, 0}";
},
{
name = top;
position = "{293, 705}";
}
);
layerId = "AFEE2FCF-314D-4571-9AD7-6410332F14FF";
paths = (
{
closed = 1;
nodes = (
"158 -187 OFFCURVE",
"224 -125 OFFCURVE",
"247 19 CURVE SMOOTH",
"356 705 LINE",
"227 705 LINE",
"120 29 LINE SMOOTH",
"108 -50 OFFCURVE",
"76 -84 OFFCURVE",
"15 -84 CURVE SMOOTH",
"-2 -84 OFFCURVE",
"-26 -82 OFFCURVE",
"-51 -73 CURVE",
"-67 -175 LINE",
"-36 -185 OFFCURVE",
"-3 -187 OFFCURVE",
"20 -187 CURVE SMOOTH"
);
}
);
width = 361.5;
}
);
leftKerningGroup = J;
rightKerningGroup = J;
unicode = 004A;
userData = {
anchors = (
);
b = {
};
com.typemytype.robofont.layerData = {
b = {
anchors = (
);
components = (
);
contours = (
);
lib = {
};
name = J;
unicodes = (
);
width = 1003;
};
};
components = (
);
contours = (
);
lib = {
};
name = J;
unicodes = (
);
width = 1126;
};
},
{
color = 4;
glyphname = K;
layers = (
{
anchors = (
{
name = bottom;
position = "{329, 0}";
},
{
name = top;
position = "{441, 705}";
},
{
name = topleft;
position = "{89, 705}";
}
);
background = {
anchors = (
{
name = bottom;
position = "{329, 0}";
},
{
name = top;
position = "{441, 705}";
},
{
name = topleft;
position = "{89, 705}";
}
);
paths = (
{
closed = 1;
nodes = (
"234 0 LINE",
"284 314 LINE",
"286 314 LINE",
"494 0 LINE",
"752 0 LINE",
"474 414 LINE",
"461 332 LINE",
"847 705 LINE",
"597 705 LINE",
"301 408 LINE",
"299 408 LINE",
"346 705 LINE",
"130 705 LINE",
"18 0 LINE"
);
}
);
};
layerId = "BFD2D546-DAD9-41DE-8B9F-F3E812C082B3";
paths = (
{
closed = 1;
nodes = (
"234 0 LINE",
"284 314 LINE",
"286 314 LINE",
"504 0 LINE",
"752 0 LINE",
"464 414 LINE",
"471 332 LINE",
"847 705 LINE",
"591 705 LINE",
"301 408 LINE",
"299 408 LINE",
"346 705 LINE",
"130 705 LINE",
"18 0 LINE"
);
}
);
width = 726;
},
{
anchors = (
{
name = bottom;
position = "{269, 0}";
},
{
name = top;
position = "{380, 705}";
},
{
name = topleft;
position = "{97, 705}";
}
);
background = {
anchors = (
{
name = bottom;
position = "{269, 0}";
},
{
name = top;
position = "{380, 705}";
},
{
name = topleft;
position = "{97, 705}";
}
);
paths = (
{
closed = 1;
nodes = (
"99 0 LINE",
"153 338 LINE",
"155 338 LINE",
"496 0 LINE",
"559 0 LINE",
"180 373 LINE",
"174 343 LINE",
"640 705 LINE",
"579 705 LINE",
"161 377 LINE",
"159 377 LINE",
"211 705 LINE",
"169 705 LINE",
"57 0 LINE"
);
}
);
};
layerId = "C98CF2FB-27AB-48B2-98BD-5B202BDF0FA3";
paths = (
{
closed = 1;
nodes = (
"99 0 LINE",
"153 338 LINE",
"155 338 LINE",
"498 0 LINE",
"559 0 LINE",
"178 373 LINE",
"178 343 LINE",
"640 705 LINE",
"575 705 LINE",
"161 377 LINE",
"159 377 LINE",
"211 705 LINE",
"169 705 LINE",
"57 0 LINE"
);
}
);
width = 605;
},
{
anchors = (
{
name = bottom;
position = "{299, 0}";
},
{
name = top;
position = "{411, 705}";
},
{
name = topleft;
position = "{93, 705}";
}
);
layerId = "AFEE2FCF-314D-4571-9AD7-6410332F14FF";
paths = (
{
closed = 1;
nodes = (
"167 0 LINE",
"219 326 LINE",
"221 326 LINE",
"501 0 LINE",
"656 0 LINE",
"321 394 LINE",
"325 338 LINE",
"744 705 LINE",
"583 705 LINE",
"231 393 LINE",
"229 393 LINE",
"279 705 LINE",
"150 705 LINE",
"38 0 LINE"
);
}
);
width = 665.5;
}
);
leftKerningGroup = H;
rightKerningGroup = K;
unicode = 004B;
userData = {
anchors = (
);
b = {
};
com.typemytype.robofont.layerData = {
b = {
anchors = (
);
components = (
);
contours = (
);
lib = {
};
name = K;
unicodes = (
);
width = 1210;
};
};
components = (
);
contours = (
);
lib = {
};
name = K;
unicodes = (
);
width = 1329;
};
},
{
glyphname = L;
layers = (
{
anchors = (
{
name = bottom;
position = "{282, 0}";
},
{
name = center;
position = "{235, 387}";
},
{
name = dot;
position = "{498, 402}";
},
{
name = top;
position = "{238, 705}";
},
{
name = topright;
position = "{439, 705}";
}
);
background = {
anchors = (
{
name = bottom;
position = "{282, 0}";
},
{
name = center;
position = "{235, 387}";
},
{
name = dot;
position = "{498, 402}";
},
{
name = top;
position = "{238, 705}";
},
{
name = topright;
position = "{439, 705}";
}
);
paths = (
{
closed = 1;
nodes = (
"520 0 LINE",
"548 178 LINE",
"262 178 LINE",
"346 705 LINE",
"130 705 LINE",
"18 0 LINE"
);
}
);
};
layerId = "BFD2D546-DAD9-41DE-8B9F-F3E812C082B3";
paths = (
{
closed = 1;
nodes = (
"520 0 LINE",
"548 178 LINE",
"262 178 LINE",
"346 705 LINE",
"130 705 LINE",
"18 0 LINE"
);
}
);
width = 588;
},
{
anchors = (
{
name = bottom;
position = "{263, 0}";
},
{
name = center;
position = "{185, 387}";
},
{
name = dot;
position = "{405, 386}";
},
{
name = top;
position = "{190, 705}";
},
{
name = topright;
position = "{328, 705}";
}
);
background = {
anchors = (
{
name = bottom;
position = "{263, 0}";
},
{
name = center;
position = "{185, 387}";
},
{
name = dot;
position = "{405, 386}";
},
{
name = top;
position = "{190, 705}";
},
{
name = topright;
position = "{328, 705}";
}
);
paths = (
{
closed = 1;
nodes = (
"477 0 LINE",
"483 39 LINE",
"105 39 LINE",
"211 705 LINE",
"169 705 LINE",
"57 0 LINE"
);
}
);
};
layerId = "C98CF2FB-27AB-48B2-98BD-5B202BDF0FA3";
paths = (
{
closed = 1;
nodes = (
"477 0 LINE",
"483 39 LINE",
"105 39 LINE",
"211 705 LINE",
"169 705 LINE",
"57 0 LINE"
);
}
);
width = 532;
},
{
anchors = (
{
name = bottom;
position = "{273, 0}";
},
{
name = center;
position = "{210, 387}";
},
{
name = dot;
position = "{452, 394}";
},
{
name = top;
position = "{214, 705}";
},
{
name = topright;
position = "{384, 705}";
}
);
layerId = "AFEE2FCF-314D-4571-9AD7-6410332F14FF";
paths = (
{
closed = 1;
nodes = (
"499 0 LINE",
"516 109 LINE",
"184 109 LINE",
"279 705 LINE",
"150 705 LINE",
"38 0 LINE"
);
}
);
width = 560;
}
);
leftKerningGroup = H;
rightKerningGroup = L;
unicode = 004C;
userData = {
anchors = (
);
b = {
};
com.typemytype.robofont.layerData = {
b = {
anchors = (
);
components = (
);
contours = (
{
points = (
{
segmentType = curve;
smooth = 1;
x = 266;
y = 0;
},
{
segmentType = line;
smooth = 1;
x = 1035;
y = 0;
},
{
smooth = 0;
x = 1084;
y = 0;
},
{
smooth = 0;
x = 1108;
y = 34;
},
{
segmentType = curve;
smooth = 1;
x = 1108;
y = 71;
},
{
smooth = 0;
x = 1108;
y = 107;
},
{
smooth = 0;
x = 1084;
y = 141;
},
{
segmentType = curve;
smooth = 1;
x = 1035;
y = 141;
},
{
segmentType = line;
smooth = 0;
x = 356;
y = 141;
},
{
segmentType = line;
smooth = 0;
x = 356;
y = 665;
},
{
segmentType = line;
smooth = 1;
x = 975;
y = 665;
},
{
smooth = 0;
x = 1024;
y = 665;
},
{
smooth = 0;
x = 1049;
y = 698;
},
{
segmentType = curve;
smooth = 1;
x = 1049;
y = 734;
},
{
smooth = 0;
x = 1049;
y = 770;
},
{
smooth = 0;
x = 1026;
y = 803;
},
{
segmentType = curve;
smooth = 1;
x = 975;
y = 803;
},
{
segmentType = line;
smooth = 0;
x = 356;
y = 803;
},
{
segmentType = line;
smooth = 0;
x = 356;
y = 1285;
},
{
segmentType = line;
smooth = 1;
x = 1007;
y = 1285;
},
{
smooth = 0;
x = 1056;
y = 1285;
},
{
smooth = 0;
x = 1080;
y = 1319;
},
{
segmentType = curve;
smooth = 1;
x = 1080;
y = 1356;
},
{
smooth = 0;
x = 1080;
y = 1392;
},
{
smooth = 0;
x = 1056;
y = 1426;
},
{
segmentType = curve;
smooth = 1;
x = 1007;
y = 1426;
},
{
segmentType = line;
smooth = 1;
x = 261;
y = 1426;
},
{
smooth = 0;
x = 213;
y = 1426;
},
{
smooth = 0;
x = 178;
y = 1383;
},
{
segmentType = curve;
smooth = 1;
x = 178;
y = 1340;
},
{
segmentType = line;
smooth = 1;
x = 178;
y = 86;
},
{
smooth = 0;
x = 178;
y = 41;
},
{
smooth = 0;
x = 222;
y = 0;
}
);
}
);
lib = {
};
name = L;
unicodes = (
);
width = 1095;
};
};
components = (
);
contours = (
);
lib = {
};
name = L;
unicodes = (
);
width = 1169;
};
},
{
color = 4;
glyphname = M;
layers = (
{
anchors = (
{
name = bottom;
position = "{406, 0}";
},
{
name = top;
position = "{518, 705}";
}
);
background = {
anchors = (
{
name = bottom;
position = "{406, 0}";
},
{
name = top;
position = "{518, 705}";
}
);
paths = (
{
closed = 1;
nodes = (
"216 0 LINE",
"276 381 LINE",
"225 381 LINE",
"345 0 LINE",
"464 0 LINE",
"704 381 LINE",
"656 381 LINE",
"596 0 LINE",
"791 0 LINE",
"903 705 LINE",
"715 705 LINE",
"425 226 LINE",
"459 226 LINE",
"321 705 LINE",
"133 705 LINE",
"21 0 LINE"
);
}
);
};
layerId = "BFD2D546-DAD9-41DE-8B9F-F3E812C082B3";
paths = (
{
closed = 1;
nodes = (
"216 0 LINE",
"276 381 LINE",
"225 381 LINE",
"345 0 LINE",
"464 0 LINE",
"704 381 LINE",
"656 381 LINE",
"596 0 LINE",
"791 0 LINE",
"903 705 LINE",
"715 705 LINE",
"425 226 LINE",
"459 226 LINE",
"321 705 LINE",
"133 705 LINE",
"21 0 LINE"
);
}
);
width = 892;
},
{
anchors = (
{
name = bottom;
position = "{384, 0}";
},
{
name = top;
position = "{496, 705}";
}
);
background = {
anchors = (
{
name = bottom;
position = "{384, 0}";
},
{
name = top;
position = "{496, 705}";
}
);
paths = (
{
closed = 1;
nodes = (
"96 0 LINE",
"201 665 LINE",
"177 665 LINE",
"367 0 LINE",
"402 0 LINE",
"801 664 LINE",
"777 664 LINE",
"672 0 LINE",
"711 0 LINE",
"823 705 LINE",
"787 705 LINE",
"373 17 LINE",
"401 17 LINE",
"206 705 LINE",
"169 705 LINE",
"57 0 LINE"
);
}
);
};
layerId = "C98CF2FB-27AB-48B2-98BD-5B202BDF0FA3";
paths = (
{
closed = 1;
nodes = (
"96 0 LINE",
"201 665 LINE",
"179 665 LINE",
"370 0 LINE",
"402 0 LINE",
"804 664 LINE",
"777 664 LINE",
"672 0 LINE",
"711 0 LINE",
"823 705 LINE",
"787 705 LINE",
"373 17 LINE",
"401 17 LINE",
"206 705 LINE",
"169 705 LINE",
"57 0 LINE"
);
}
);
width = 848;
},
{
anchors = (
{
name = bottom;
position = "{395, 0}";
},
{
name = top;
position = "{507, 705}";
}
);
layerId = "AFEE2FCF-314D-4571-9AD7-6410332F14FF";
paths = (
{
closed = 1;
nodes = (
"156 0 LINE",
"239 523 LINE",
"202 523 LINE",
"358 0 LINE",
"433 0 LINE",
"754 523 LINE",
"717 523 LINE",
"634 0 LINE",
"751 0 LINE",
"863 705 LINE",
"751 705 LINE",
"399 122 LINE",
"430 122 LINE",
"264 705 LINE",
"151 705 LINE",
"39 0 LINE"
);
}
);
width = 870;
}
);
leftKerningGroup = H;
rightKerningGroup = H;
unicode = 004D;
userData = {
anchors = (
);
b = {
};
com.typemytype.robofont.layerData = {
b = {
anchors = (
);
components = (
);
contours = (
);
lib = {
};
name = M;
unicodes = (
);
width = 1899;
};
};
components = (
);
contours = (
);
lib = {
};
name = M;
unicodes = (
);
width = 1984;
};
},
{
color = 4;
glyphname = N;
layers = (
{
anchors = (
{
name = bottom;
position = "{351, 0}";
},
{
name = top;
position = "{462, 705}";
}
);
background = {
anchors = (
{
name = bottom;
position = "{351, 0}";
},
{
name = top;
position = "{462, 705}";
}
);
paths = (
{
closed = 1;
nodes = (
"220 0 LINE",
"283 395 LINE",
"252 395 LINE",
"515 0 LINE",
"673 0 LINE",
"785 705 LINE",
"584 705 LINE",
"521 310 LINE",
"552 310 LINE",
"288 705 LINE",
"130 705 LINE",
"18 0 LINE"
);
}
);
};
layerId = "BFD2D546-DAD9-41DE-8B9F-F3E812C082B3";
paths = (
{
closed = 1;
nodes = (
"220 0 LINE",
"283 395 LINE",
"252 409 LINE",
"515 0 LINE",
"673 0 LINE",
"785 705 LINE",
"584 705 LINE",
"521 310 LINE",
"552 296 LINE",
"288 705 LINE",
"130 705 LINE",
"18 0 LINE"
);
}
);
width = 771;
},
{
anchors = (
{
name = bottom;
position = "{330, 0}";
},
{
name = top;
position = "{442, 705}";
}
);
background = {
anchors = (
{
name = bottom;
position = "{330, 0}";
},
{
name = top;
position = "{442, 705}";
}
);
paths = (
{
closed = 1;
nodes = (
"96 0 LINE",
"201 663 LINE",
"181 663 LINE",
"567 0 LINE",
"602 0 LINE",
"714 705 LINE",
"675 705 LINE",
"570 42 LINE",
"591 42 LINE",
"205 705 LINE",
"169 705 LINE",
"57 0 LINE"
);
}
);
};
layerId = "C98CF2FB-27AB-48B2-98BD-5B202BDF0FA3";
paths = (
{
closed = 1;
nodes = (
"96 0 LINE",
"201 663 LINE",
"186 663 LINE",
"567 0 LINE",
"602 0 LINE",
"714 705 LINE",
"675 705 LINE",
"570 42 LINE",
"586 42 LINE",
"205 705 LINE",
"169 705 LINE",
"57 0 LINE"
);
}
);
width = 739;
},
{
anchors = (
{
name = bottom;
position = "{341, 0}";
},
{
name = top;
position = "{452, 705}";
}
);
layerId = "AFEE2FCF-314D-4571-9AD7-6410332F14FF";
paths = (
{
closed = 1;
nodes = (
"158 0 LINE",
"242 529 LINE",
"219 536 LINE",
"541 0 LINE",
"638 0 LINE",
"750 705 LINE",
"630 705 LINE",
"546 176 LINE",
"569 169 LINE",
"247 705 LINE",
"150 705 LINE",
"38 0 LINE"
);
}
);
width = 755;
}
);
leftKerningGroup = H;
rightKerningGroup = H;
unicode = 004E;
userData = {
anchors = (
);
b = {
};
com.typemytype.robofont.layerData = {
b = {
anchors = (
);
components = (
);
contours = (
);
lib = {
};
name = N;
unicodes = (
);
width = 1499;
};
};
components = (
);
contours = (
);
lib = {
};
name = N;
unicodes = (
);
width = 1557;
};
},
{
color = 4;
glyphname = Eng;
layers = (
{
anchors = (
{
name = bottom;
position = "{351, 0}";
},
{
name = top;
position = "{462, 705}";
}
);
background = {
anchors = (
{
name = bottom;
position = "{351, 0}";
},
{
name = top;
position = "{462, 705}";
}
);
paths = (
{
closed = 1;
nodes = (
"392 -190 LINE SMOOTH",
"587 -177 OFFCURVE",
"654 -118 OFFCURVE",
"679 40 CURVE SMOOTH",
"785 705 LINE",
"584 705 LINE",
"521 310 LINE",
"552 310 LINE",
"288 705 LINE",
"130 705 LINE",
"18 0 LINE",
"220 0 LINE",
"283 395 LINE",
"252 395 LINE",
"515 0 LINE",
"485 76 LINE",
"474 9 LINE SMOOTH",
"469 -24 OFFCURVE",
"449 -38 OFFCURVE",
"411 -42 CURVE SMOOTH",
"354 -48 LINE",
"345 -193 LINE"
);
}
);
};
layerId = "BFD2D546-DAD9-41DE-8B9F-F3E812C082B3";
paths = (
{
closed = 1;
nodes = (
"392 -190 LINE SMOOTH",
"587 -177 OFFCURVE",
"653 -128 OFFCURVE",
"678 30 CURVE SMOOTH",
"785 705 LINE",
"584 705 LINE",
"521 310 LINE",
"552 296 LINE",
"288 705 LINE",
"130 705 LINE",
"18 0 LINE",
"220 0 LINE",
"283 395 LINE",
"252 409 LINE",
"515 0 LINE",
"485 76 LINE",
"474 9 LINE SMOOTH",
"469 -24 OFFCURVE",
"449 -38 OFFCURVE",
"411 -42 CURVE SMOOTH",
"354 -48 LINE",
"345 -193 LINE"
);
}
);
width = 771;
},
{
anchors = (
{
name = bottom;
position = "{330, 0}";
},
{
name = top;
position = "{442, 705}";
}
);
background = {
anchors = (
{
name = bottom;
position = "{330, 0}";
},
{
name = top;
position = "{442, 705}";
}
);
paths = (
{
closed = 1;
nodes = (
"96 0 LINE",
"201 663 LINE",
"186 663 LINE",
"567 0 LINE",
"602 0 LINE",
"714 705 LINE",
"675 705 LINE",
"570 42 LINE",
"586 42 LINE",
"205 705 LINE",
"169 705 LINE",
"57 0 LINE"
);
}
);
};
layerId = "C98CF2FB-27AB-48B2-98BD-5B202BDF0FA3";
paths = (
{
closed = 1;
nodes = (
"426 -190 LINE SMOOTH",
"519 -184 OFFCURVE",
"582 -124 OFFCURVE",
"599 -21 CURVE SMOOTH",
"714 705 LINE",
"675 705 LINE",
"570 42 LINE",
"586 42 LINE",
"205 705 LINE",
"169 705 LINE",
"57 0 LINE",
"96 0 LINE",
"201 663 LINE",
"186 663 LINE",
"567 0 LINE",
"567 26 LINE",
"560 -22 LINE SMOOTH",
"547 -102 OFFCURVE",
"500 -147 OFFCURVE",
"427 -152 CURVE SMOOTH",
"383 -155 LINE",
"380 -193 LINE"
);
}
);
width = 739;
},
{
anchors = (
{
name = bottom;
position = "{341, 0}";
},
{
name = top;
position = "{452, 705}";
}
);
layerId = "AFEE2FCF-314D-4571-9AD7-6410332F14FF";
paths = (
{
closed = 1;
nodes = (
"409 -190 LINE SMOOTH",
"553 -181 OFFCURVE",
"618 -126 OFFCURVE",
"639 5 CURVE SMOOTH",
"750 705 LINE",
"630 705 LINE",
"546 176 LINE",
"569 169 LINE",
"247 705 LINE",
"150 705 LINE",
"38 0 LINE",
"158 0 LINE",
"242 529 LINE",
"219 536 LINE",
"541 0 LINE",
"526 51 LINE",
"517 -7 LINE SMOOTH",
"508 -63 OFFCURVE",
"475 -93 OFFCURVE",
"419 -97 CURVE SMOOTH",
"369 -102 LINE",
"363 -193 LINE"
);
}
);
width = 755;
}
);
leftKerningGroup = H;
rightKerningGroup = H;
unicode = 014A;
userData = {
com.typemytype.robofont.layerData = {
b = {
anchors = (
);
components = (
);
contours = (
);
lib = {
};
name = Eng;
unicodes = (
);
width = 1495;
};
};
};
},
{
color = 4;
glyphname = O;
layers = (
{
anchors = (
{
name = Qtail;
position = "{365, -12}";
},
{
name = bottom;
position = "{367, 0}";
},
{
name = center;
position = "{434, 353}";
},
{
name = ogonek;
position = "{443, 0}";
},
{
name = top;
position = "{479, 705}";
},
{
name = topleft;
position = "{97, 705}";
},
{
name = topright;
position = "{546, 705}";
}
);
background = {
anchors = (
{
name = Qtail;
position = "{365, -12}";
},
{
name = bottom;
position = "{367, 0}";
},
{
name = center;
position = "{434, 353}";
},
{
name = ogonek;
position = "{443, 0}";
},
{
name = top;
position = "{479, 705}";
},
{
name = topleft;
position = "{97, 705}";
},
{
name = topright;
position = "{557, 705}";
}
);
paths = (
{
closed = 1;
nodes = (
"589 -12 OFFCURVE",
"754 135 OFFCURVE",
"789 353 CURVE SMOOTH",
"823 571 OFFCURVE",
"705 717 OFFCURVE",
"480 717 CURVE SMOOTH",
"256 717 OFFCURVE",
"91 571 OFFCURVE",
"57 353 CURVE SMOOTH",
"23 136 OFFCURVE",
"140 -12 OFFCURVE",
"364 -12 CURVE SMOOTH"
);
},
{
closed = 1;
nodes = (
"296 167 OFFCURVE",
"264 236 OFFCURVE",
"283 353 CURVE SMOOTH",
"301 470 OFFCURVE",
"355 538 OFFCURVE",
"451 538 CURVE SMOOTH",
"547 538 OFFCURVE",
"581 469 OFFCURVE",
"563 353 CURVE SMOOTH",
"545 237 OFFCURVE",
"488 167 OFFCURVE",
"392 167 CURVE SMOOTH"
);
}
);
};
layerId = "BFD2D546-DAD9-41DE-8B9F-F3E812C082B3";
paths = (
{
closed = 1;
nodes = (
"26 156 OFFCURVE",
"140 -12 OFFCURVE",
"386 -12 CURVE SMOOTH",
"599 -12 OFFCURVE",
"751 115 OFFCURVE",
"785 333 CURVE SMOOTH",
"820 551 OFFCURVE",
"705 717 OFFCURVE",
"458 717 CURVE SMOOTH",
"246 717 OFFCURVE",
"94 591 OFFCURVE",
"60 373 CURVE SMOOTH"
);
},
{
closed = 1;
nodes = (
"301 470 OFFCURVE",
"348 538 OFFCURVE",
"439 538 CURVE SMOOTH",
"536 538 OFFCURVE",
"581 469 OFFCURVE",
"561 343 CURVE SMOOTH",
"545 237 OFFCURVE",
"495 167 OFFCURVE",
"404 167 CURVE SMOOTH",
"307 167 OFFCURVE",
"264 236 OFFCURVE",
"284 363 CURVE SMOOTH"
);
}
);
width = 814;
},
{
anchors = (
{
name = Qtail;
position = "{338, -8}";
},
{
name = bottom;
position = "{339, 0}";
},
{
name = center;
position = "{396, 353}";
},
{
name = ogonek;
position = "{396, 0}";
},
{
name = top;
position = "{451, 705}";
},
{
name = topleft;
position = "{97, 705}";
},
{
name = topright;
position = "{521, 705}";
}
);
background = {
paths = (
{
closed = 1;
nodes = (
"537 -8 OFFCURVE",
"670 119 OFFCURVE",
"705 342 CURVE SMOOTH",
"740 564 OFFCURVE",
"646 713 OFFCURVE",
"447 713 CURVE SMOOTH",
"254 713 OFFCURVE",
"121 586 OFFCURVE",
"86 363 CURVE SMOOTH",
"51 139 OFFCURVE",
"145 -8 OFFCURVE",
"343 -8 CURVE SMOOTH"
);
},
{
closed = 1;
nodes = (
"178 33 OFFCURVE",
"97 156 OFFCURVE",
"129 353 CURVE SMOOTH",
"162 555 OFFCURVE",
"272 672 OFFCURVE",
"445 672 CURVE SMOOTH",
"613 672 OFFCURVE",
"693 548 OFFCURVE",
"662 352 CURVE SMOOTH",
"630 150 OFFCURVE",
"519 33 OFFCURVE",
"346 33 CURVE SMOOTH"
);
}
);
};
layerId = "C98CF2FB-27AB-48B2-98BD-5B202BDF0FA3";
paths = (
{
closed = 1;
nodes = (
"51 139 OFFCURVE",
"145 -8 OFFCURVE",
"343 -8 CURVE SMOOTH",
"537 -8 OFFCURVE",
"670 119 OFFCURVE",
"705 342 CURVE SMOOTH",
"740 564 OFFCURVE",
"646 713 OFFCURVE",
"447 713 CURVE SMOOTH",
"254 713 OFFCURVE",
"121 586 OFFCURVE",
"86 363 CURVE SMOOTH"
);
},
{
closed = 1;
nodes = (
"162 555 OFFCURVE",
"272 672 OFFCURVE",
"445 672 CURVE SMOOTH",
"613 672 OFFCURVE",
"693 548 OFFCURVE",
"662 352 CURVE SMOOTH",
"630 150 OFFCURVE",
"519 33 OFFCURVE",
"346 33 CURVE SMOOTH",
"178 33 OFFCURVE",
"97 156 OFFCURVE",
"129 353 CURVE SMOOTH"
);
}
);
width = 759;
},
{
anchors = (
{
name = Qtail;
position = "{352, -10}";
},
{
name = bottom;
position = "{353, 0}";
},
{
name = center;
position = "{415, 353}";
},
{
name = ogonek;
position = "{420, 0}";
},
{
name = top;
position = "{465, 705}";
},
{
name = topleft;
position = "{97, 705}";
},
{
name = topright;
position = "{534, 705}";
}
);
layerId = "AFEE2FCF-314D-4571-9AD7-6410332F14FF";
paths = (
{
closed = 1;
nodes = (
"39 148 OFFCURVE",
"143 -10 OFFCURVE",
"365 -10 CURVE SMOOTH",
"568 -10 OFFCURVE",
"711 117 OFFCURVE",
"745 338 CURVE SMOOTH",
"780 558 OFFCURVE",
"676 715 OFFCURVE",
"453 715 CURVE SMOOTH",
"250 715 OFFCURVE",
"108 589 OFFCURVE",
"73 368 CURVE SMOOTH"
);
},
{
closed = 1;
nodes = (
"232 513 OFFCURVE",
"310 605 OFFCURVE",
"442 605 CURVE SMOOTH",
"575 605 OFFCURVE",
"637 509 OFFCURVE",
"612 348 CURVE SMOOTH",
"588 194 OFFCURVE",
"507 100 OFFCURVE",
"375 100 CURVE SMOOTH",
"243 100 OFFCURVE",
"181 196 OFFCURVE",
"207 358 CURVE SMOOTH"
);
}
);
width = 786.5;
}
);
leftKerningGroup = O;
rightKerningGroup = O;
unicode = 004F;
userData = {
anchors = (
);
b = {
};
com.typemytype.robofont.guides = (
);
com.typemytype.robofont.layerData = {
b = {
anchors = (
);
components = (
);
contours = (
);
lib = {
};
name = O;
unicodes = (
);
width = 1597;
};
};
components = (
);
contours = (
);
lib = {
};
name = O;
unicodes = (
);
width = 1604;
};
},
{
glyphname = Oslash;
layers = (
{
anchors = (
{
name = Qtail;
position = "{365, -12}";
},
{
name = bottom;
position = "{367, 0}";
},
{
name = center;
position = "{434, 353}";
},
{
name = ogonek;
position = "{443, 0}";
},
{
name = top;
position = "{479, 705}";
},
{
name = topleft;
position = "{97, 705}";
},
{
name = topright;
position = "{546, 705}";
}
);
background = {
components = (
{
name = O;
},
{
name = slashlongcomb.case;
transform = "{1, 0, 0, 1, 418, 0}";
}
);
};
layerId = "BFD2D546-DAD9-41DE-8B9F-F3E812C082B3";
paths = (
{
closed = 1;
nodes = (
"26 156 OFFCURVE",
"140 -12 OFFCURVE",
"386 -12 CURVE SMOOTH",
"599 -12 OFFCURVE",
"751 115 OFFCURVE",
"785 333 CURVE SMOOTH",
"820 551 OFFCURVE",
"705 717 OFFCURVE",
"458 717 CURVE SMOOTH",
"246 717 OFFCURVE",
"94 591 OFFCURVE",
"60 373 CURVE SMOOTH"
);
},
{
closed = 1;
nodes = (
"301 470 OFFCURVE",
"348 538 OFFCURVE",
"439 538 CURVE SMOOTH",
"536 538 OFFCURVE",
"581 469 OFFCURVE",
"561 343 CURVE SMOOTH",
"545 237 OFFCURVE",
"495 167 OFFCURVE",
"404 167 CURVE SMOOTH",
"307 167 OFFCURVE",
"264 236 OFFCURVE",
"284 363 CURVE SMOOTH"
);
},
{
closed = 1;
nodes = (
"355 154 LINE",
"597 468 LINE",
"679 553 LINE",
"782 691 LINE",
"657 776 LINE",
"554 638 LINE",
"511 553 LINE",
"269 239 LINE",
"187 154 LINE",
"84 16 LINE",
"210 -69 LINE",
"312 69 LINE"
);
}
);
width = 814;
},
{
anchors = (
{
name = Qtail;
position = "{338, -8}";
},
{
name = bottom;
position = "{339, 0}";
},
{
name = center;
position = "{396, 353}";
},
{
name = ogonek;
position = "{396, 0}";
},
{
name = top;
position = "{451, 705}";
},
{
name = topleft;
position = "{97, 705}";
},
{
name = topright;
position = "{521, 705}";
}
);
background = {
components = (
{
name = O;
},
{
name = slashlongcomb.case;
transform = "{1, 0, 0, 1, 380, 0}";
}
);
};
layerId = "C98CF2FB-27AB-48B2-98BD-5B202BDF0FA3";
paths = (
{
closed = 1;
nodes = (
"51 139 OFFCURVE",
"145 -8 OFFCURVE",
"343 -8 CURVE SMOOTH",
"537 -8 OFFCURVE",
"670 119 OFFCURVE",
"705 342 CURVE SMOOTH",
"740 564 OFFCURVE",
"646 713 OFFCURVE",
"447 713 CURVE SMOOTH",
"254 713 OFFCURVE",
"121 586 OFFCURVE",
"86 363 CURVE SMOOTH"
);
},
{
closed = 1;
nodes = (
"162 555 OFFCURVE",
"272 672 OFFCURVE",
"445 672 CURVE SMOOTH",
"613 672 OFFCURVE",
"693 548 OFFCURVE",
"662 352 CURVE SMOOTH",
"630 150 OFFCURVE",
"519 33 OFFCURVE",
"346 33 CURVE SMOOTH",
"178 33 OFFCURVE",
"97 156 OFFCURVE",
"129 353 CURVE SMOOTH"
);
},
{
closed = 1;
nodes = (
"215 76 LINE",
"607 606 LINE",
"623 628 LINE",
"682 707 LINE",
"652 729 LINE",
"593 651 LINE",
"577 629 LINE",
"185 99 LINE",
"168 77 LINE",
"110 -2 LINE",
"140 -24 LINE",
"198 54 LINE"
);
}
);
width = 759;
},
{
anchors = (
{
name = Qtail;
position = "{352, -10}";
},
{
name = bottom;
position = "{353, 0}";
},
{
name = center;
position = "{415, 353}";
},
{
name = ogonek;
position = "{420, 0}";
},
{
name = top;
position = "{465, 705}";
},
{
name = topleft;
position = "{97, 705}";
},
{
name = topright;
position = "{534, 705}";
}
);
layerId = "AFEE2FCF-314D-4571-9AD7-6410332F14FF";
paths = (
{
closed = 1;
nodes = (
"39 148 OFFCURVE",
"143 -10 OFFCURVE",
"365 -10 CURVE SMOOTH",
"568 -10 OFFCURVE",
"711 117 OFFCURVE",
"745 338 CURVE SMOOTH",
"780 558 OFFCURVE",
"676 715 OFFCURVE",
"453 715 CURVE SMOOTH",
"250 715 OFFCURVE",
"108 589 OFFCURVE",
"73 368 CURVE SMOOTH"
);
},
{
closed = 1;
nodes = (
"232 513 OFFCURVE",
"310 605 OFFCURVE",
"442 605 CURVE SMOOTH",
"575 605 OFFCURVE",
"637 509 OFFCURVE",
"612 348 CURVE SMOOTH",
"588 194 OFFCURVE",
"507 100 OFFCURVE",
"375 100 CURVE SMOOTH",
"243 100 OFFCURVE",
"181 196 OFFCURVE",
"207 358 CURVE SMOOTH"
);
},
{
closed = 1;
nodes = (
"284 115 LINE",
"602 537 LINE",
"651 591 LINE",
"732 699 LINE",
"654 753 LINE",
"573 645 LINE",
"544 591 LINE",
"226 169 LINE",
"177 116 LINE",
"96 7 LINE",
"174 -47 LINE",
"254 62 LINE"
);
}
);
width = 787;
}
);
leftKerningGroup = O;
rightKerningGroup = O;
unicode = 00D8;
userData = {
com.typemytype.robofont.layerData = {
b = {
anchors = (
);
components = (
);
contours = (
);
lib = {
};
name = Oslash;
unicodes = (
);
width = 1597;
};
};
};
},
{
color = 4;
glyphname = OE;
layers = (
{
anchors = (
{
name = bottom;
position = "{586, 0}";
},
{
name = top;
position = "{698, 705}";
}
);
background = {
anchors = (
{
name = bottom;
position = "{586, 0}";
},
{
name = top;
position = "{698, 705}";
}
);
paths = (
{
closed = 1;
nodes = (
"599 -12 OFFCURVE",
"751 115 OFFCURVE",
"785 333 CURVE SMOOTH",
"820 551 OFFCURVE",
"705 717 OFFCURVE",
"458 717 CURVE SMOOTH",
"246 717 OFFCURVE",
"94 591 OFFCURVE",
"60 373 CURVE SMOOTH",
"26 156 OFFCURVE",
"140 -12 OFFCURVE",
"386 -12 CURVE SMOOTH"
);
},
{
closed = 1;
nodes = (
"307 167 OFFCURVE",
"264 236 OFFCURVE",
"284 363 CURVE SMOOTH",
"301 470 OFFCURVE",
"348 538 OFFCURVE",
"439 538 CURVE SMOOTH",
"536 538 OFFCURVE",
"581 469 OFFCURVE",
"561 343 CURVE SMOOTH",
"545 237 OFFCURVE",
"495 167 OFFCURVE",
"404 167 CURVE SMOOTH"
);
}
);
};
layerId = "BFD2D546-DAD9-41DE-8B9F-F3E812C082B3";
paths = (
{
closed = 1;
nodes = (
"986 0 LINE",
"1012 164 LINE",
"709 164 LINE",
"727 276 LINE",
"1006 276 LINE",
"1032 440 LINE",
"753 440 LINE",
"769 541 LINE",
"1072 541 LINE",
"1098 705 LINE",
"589 705 LINE",
"477 0 LINE"
);
},
{
closed = 1;
nodes = (
"410 -12 OFFCURVE",
"457 8 OFFCURVE",
"493 38 CURVE",
"522 230 LINE",
"495 193 OFFCURVE",
"463 167 OFFCURVE",
"394 167 CURVE SMOOTH",
"307 167 OFFCURVE",
"264 236 OFFCURVE",
"284 363 CURVE SMOOTH",
"301 470 OFFCURVE",
"348 538 OFFCURVE",
"439 538 CURVE SMOOTH",
"498 538 OFFCURVE",
"537 517 OFFCURVE",
"560 454 CURVE",
"594 667 LINE",
"562 700 OFFCURVE",
"502 717 OFFCURVE",
"428 717 CURVE SMOOTH",
"236 717 OFFCURVE",
"94 591 OFFCURVE",
"60 373 CURVE SMOOTH",
"26 156 OFFCURVE",
"130 -12 OFFCURVE",
"346 -12 CURVE SMOOTH"
);
}
);
width = 1053;
},
{
anchors = (
{
name = bottom;
position = "{563, 0}";
},
{
name = top;
position = "{675, 705}";
}
);
background = {
anchors = (
{
name = bottom;
position = "{563, 0}";
},
{
name = top;
position = "{675, 705}";
}
);
paths = (
{
closed = 1;
nodes = (
"528 -8 OFFCURVE",
"670 120 OFFCURVE",
"706 344 CURVE SMOOTH",
"740 566 OFFCURVE",
"646 713 OFFCURVE",
"447 713 CURVE SMOOTH",
"254 713 OFFCURVE",
"121 586 OFFCURVE",
"86 363 CURVE SMOOTH",
"51 140 OFFCURVE",
"139 -8 OFFCURVE",
"343 -8 CURVE SMOOTH"
);
},
{
closed = 1;
nodes = (
"171 33 OFFCURVE",
"98 159 OFFCURVE",
"129 353 CURVE SMOOTH",
"161 555 OFFCURVE",
"272 672 OFFCURVE",
"445 672 CURVE SMOOTH",
"613 672 OFFCURVE",
"693 549 OFFCURVE",
"662 353 CURVE SMOOTH",
"630 150 OFFCURVE",
"511 33 OFFCURVE",
"344 33 CURVE SMOOTH"
);
}
);
};
layerId = "C98CF2FB-27AB-48B2-98BD-5B202BDF0FA3";
paths = (
{
closed = 1;
nodes = (
"960 0 LINE",
"966 39 LINE",
"580 39 LINE",
"628 338 LINE",
"994 338 LINE",
"1000 377 LINE",
"634 377 LINE",
"679 666 LINE",
"1065 666 LINE",
"1072 705 LINE",
"644 705 LINE",
"532 0 LINE"
);
},
{
closed = 1;
nodes = (
"431 -8 OFFCURVE",
"503 19 OFFCURVE",
"565 75 CURVE",
"575 141 LINE",
"518 70 OFFCURVE",
"438 33 OFFCURVE",
"344 33 CURVE SMOOTH",
"171 33 OFFCURVE",
"98 159 OFFCURVE",
"129 353 CURVE SMOOTH",
"161 555 OFFCURVE",
"272 672 OFFCURVE",
"445 672 CURVE SMOOTH",
"538 672 OFFCURVE",
"607 631 OFFCURVE",
"642 565 CURVE",
"652 623 LINE",
"607 684 OFFCURVE",
"533 713 OFFCURVE",
"447 713 CURVE SMOOTH",
"254 713 OFFCURVE",
"121 586 OFFCURVE",
"86 363 CURVE SMOOTH",
"51 140 OFFCURVE",
"139 -8 OFFCURVE",
"343 -8 CURVE SMOOTH"
);
}
);
width = 1057;
},
{
anchors = (
{
name = bottom;
position = "{575, 0}";
},
{
name = top;
position = "{687, 705}";
}
);
layerId = "AFEE2FCF-314D-4571-9AD7-6410332F14FF";
paths = (
{
closed = 1;
nodes = (
"973 0 LINE",
"989 102 LINE",
"645 102 LINE",
"678 307 LINE",
"1000 307 LINE",
"1016 409 LINE",
"694 409 LINE",
"724 604 LINE",
"1069 604 LINE",
"1085 705 LINE",
"617 705 LINE",
"505 0 LINE"
);
},
{
closed = 1;
nodes = (
"421 -10 OFFCURVE",
"480 14 OFFCURVE",
"529 57 CURVE",
"549 186 LINE",
"507 132 OFFCURVE",
"451 100 OFFCURVE",
"369 100 CURVE SMOOTH",
"239 100 OFFCURVE",
"181 198 OFFCURVE",
"207 358 CURVE SMOOTH",
"231 513 OFFCURVE",
"310 605 OFFCURVE",
"442 605 CURVE SMOOTH",
"518 605 OFFCURVE",
"572 574 OFFCURVE",
"601 510 CURVE",
"623 645 LINE",
"585 692 OFFCURVE",
"518 715 OFFCURVE",
"438 715 CURVE SMOOTH",
"245 715 OFFCURVE",
"108 589 OFFCURVE",
"73 368 CURVE SMOOTH",
"39 148 OFFCURVE",
"135 -10 OFFCURVE",
"345 -10 CURVE SMOOTH"
);
}
);
width = 1055;
}
);
leftKerningGroup = O;
rightKerningGroup = E;
unicode = 0152;
},
{
color = 4;
glyphname = P;
layers = (
{
anchors = (
{
name = bottom;
position = "{305, 0}";
},
{
name = top;
position = "{416, 705}";
}
);
background = {
anchors = (
{
name = bottom;
position = "{305, 0}";
},
{
name = top;
position = "{416, 705}";
}
);
paths = (
{
closed = 1;
nodes = (
"234 0 LINE",
"274 251 LINE",
"422 251 LINE SMOOTH",
"588 251 OFFCURVE",
"687 340 OFFCURVE",
"709 478 CURVE SMOOTH",
"731 616 OFFCURVE",
"660 705 OFFCURVE",
"494 705 CURVE SMOOTH",
"130 705 LINE",
"18 0 LINE"
);
},
{
closed = 1;
nodes = (
"320 541 LINE",
"439 541 LINE SMOOTH",
"490 541 OFFCURVE",
"509 518 OFFCURVE",
"503 478 CURVE SMOOTH",
"496 438 OFFCURVE",
"470 415 OFFCURVE",
"419 415 CURVE SMOOTH",
"300 415 LINE"
);
}
);
};
layerId = "BFD2D546-DAD9-41DE-8B9F-F3E812C082B3";
paths = (
{
closed = 1;
nodes = (
"234 0 LINE",
"274 251 LINE",
"422 251 LINE SMOOTH",
"598 251 OFFCURVE",
"687 341 OFFCURVE",
"706 460 CURVE SMOOTH",
"729 606 OFFCURVE",
"650 705 OFFCURVE",
"474 705 CURVE SMOOTH",
"130 705 LINE",
"18 0 LINE"
);
},
{
closed = 1;
nodes = (
"320 541 LINE",
"434 541 LINE SMOOTH",
"490 541 OFFCURVE",
"509 517 OFFCURVE",
"502 474 CURVE SMOOTH",
"496 437 OFFCURVE",
"472 415 OFFCURVE",
"419 415 CURVE SMOOTH",
"300 415 LINE"
);
}
);
width = 694;
},
{
anchors = (
{
name = bottom;
position = "{274, 0}";
},
{
name = top;
position = "{386, 705}";
}
);
background = {
anchors = (
{
name = bottom;
position = "{274, 0}";
},
{
name = top;
position = "{386, 705}";
}
);
paths = (
{
closed = 1;
nodes = (
"99 0 LINE",
"149 317 LINE",
"370 317 LINE SMOOTH",
"512 317 OFFCURVE",
"607 389 OFFCURVE",
"626 511 CURVE SMOOTH",
"645 633 OFFCURVE",
"574 705 OFFCURVE",
"432 705 CURVE SMOOTH",
"169 705 LINE",
"57 0 LINE"
);
},
{
closed = 1;
nodes = (
"204 666 LINE",
"424 666 LINE SMOOTH",
"542 666 OFFCURVE",
"597 610 OFFCURVE",
"581 511 CURVE SMOOTH",
"565 412 OFFCURVE",
"493 356 OFFCURVE",
"375 356 CURVE SMOOTH",
"155 356 LINE"
);
}
);
};
layerId = "C98CF2FB-27AB-48B2-98BD-5B202BDF0FA3";
paths = (
{
closed = 1;
nodes = (
"99 0 LINE",
"149 317 LINE",
"380 317 LINE SMOOTH",
"512 317 OFFCURVE",
"605 379 OFFCURVE",
"624 501 CURVE SMOOTH",
"645 630 OFFCURVE",
"574 705 OFFCURVE",
"427 705 CURVE SMOOTH",
"169 705 LINE",
"57 0 LINE"
);
},
{
closed = 1;
nodes = (
"204 666 LINE",
"424 666 LINE SMOOTH",
"542 666 OFFCURVE",
"597 610 OFFCURVE",
"580 505 CURVE SMOOTH",
"564 405 OFFCURVE",
"493 356 OFFCURVE",
"374 356 CURVE SMOOTH",
"155 356 LINE"
);
}
);
width = 638;
},
{
anchors = (
{
name = bottom;
position = "{290, 0}";
},
{
name = top;
position = "{401, 705}";
}
);
layerId = "AFEE2FCF-314D-4571-9AD7-6410332F14FF";
paths = (
{
closed = 1;
nodes = (
"167 0 LINE",
"212 284 LINE",
"401 284 LINE SMOOTH",
"555 284 OFFCURVE",
"646 360 OFFCURVE",
"665 481 CURVE SMOOTH",
"687 618 OFFCURVE",
"612 705 OFFCURVE",
"451 705 CURVE SMOOTH",
"150 705 LINE",
"38 0 LINE"
);
},
{
closed = 1;
nodes = (
"262 604 LINE",
"429 604 LINE SMOOTH",
"516 604 OFFCURVE",
"553 564 OFFCURVE",
"541 490 CURVE SMOOTH",
"530 421 OFFCURVE",
"483 386 OFFCURVE",
"397 386 CURVE SMOOTH",
"228 386 LINE"
);
}
);
width = 666;
}
);
leftKerningGroup = H;
rightKerningGroup = P;
unicode = 0050;
userData = {
anchors = (
);
b = {
};
com.typemytype.robofont.layerData = {
b = {
anchors = (
);
components = (
);
contours = (
{
points = (
{
segmentType = curve;
smooth = 1;
x = 266;
y = 0;
},
{
segmentType = line;
smooth = 1;
x = 1035;
y = 0;
},
{
smooth = 0;
x = 1084;
y = 0;
},
{
smooth = 0;
x = 1108;
y = 34;
},
{
segmentType = curve;
smooth = 1;
x = 1108;
y = 71;
},
{
smooth = 0;
x = 1108;
y = 107;
},
{
smooth = 0;
x = 1084;
y = 141;
},
{
segmentType = curve;
smooth = 1;
x = 1035;
y = 141;
},
{
segmentType = line;
smooth = 0;
x = 356;
y = 141;
},
{
segmentType = line;
smooth = 0;
x = 356;
y = 665;
},
{
segmentType = line;
smooth = 1;
x = 975;
y = 665;
},
{
smooth = 0;
x = 1024;
y = 665;
},
{
smooth = 0;
x = 1049;
y = 698;
},
{
segmentType = curve;
smooth = 1;
x = 1049;
y = 734;
},
{
smooth = 0;
x = 1049;
y = 770;
},
{
smooth = 0;
x = 1026;
y = 803;
},
{
segmentType = curve;
smooth = 1;
x = 975;
y = 803;
},
{
segmentType = line;
smooth = 0;
x = 356;
y = 803;
},
{
segmentType = line;
smooth = 0;
x = 356;
y = 1285;
},
{
segmentType = line;
smooth = 1;
x = 1007;
y = 1285;
},
{
smooth = 0;
x = 1056;
y = 1285;
},
{
smooth = 0;
x = 1080;
y = 1319;
},
{
segmentType = curve;
smooth = 1;
x = 1080;
y = 1356;
},
{
smooth = 0;
x = 1080;
y = 1392;
},
{
smooth = 0;
x = 1056;
y = 1426;
},
{
segmentType = curve;
smooth = 1;
x = 1007;
y = 1426;
},
{
segmentType = line;
smooth = 1;
x = 261;
y = 1426;
},
{
smooth = 0;
x = 213;
y = 1426;
},
{
smooth = 0;
x = 178;
y = 1383;
},
{
segmentType = curve;
smooth = 1;
x = 178;
y = 1340;
},
{
segmentType = line;
smooth = 1;
x = 178;
y = 86;
},
{
smooth = 0;
x = 178;
y = 41;
},
{
smooth = 0;
x = 222;
y = 0;
}
);
}
);
lib = {
};
name = P;
unicodes = (
);
width = 1201;
};
};
components = (
);
contours = (
);
lib = {
};
name = P;
unicodes = (
);
width = 1319;
};
},
{
color = 4;
glyphname = Thorn;
layers = (
{
anchors = (
{
name = bottom;
position = "{319, 0}";
},
{
name = top;
position = "{430, 705}";
}
);
background = {
anchors = (
{
name = bottom;
position = "{319, 0}";
},
{
name = top;
position = "{430, 705}";
}
);
paths = (
{
closed = 1;
nodes = (
"1134 0 LINE",
"1158 151 LINE",
"1297 151 LINE SMOOTH",
"1462 151 OFFCURVE",
"1571 240 OFFCURVE",
"1593 378 CURVE SMOOTH",
"1615 516 OFFCURVE",
"1534 605 OFFCURVE",
"1369 605 CURVE SMOOTH",
"1230 605 LINE",
"1246 705 LINE",
"1030 705 LINE",
"918 0 LINE"
);
},
{
closed = 1;
nodes = (
"1204 441 LINE",
"1324 441 LINE SMOOTH",
"1371 441 OFFCURVE",
"1394 418 OFFCURVE",
"1388 378 CURVE SMOOTH",
"1382 338 OFFCURVE",
"1350 315 OFFCURVE",
"1304 315 CURVE SMOOTH",
"1184 315 LINE"
);
},
{
closed = 1;
nodes = (
"218 -100 LINE",
"258 151 LINE",
"406 151 LINE SMOOTH",
"582 151 OFFCURVE",
"671 241 OFFCURVE",
"690 360 CURVE SMOOTH",
"713 506 OFFCURVE",
"634 605 OFFCURVE",
"458 605 CURVE SMOOTH",
"114 605 LINE",
"2 -100 LINE"
);
},
{
closed = 1;
nodes = (
"304 441 LINE",
"418 441 LINE SMOOTH",
"474 441 OFFCURVE",
"493 417 OFFCURVE",
"486 374 CURVE SMOOTH",
"480 337 OFFCURVE",
"456 315 OFFCURVE",
"403 315 CURVE SMOOTH",
"284 315 LINE"
);
}
);
};
layerId = "BFD2D546-DAD9-41DE-8B9F-F3E812C082B3";
paths = (
{
closed = 1;
nodes = (
"234 0 LINE",
"258 151 LINE",
"406 151 LINE SMOOTH",
"582 151 OFFCURVE",
"671 241 OFFCURVE",
"690 360 CURVE SMOOTH",
"713 506 OFFCURVE",
"634 605 OFFCURVE",
"458 605 CURVE SMOOTH",
"330 605 LINE",
"346 705 LINE",
"130 705 LINE",
"18 0 LINE"
);
},
{
closed = 1;
nodes = (
"304 441 LINE",
"418 441 LINE SMOOTH",
"474 441 OFFCURVE",
"493 417 OFFCURVE",
"486 374 CURVE SMOOTH",
"480 337 OFFCURVE",
"456 315 OFFCURVE",
"403 315 CURVE SMOOTH",
"284 315 LINE"
);
}
);
width = 696;
},
{
anchors = (
{
name = bottom;
position = "{274, 0}";
},
{
name = top;
position = "{386, 705}";
}
);
background = {
anchors = (
{
name = bottom;
position = "{274, 0}";
},
{
name = top;
position = "{386, 705}";
}
);
paths = (
{
closed = 1;
nodes = (
"76 -146 LINE",
"126 171 LINE",
"357 171 LINE SMOOTH",
"489 171 OFFCURVE",
"582 233 OFFCURVE",
"601 355 CURVE SMOOTH",
"621 484 OFFCURVE",
"551 559 OFFCURVE",
"404 559 CURVE SMOOTH",
"146 559 LINE",
"34 -146 LINE"
);
},
{
closed = 1;
nodes = (
"181 520 LINE",
"401 520 LINE SMOOTH",
"519 520 OFFCURVE",
"574 464 OFFCURVE",
"557 359 CURVE SMOOTH",
"541 259 OFFCURVE",
"470 210 OFFCURVE",
"351 210 CURVE SMOOTH",
"132 210 LINE"
);
}
);
};
layerId = "C98CF2FB-27AB-48B2-98BD-5B202BDF0FA3";
paths = (
{
closed = 1;
nodes = (
"99 0 LINE",
"126 171 LINE",
"357 171 LINE SMOOTH",
"489 171 OFFCURVE",
"582 233 OFFCURVE",
"601 355 CURVE SMOOTH",
"621 484 OFFCURVE",
"551 559 OFFCURVE",
"404 559 CURVE SMOOTH",
"188 559 LINE",
"211 705 LINE",
"169 705 LINE",
"57 0 LINE"
);
},
{
closed = 1;
nodes = (
"181 520 LINE",
"401 520 LINE SMOOTH",
"519 520 OFFCURVE",
"574 464 OFFCURVE",
"557 359 CURVE SMOOTH",
"541 259 OFFCURVE",
"470 210 OFFCURVE",
"351 210 CURVE SMOOTH",
"132 210 LINE"
);
}
);
width = 638;
},
{
anchors = (
{
name = bottom;
position = "{297, 0}";
},
{
name = top;
position = "{408, 705}";
}
);
layerId = "AFEE2FCF-314D-4571-9AD7-6410332F14FF";
paths = (
{
closed = 1;
nodes = (
"167 0 LINE",
"192 161 LINE",
"382 161 LINE SMOOTH",
"536 161 OFFCURVE",
"627 237 OFFCURVE",
"646 358 CURVE SMOOTH",
"667 495 OFFCURVE",
"593 582 OFFCURVE",
"431 582 CURVE SMOOTH",
"259 582 LINE",
"279 705 LINE",
"150 705 LINE",
"38 0 LINE"
);
},
{
closed = 1;
nodes = (
"243 481 LINE",
"410 481 LINE SMOOTH",
"497 481 OFFCURVE",
"534 441 OFFCURVE",
"522 367 CURVE SMOOTH",
"511 298 OFFCURVE",
"463 263 OFFCURVE",
"377 263 CURVE SMOOTH",
"208 263 LINE"
);
}
);
width = 667;
}
);
leftKerningGroup = H;
rightKerningGroup = THORN;
unicode = 00DE;
},
{
color = 4;
glyphname = R;
layers = (
{
anchors = (
{
name = bottom;
position = "{331, 0}";
},
{
name = top;
position = "{442, 705}";
}
);
background = {
anchors = (
{
name = bottom;
position = "{331, 0}";
},
{
name = top;
position = "{442, 705}";
}
);
paths = (
{
closed = 1;
nodes = (
"234 0 LINE",
"274 250 LINE",
"294 250 LINE SMOOTH",
"319 250 OFFCURVE",
"344 242 OFFCURVE",
"352 222 CURVE SMOOTH",
"438 0 LINE",
"675 0 LINE",
"596 190 LINE SMOOTH",
"574 245 OFFCURVE",
"533 282 OFFCURVE",
"474 282 CURVE SMOOTH",
"415 282 LINE",
"403 253 LINE",
"571 253 OFFCURVE",
"680 339 OFFCURVE",
"702 479 CURVE SMOOTH",
"724 620 OFFCURVE",
"643 705 OFFCURVE",
"477 705 CURVE SMOOTH",
"130 705 LINE",
"18 0 LINE"
);
},
{
closed = 1;
nodes = (
"320 541 LINE",
"412 541 LINE SMOOTH",
"473 541 OFFCURVE",
"502 519 OFFCURVE",
"495 472 CURVE SMOOTH",
"487 424 OFFCURVE",
"451 401 OFFCURVE",
"390 401 CURVE SMOOTH",
"298 401 LINE"
);
}
);
};
layerId = "BFD2D546-DAD9-41DE-8B9F-F3E812C082B3";
paths = (
{
closed = 1;
nodes = (
"234 0 LINE",
"274 250 LINE",
"294 250 LINE SMOOTH",
"319 250 OFFCURVE",
"350 242 OFFCURVE",
"358 222 CURVE SMOOTH",
"444 0 LINE",
"669 0 LINE",
"590 190 LINE SMOOTH",
"567 245 OFFCURVE",
"527 282 OFFCURVE",
"468 282 CURVE SMOOTH",
"415 282 LINE",
"413 253 LINE",
"571 253 OFFCURVE",
"680 339 OFFCURVE",
"700 469 CURVE SMOOTH",
"724 620 OFFCURVE",
"643 705 OFFCURVE",
"457 705 CURVE SMOOTH",
"130 705 LINE",
"18 0 LINE"
);
},
{
closed = 1;
nodes = (
"320 541 LINE",
"413 541 LINE SMOOTH",
"473 541 OFFCURVE",
"502 519 OFFCURVE",
"494 468 CURVE SMOOTH",
"487 424 OFFCURVE",
"456 401 OFFCURVE",
"395 401 CURVE SMOOTH",
"298 401 LINE"
);
}
);
width = 720;
},
{
anchors = (
{
name = bottom;
position = "{298, 0}";
},
{
name = top;
position = "{410, 705}";
}
);
background = {
anchors = (
{
name = bottom;
position = "{298, 0}";
},
{
name = top;
position = "{410, 705}";
}
);
paths = (
{
closed = 1;
nodes = (
"99 0 LINE",
"150 322 LINE",
"351 322 LINE SMOOTH",
"432 322 OFFCURVE",
"480 309 OFFCURVE",
"495 236 CURVE SMOOTH",
"546 0 LINE",
"593 0 LINE",
"536 252 LINE SMOOTH",
"521 316 OFFCURVE",
"480 337 OFFCURVE",
"427 337 CURVE SMOOTH",
"419 337 LINE",
"397 329 LINE",
"516 329 OFFCURVE",
"615 395 OFFCURVE",
"633 514 CURVE SMOOTH",
"653 635 OFFCURVE",
"581 705 OFFCURVE",
"439 705 CURVE SMOOTH",
"169 705 LINE",
"57 0 LINE"
);
},
{
closed = 1;
nodes = (
"204 666 LINE",
"428 666 LINE SMOOTH",
"548 666 OFFCURVE",
"604 612 OFFCURVE",
"588 514 CURVE SMOOTH",
"573 415 OFFCURVE",
"500 361 OFFCURVE",
"380 361 CURVE SMOOTH",
"156 361 LINE"
);
}
);
};
layerId = "C98CF2FB-27AB-48B2-98BD-5B202BDF0FA3";
paths = (
{
closed = 1;
nodes = (
"99 0 LINE",
"150 322 LINE",
"337 322 LINE SMOOTH",
"418 322 OFFCURVE",
"462 308 OFFCURVE",
"482 236 CURVE SMOOTH",
"547 0 LINE",
"592 0 LINE",
"521 252 LINE SMOOTH",
"503 315 OFFCURVE",
"466 337 OFFCURVE",
"413 337 CURVE SMOOTH",
"405 337 LINE",
"397 329 LINE",
"516 329 OFFCURVE",
"614 391 OFFCURVE",
"632 504 CURVE SMOOTH",
"652 631 OFFCURVE",
"581 705 OFFCURVE",
"434 705 CURVE SMOOTH",
"169 705 LINE",
"57 0 LINE"
);
},
{
closed = 1;
nodes = (
"204 666 LINE",
"428 666 LINE SMOOTH",
"548 666 OFFCURVE",
"604 612 OFFCURVE",
"588 509 CURVE SMOOTH",
"573 415 OFFCURVE",
"503 361 OFFCURVE",
"390 361 CURVE SMOOTH",
"156 361 LINE"
);
}
);
width = 684;
},
{
anchors = (
{
name = bottom;
position = "{315, 0}";
},
{
name = top;
position = "{426, 705}";
}
);
layerId = "AFEE2FCF-314D-4571-9AD7-6410332F14FF";
paths = (
{
closed = 1;
nodes = (
"167 0 LINE",
"212 286 LINE",
"316 286 LINE SMOOTH",
"369 286 OFFCURVE",
"406 275 OFFCURVE",
"420 229 CURVE SMOOTH",
"496 0 LINE",
"631 0 LINE",
"556 221 LINE SMOOTH",
"535 280 OFFCURVE",
"497 310 OFFCURVE",
"441 310 CURVE SMOOTH",
"410 310 LINE",
"405 291 LINE",
"544 291 OFFCURVE",
"647 365 OFFCURVE",
"666 487 CURVE SMOOTH",
"688 626 OFFCURVE",
"612 705 OFFCURVE",
"446 705 CURVE SMOOTH",
"150 705 LINE",
"38 0 LINE"
);
},
{
closed = 1;
nodes = (
"262 604 LINE",
"421 604 LINE SMOOTH",
"511 604 OFFCURVE",
"553 566 OFFCURVE",
"541 489 CURVE SMOOTH",
"530 420 OFFCURVE",
"480 381 OFFCURVE",
"393 381 CURVE SMOOTH",
"227 381 LINE"
);
}
);
width = 702;
}
);
leftKerningGroup = H;
rightKerningGroup = R;
unicode = 0052;
userData = {
anchors = (
);
b = {
};
com.typemytype.robofont.guides = (
);
com.typemytype.robofont.layerData = {
b = {
anchors = (
);
components = (
);
contours = (
{
points = (
{
segmentType = curve;
smooth = 1;
x = 267;
y = 0;
},
{
smooth = 0;
x = 311;
y = 0;
},
{
smooth = 0;
x = 356;
y = 27;
},
{
segmentType = curve;
smooth = 1;
x = 356;
y = 84;
},
{
segmentType = line;
smooth = 0;
x = 356;
y = 628;
},
{
segmentType = line;
smooth = 1;
x = 669;
y = 628;
},
{
smooth = 0;
x = 962;
y = 628;
},
{
smooth = 0;
x = 1182;
y = 722;
},
{
segmentType = curve;
smooth = 1;
x = 1182;
y = 1026;
},
{
smooth = 0;
x = 1182;
y = 1324;
},
{
smooth = 0;
x = 993;
y = 1426;
},
{
segmentType = curve;
smooth = 1;
x = 684;
y = 1426;
},
{
segmentType = line;
smooth = 1;
x = 268;
y = 1426;
},
{
smooth = 0;
x = 217;
y = 1426;
},
{
smooth = 0;
x = 178;
y = 1387;
},
{
segmentType = curve;
smooth = 1;
x = 178;
y = 1339;
},
{
segmentType = line;
smooth = 1;
x = 178;
y = 84;
},
{
smooth = 0;
x = 178;
y = 28;
},
{
smooth = 0;
x = 222;
y = 0;
}
);
},
{
points = (
{
segmentType = line;
smooth = 0;
x = 356;
y = 764;
},
{
segmentType = line;
smooth = 0;
x = 356;
y = 1285;
},
{
segmentType = line;
smooth = 1;
x = 684;
y = 1285;
},
{
smooth = 0;
x = 914;
y = 1285;
},
{
smooth = 0;
x = 1008;
y = 1210;
},
{
segmentType = curve;
smooth = 1;
x = 1008;
y = 1026;
},
{
smooth = 0;
x = 1008;
y = 838;
},
{
smooth = 0;
x = 901;
y = 764;
},
{
segmentType = curve;
smooth = 1;
x = 670;
y = 764;
}
);
}
);
lib = {
};
name = R;
unicodes = (
);
width = 1363;
};
};
components = (
);
contours = (
);
lib = {
};
name = R;
unicodes = (
);
width = 1408;
};
},
{
color = 4;
glyphname = S;
layers = (
{
anchors = (
{
name = bottom;
position = "{300, 0}";
},
{
name = top;
position = "{421, 705}";
}
);
background = {
anchors = (
{
name = bottom;
position = "{300, 0}";
},
{
name = top;
position = "{421, 705}";
}
);
paths = (
{
closed = 1;
nodes = (
"480 -12 OFFCURVE",
"619 80 OFFCURVE",
"641 223 CURVE SMOOTH",
"658 329 OFFCURVE",
"604 399 OFFCURVE",
"481 424 CURVE SMOOTH",
"360 449 LINE SMOOTH",
"309 460 OFFCURVE",
"296 476 OFFCURVE",
"299 495 CURVE SMOOTH",
"304 525 OFFCURVE",
"339 542 OFFCURVE",
"406 542 CURVE SMOOTH",
"486 542 OFFCURVE",
"549 521 OFFCURVE",
"594 487 CURVE",
"678 643 LINE",
"629 688 OFFCURVE",
"539 717 OFFCURVE",
"439 717 CURVE SMOOTH",
"249 717 OFFCURVE",
"109 623 OFFCURVE",
"86 480 CURVE SMOOTH",
"69 372 OFFCURVE",
"122 304 OFFCURVE",
"248 277 CURVE SMOOTH",
"371 251 LINE SMOOTH",
"421 240 OFFCURVE",
"431 228 OFFCURVE",
"428 206 CURVE SMOOTH",
"424 182 OFFCURVE",
"401 163 OFFCURVE",
"322 163 CURVE SMOOTH",
"238 163 OFFCURVE",
"150 190 OFFCURVE",
"92 228 CURVE",
"7 62 LINE",
"69 17 OFFCURVE",
"177 -12 OFFCURVE",
"292 -12 CURVE SMOOTH"
);
}
);
};
layerId = "BFD2D546-DAD9-41DE-8B9F-F3E812C082B3";
paths = (
{
closed = 1;
nodes = (
"500 -12 OFFCURVE",
"619 80 OFFCURVE",
"640 213 CURVE SMOOTH",
"658 329 OFFCURVE",
"594 407 OFFCURVE",
"471 428 CURVE SMOOTH",
"350 449 LINE SMOOTH",
"306 457 OFFCURVE",
"296 478 OFFCURVE",
"299 496 CURVE SMOOTH",
"304 527 OFFCURVE",
"339 542 OFFCURVE",
"406 542 CURVE SMOOTH",
"484 542 OFFCURVE",
"547 521 OFFCURVE",
"592 495 CURVE",
"660 657 LINE",
"611 696 OFFCURVE",
"517 717 OFFCURVE",
"429 717 CURVE SMOOTH",
"239 717 OFFCURVE",
"111 633 OFFCURVE",
"88 490 CURVE SMOOTH",
"69 372 OFFCURVE",
"142 294 OFFCURVE",
"258 273 CURVE SMOOTH",
"381 251 LINE SMOOTH",
"421 244 OFFCURVE",
"431 228 OFFCURVE",
"428 207 CURVE SMOOTH",
"424 182 OFFCURVE",
"401 163 OFFCURVE",
"322 163 CURVE SMOOTH",
"240 163 OFFCURVE",
"152 190 OFFCURVE",
"94 218 CURVE",
"29 52 LINE",
"91 13 OFFCURVE",
"199 -12 OFFCURVE",
"302 -12 CURVE SMOOTH"
);
}
);
width = 685;
},
{
anchors = (
{
name = bottom;
position = "{279, 0}";
},
{
name = top;
position = "{385, 705}";
}
);
background = {
anchors = (
{
name = bottom;
position = "{279, 0}";
},
{
name = top;
position = "{385, 705}";
}
);
paths = (
{
closed = 1;
nodes = (
"422 -8 OFFCURVE",
"526 68 OFFCURVE",
"543 179 CURVE SMOOTH",
"559 277 OFFCURVE",
"506 325 OFFCURVE",
"372 353 CURVE SMOOTH",
"275 373 LINE SMOOTH",
"174 394 OFFCURVE",
"137 434 OFFCURVE",
"149 513 CURVE SMOOTH",
"165 610 OFFCURVE",
"252 672 OFFCURVE",
"375 672 CURVE SMOOTH",
"464 672 OFFCURVE",
"526 647 OFFCURVE",
"582 585 CURVE",
"607 621 LINE",
"558 682 OFFCURVE",
"481 713 OFFCURVE",
"382 713 CURVE SMOOTH",
"236 713 OFFCURVE",
"124 632 OFFCURVE",
"105 513 CURVE SMOOTH",
"89 412 OFFCURVE",
"143 357 OFFCURVE",
"267 331 CURVE SMOOTH",
"363 311 LINE SMOOTH",
"474 288 OFFCURVE",
"511 253 OFFCURVE",
"499 178 CURVE SMOOTH",
"485 90 OFFCURVE",
"408 33 OFFCURVE",
"277 33 CURVE SMOOTH",
"170 33 OFFCURVE",
"115 58 OFFCURVE",
"51 116 CURVE",
"25 80 LINE",
"82 22 OFFCURVE",
"159 -8 OFFCURVE",
"272 -8 CURVE SMOOTH"
);
}
);
};
layerId = "C98CF2FB-27AB-48B2-98BD-5B202BDF0FA3";
paths = (
{
closed = 1;
nodes = (
"424 -8 OFFCURVE",
"525 68 OFFCURVE",
"541 169 CURVE SMOOTH",
"558 277 OFFCURVE",
"506 337 OFFCURVE",
"372 355 CURVE SMOOTH",
"285 367 LINE SMOOTH",
"174 382 OFFCURVE",
"136 432 OFFCURVE",
"150 517 CURVE SMOOTH",
"165 610 OFFCURVE",
"251 672 OFFCURVE",
"375 672 CURVE SMOOTH",
"464 672 OFFCURVE",
"526 647 OFFCURVE",
"582 598 CURVE",
"604 634 LINE",
"555 679 OFFCURVE",
"478 713 OFFCURVE",
"379 713 CURVE SMOOTH",
"227 713 OFFCURVE",
"124 632 OFFCURVE",
"107 522 CURVE SMOOTH",
"90 416 OFFCURVE",
"142 345 OFFCURVE",
"277 326 CURVE SMOOTH",
"363 314 LINE SMOOTH",
"474 299 OFFCURVE",
"511 253 OFFCURVE",
"498 174 CURVE SMOOTH",
"485 90 OFFCURVE",
"408 33 OFFCURVE",
"280 33 CURVE SMOOTH",
"175 33 OFFCURVE",
"115 58 OFFCURVE",
"49 103 CURVE",
"25 67 LINE",
"82 24 OFFCURVE",
"165 -8 OFFCURVE",
"280 -8 CURVE SMOOTH"
);
}
);
width = 604;
},
{
anchors = (
{
name = bottom;
position = "{290, 0}";
},
{
name = top;
position = "{403, 705}";
}
);
layerId = "AFEE2FCF-314D-4571-9AD7-6410332F14FF";
paths = (
{
closed = 1;
nodes = (
"462 -10 OFFCURVE",
"572 74 OFFCURVE",
"591 191 CURVE SMOOTH",
"608 303 OFFCURVE",
"550 372 OFFCURVE",
"422 392 CURVE SMOOTH",
"318 408 LINE SMOOTH",
"240 420 OFFCURVE",
"216 455 OFFCURVE",
"225 507 CURVE SMOOTH",
"235 569 OFFCURVE",
"295 607 OFFCURVE",
"391 607 CURVE SMOOTH",
"474 607 OFFCURVE",
"537 584 OFFCURVE",
"587 547 CURVE",
"632 646 LINE",
"583 688 OFFCURVE",
"498 715 OFFCURVE",
"404 715 CURVE SMOOTH",
"233 715 OFFCURVE",
"118 633 OFFCURVE",
"98 506 CURVE SMOOTH",
"80 394 OFFCURVE",
"142 320 OFFCURVE",
"268 300 CURVE SMOOTH",
"372 283 LINE SMOOTH",
"448 272 OFFCURVE",
"471 241 OFFCURVE",
"463 191 CURVE SMOOTH",
"455 136 OFFCURVE",
"405 98 OFFCURVE",
"301 98 CURVE SMOOTH",
"208 98 OFFCURVE",
"134 124 OFFCURVE",
"72 161 CURVE",
"27 60 LINE",
"87 19 OFFCURVE",
"182 -10 OFFCURVE",
"291 -10 CURVE SMOOTH"
);
}
);
width = 644.5;
}
);
leftKerningGroup = S;
rightKerningGroup = S;
unicode = 0053;
userData = {
anchors = (
);
b = {
};
com.typemytype.robofont.layerData = {
b = {
anchors = (
);
components = (
);
contours = (
);
lib = {
};
name = S;
unicodes = (
);
width = 1274;
};
};
components = (
);
contours = (
);
lib = {
};
name = S;
unicodes = (
);
width = 1317;
};
},
{
color = 4;
glyphname = Germandbls;
production = uni1E9E;
layers = (
{
background = {
paths = (
{
closed = 1;
nodes = (
"581 -12 OFFCURVE",
"685 66 OFFCURVE",
"706 194 CURVE SMOOTH",
"721 293 OFFCURVE",
"669 365 OFFCURVE",
"572 375 CURVE",
"569 354 LINE",
"655 384 OFFCURVE",
"708 444 OFFCURVE",
"720 520 CURVE SMOOTH",
"740 642 OFFCURVE",
"662 717 OFFCURVE",
"481 717 CURVE SMOOTH",
"247 717 OFFCURVE",
"116 617 OFFCURVE",
"86 430 CURVE SMOOTH",
"18 0 LINE",
"224 0 LINE",
"292 430 LINE SMOOTH",
"305 512 OFFCURVE",
"342 549 OFFCURVE",
"433 549 CURVE SMOOTH",
"491 549 OFFCURVE",
"518 529 OFFCURVE",
"512 490 CURVE SMOOTH",
"506 452 OFFCURVE",
"474 432 OFFCURVE",
"418 432 CURVE SMOOTH",
"368 432 LINE",
"343 271 LINE",
"406 271 LINE SMOOTH",
"482 271 OFFCURVE",
"512 253 OFFCURVE",
"505 211 CURVE SMOOTH",
"500 177 OFFCURVE",
"469 154 OFFCURVE",
"427 154 CURVE SMOOTH",
"397 154 OFFCURVE",
"373 159 OFFCURVE",
"347 178 CURVE",
"267 28 LINE",
"321 -6 OFFCURVE",
"372 -12 OFFCURVE",
"425 -12 CURVE SMOOTH"
);
}
);
};
layerId = "BFD2D546-DAD9-41DE-8B9F-F3E812C082B3";
paths = (
{
closed = 1;
nodes = (
"581 -12 OFFCURVE",
"682 54 OFFCURVE",
"701 175 CURVE SMOOTH",
"718 281 OFFCURVE",
"669 350 OFFCURVE",
"572 370 CURVE",
"569 349 LINE",
"665 379 OFFCURVE",
"708 444 OFFCURVE",
"719 510 CURVE SMOOTH",
"738 632 OFFCURVE",
"652 717 OFFCURVE",
"461 717 CURVE SMOOTH",
"237 717 OFFCURVE",
"117 627 OFFCURVE",
"86 430 CURVE SMOOTH",
"18 0 LINE",
"224 0 LINE",
"292 430 LINE SMOOTH",
"305 512 OFFCURVE",
"342 549 OFFCURVE",
"433 549 CURVE SMOOTH",
"485 549 OFFCURVE",
"518 529 OFFCURVE",
"512 490 CURVE SMOOTH",
"506 452 OFFCURVE",
"474 432 OFFCURVE",
"418 432 CURVE SMOOTH",
"368 432 LINE",
"343 271 LINE",
"436 271 LINE SMOOTH",
"482 271 OFFCURVE",
"512 253 OFFCURVE",
"505 211 CURVE SMOOTH",
"500 177 OFFCURVE",
"469 154 OFFCURVE",
"427 154 CURVE SMOOTH",
"397 154 OFFCURVE",
"373 159 OFFCURVE",
"341 175 CURVE",
"271 25 LINE",
"333 -5 OFFCURVE",
"384 -12 OFFCURVE",
"447 -12 CURVE SMOOTH"
);
}
);
width = 735;
},
{
background = {
paths = (
{
closed = 1;
nodes = (
"490 -8 OFFCURVE",
"582 61 OFFCURVE",
"601 186 CURVE SMOOTH",
"618 290 OFFCURVE",
"559 354 OFFCURVE",
"453 367 CURVE",
"451 353 LINE",
"537 370 OFFCURVE",
"602 439 OFFCURVE",
"616 529 CURVE SMOOTH",
"634 643 OFFCURVE",
"563 713 OFFCURVE",
"417 713 CURVE SMOOTH",
"248 713 OFFCURVE",
"157 630 OFFCURVE",
"131 470 CURVE SMOOTH",
"57 0 LINE",
"99 0 LINE",
"173 467 LINE SMOOTH",
"195 604 OFFCURVE",
"262 673 OFFCURVE",
"412 673 CURVE SMOOTH",
"537 673 OFFCURVE",
"586 621 OFFCURVE",
"571 524 CURVE SMOOTH",
"556 427 OFFCURVE",
"480 374 OFFCURVE",
"371 374 CURVE SMOOTH",
"256 374 LINE",
"250 335 LINE",
"393 335 LINE SMOOTH",
"519 335 OFFCURVE",
"572 282 OFFCURVE",
"556 186 CURVE SMOOTH",
"541 89 OFFCURVE",
"471 32 OFFCURVE",
"356 32 CURVE SMOOTH",
"284 32 OFFCURVE",
"242 49 OFFCURVE",
"195 97 CURVE",
"167 62 LINE",
"208 16 OFFCURVE",
"266 -8 OFFCURVE",
"350 -8 CURVE SMOOTH"
);
}
);
};
layerId = "C98CF2FB-27AB-48B2-98BD-5B202BDF0FA3";
paths = (
{
closed = 1;
nodes = (
"490 -8 OFFCURVE",
"582 61 OFFCURVE",
"599 168 CURVE SMOOTH",
"618 290 OFFCURVE",
"557 352 OFFCURVE",
"453 366 CURVE",
"451 352 LINE",
"537 368 OFFCURVE",
"602 439 OFFCURVE",
"615 519 CURVE SMOOTH",
"634 643 OFFCURVE",
"560 713 OFFCURVE",
"413 713 CURVE SMOOTH",
"248 713 OFFCURVE",
"157 634 OFFCURVE",
"131 470 CURVE SMOOTH",
"57 0 LINE",
"99 0 LINE",
"172 463 LINE SMOOTH",
"194 604 OFFCURVE",
"262 673 OFFCURVE",
"412 673 CURVE SMOOTH",
"537 673 OFFCURVE",
"586 621 OFFCURVE",
"571 524 CURVE SMOOTH",
"556 427 OFFCURVE",
"480 374 OFFCURVE",
"371 374 CURVE SMOOTH",
"256 374 LINE",
"250 335 LINE",
"393 335 LINE SMOOTH",
"519 335 OFFCURVE",
"572 282 OFFCURVE",
"555 176 CURVE SMOOTH",
"541 86 OFFCURVE",
"471 32 OFFCURVE",
"356 32 CURVE SMOOTH",
"291 32 OFFCURVE",
"241 49 OFFCURVE",
"194 88 CURVE",
"169 55 LINE",
"210 16 OFFCURVE",
"276 -8 OFFCURVE",
"354 -8 CURVE SMOOTH"
);
}
);
width = 683;
},
{
layerId = "AFEE2FCF-314D-4571-9AD7-6410332F14FF";
paths = (
{
closed = 1;
nodes = (
"536 -10 OFFCURVE",
"632 58 OFFCURVE",
"650 172 CURVE SMOOTH",
"668 286 OFFCURVE",
"613 351 OFFCURVE",
"513 368 CURVE",
"510 351 LINE",
"601 374 OFFCURVE",
"655 442 OFFCURVE",
"667 515 CURVE SMOOTH",
"686 638 OFFCURVE",
"606 715 OFFCURVE",
"437 715 CURVE SMOOTH",
"243 715 OFFCURVE",
"137 631 OFFCURVE",
"109 450 CURVE SMOOTH",
"38 0 LINE",
"162 0 LINE",
"232 447 LINE SMOOTH",
"250 558 OFFCURVE",
"302 611 OFFCURVE",
"423 611 CURVE SMOOTH",
"511 611 OFFCURVE",
"552 575 OFFCURVE",
"542 507 CURVE SMOOTH",
"531 440 OFFCURVE",
"477 403 OFFCURVE",
"395 403 CURVE SMOOTH",
"312 403 LINE",
"297 303 LINE",
"415 303 LINE SMOOTH",
"501 303 OFFCURVE",
"542 268 OFFCURVE",
"530 194 CURVE SMOOTH",
"521 132 OFFCURVE",
"470 93 OFFCURVE",
"392 93 CURVE SMOOTH",
"344 93 OFFCURVE",
"307 104 OFFCURVE",
"268 132 CURVE",
"220 40 LINE",
"272 6 OFFCURVE",
"330 -10 OFFCURVE",
"401 -10 CURVE SMOOTH"
);
}
);
width = 709;
}
);
leftKerningGroup = H;
rightKerningGroup = Germandbls;
unicode = 1E9E;
},
{
color = 4;
glyphname = Schwa;
production = uni018F;
layers = (
{
anchors = (
{
name = bottom;
position = "{363, 0}";
},
{
name = top;
position = "{456, 705}";
}
);
background = {
anchors = (
{
name = bottom;
position = "{363, 0}";
},
{
name = top;
position = "{456, 705}";
}
);
paths = (
{
closed = 1;
nodes = (
"563 -12 OFFCURVE",
"735 132 OFFCURVE",
"770 352 CURVE SMOOTH",
"806 578 OFFCURVE",
"690 717 OFFCURVE",
"447 717 CURVE SMOOTH",
"319 717 OFFCURVE",
"220 688 OFFCURVE",
"136 645 CURVE",
"179 483 LINE",
"251 519 OFFCURVE",
"314 538 OFFCURVE",
"390 538 CURVE SMOOTH",
"531 538 OFFCURVE",
"573 476 OFFCURVE",
"554 353 CURVE SMOOTH",
"533 219 OFFCURVE",
"467 158 OFFCURVE",
"379 158 CURVE SMOOTH",
"276 158 OFFCURVE",
"251 219 OFFCURVE",
"272 353 CURVE",
"206 271 LINE",
"589 271 LINE",
"614 432 LINE",
"69 432 LINE",
"60 370 LINE SMOOTH",
"27 145 OFFCURVE",
"113 -12 OFFCURVE",
"361 -12 CURVE SMOOTH"
);
}
);
};
layerId = "BFD2D546-DAD9-41DE-8B9F-F3E812C082B3";
paths = (
{
closed = 1;
nodes = (
"575 -12 OFFCURVE",
"733 115 OFFCURVE",
"767 333 CURVE SMOOTH",
"801 551 OFFCURVE",
"687 717 OFFCURVE",
"427 717 CURVE SMOOTH",
"305 717 OFFCURVE",
"206 691 OFFCURVE",
"122 647 CURVE",
"179 485 LINE",
"251 522 OFFCURVE",
"324 538 OFFCURVE",
"393 538 CURVE SMOOTH",
"531 538 OFFCURVE",
"569 466 OFFCURVE",
"549 333 CURVE SMOOTH",
"530 209 OFFCURVE",
"477 158 OFFCURVE",
"389 158 CURVE SMOOTH",
"286 158 OFFCURVE",
"251 219 OFFCURVE",
"272 353 CURVE",
"206 271 LINE",
"589 271 LINE",
"614 432 LINE",
"69 432 LINE",
"60 370 LINE SMOOTH",
"29 154 OFFCURVE",
"135 -12 OFFCURVE",
"383 -12 CURVE SMOOTH"
);
}
);
width = 795;
},
{
anchors = (
{
name = bottom;
position = "{342, 0}";
},
{
name = top;
position = "{454, 705}";
}
);
background = {
anchors = (
{
name = bottom;
position = "{342, 0}";
},
{
name = top;
position = "{454, 705}";
}
);
paths = (
{
closed = 1;
nodes = (
"515 -8 OFFCURVE",
"648 119 OFFCURVE",
"683 342 CURVE SMOOTH",
"718 564 OFFCURVE",
"624 713 OFFCURVE",
"425 713 CURVE SMOOTH",
"232 713 OFFCURVE",
"99 586 OFFCURVE",
"64 363 CURVE SMOOTH",
"29 139 OFFCURVE",
"123 -8 OFFCURVE",
"321 -8 CURVE SMOOTH"
);
},
{
closed = 1;
nodes = (
"156 33 OFFCURVE",
"75 156 OFFCURVE",
"107 353 CURVE SMOOTH",
"140 555 OFFCURVE",
"250 672 OFFCURVE",
"423 672 CURVE SMOOTH",
"591 672 OFFCURVE",
"671 548 OFFCURVE",
"640 352 CURVE SMOOTH",
"608 150 OFFCURVE",
"497 33 OFFCURVE",
"324 33 CURVE SMOOTH"
);
}
);
};
layerId = "C98CF2FB-27AB-48B2-98BD-5B202BDF0FA3";
paths = (
{
closed = 1;
nodes = (
"520 -8 OFFCURVE",
"648 129 OFFCURVE",
"683 344 CURVE SMOOTH",
"720 578 OFFCURVE",
"620 713 OFFCURVE",
"414 713 CURVE SMOOTH",
"306 713 OFFCURVE",
"222 683 OFFCURVE",
"148 621 CURVE",
"168 586 LINE",
"245 648 OFFCURVE",
"310 672 OFFCURVE",
"413 672 CURVE SMOOTH",
"592 672 OFFCURVE",
"671 557 OFFCURVE",
"639 354 CURVE SMOOTH",
"606 147 OFFCURVE",
"496 33 OFFCURVE",
"329 33 CURVE SMOOTH",
"143 33 OFFCURVE",
"97 147 OFFCURVE",
"128 353 CURVE",
"113 337 LINE",
"641 337 LINE",
"648 376 LINE",
"88 376 LINE",
"83 348 LINE SMOOTH",
"49 132 OFFCURVE",
"119 -8 OFFCURVE",
"327 -8 CURVE SMOOTH"
);
}
);
width = 736;
},
{
anchors = (
{
name = bottom;
position = "{353, 0}";
},
{
name = top;
position = "{455, 705}";
}
);
layerId = "AFEE2FCF-314D-4571-9AD7-6410332F14FF";
paths = (
{
closed = 1;
nodes = (
"548 -10 OFFCURVE",
"691 122 OFFCURVE",
"725 339 CURVE SMOOTH",
"761 565 OFFCURVE",
"654 715 OFFCURVE",
"421 715 CURVE SMOOTH",
"306 715 OFFCURVE",
"214 687 OFFCURVE",
"135 634 CURVE",
"174 536 LINE",
"248 585 OFFCURVE",
"317 605 OFFCURVE",
"403 605 CURVE SMOOTH",
"562 605 OFFCURVE",
"620 512 OFFCURVE",
"594 344 CURVE SMOOTH",
"568 178 OFFCURVE",
"487 96 OFFCURVE",
"359 96 CURVE SMOOTH",
"215 96 OFFCURVE",
"174 183 OFFCURVE",
"200 353 CURVE",
"160 304 LINE",
"615 304 LINE",
"631 404 LINE",
"79 404 LINE",
"72 359 LINE SMOOTH",
"39 143 OFFCURVE",
"127 -10 OFFCURVE",
"355 -10 CURVE SMOOTH"
);
}
);
width = 765.5;
}
);
leftKerningGroup = O;
rightKerningGroup = O;
unicode = 018F;
},
{
glyphname = T;
layers = (
{
anchors = (
{
name = bottom;
position = "{284, 0}";
},
{
name = center;
position = "{341, 358}";
},
{
name = top;
position = "{396, 705}";
}
);
background = {
anchors = (
{
name = bottom;
position = "{284, 0}";
},
{
name = center;
position = "{341, 358}";
},
{
name = top;
position = "{396, 705}";
}
);
paths = (
{
closed = 1;
nodes = (
"392 0 LINE",
"476 531 LINE",
"680 531 LINE",
"708 705 LINE",
"84 705 LINE",
"56 531 LINE",
"260 531 LINE",
"176 0 LINE"
);
}
);
};
layerId = "BFD2D546-DAD9-41DE-8B9F-F3E812C082B3";
paths = (
{
closed = 1;
nodes = (
"392 0 LINE",
"476 531 LINE",
"680 531 LINE",
"708 705 LINE",
"84 705 LINE",
"56 531 LINE",
"260 531 LINE",
"176 0 LINE"
);
}
);
width = 648;
},
{
anchors = (
{
name = bottom;
position = "{255, 0}";
},
{
name = center;
position = "{312, 358}";
},
{
name = top;
position = "{367, 705}";
}
);
background = {
anchors = (
{
name = bottom;
position = "{255, 0}";
},
{
name = center;
position = "{312, 358}";
},
{
name = top;
position = "{367, 705}";
}
);
paths = (
{
closed = 1;
nodes = (
"274 0 LINE",
"379 666 LINE",
"643 666 LINE",
"650 705 LINE",
"84 705 LINE",
"77 666 LINE",
"337 666 LINE",
"232 0 LINE"
);
}
);
};
layerId = "C98CF2FB-27AB-48B2-98BD-5B202BDF0FA3";
paths = (
{
closed = 1;
nodes = (
"274 0 LINE",
"379 666 LINE",
"641 666 LINE",
"648 705 LINE",
"82 705 LINE",
"75 666 LINE",
"337 666 LINE",
"232 0 LINE"
);
}
);
width = 590;
},
{
anchors = (
{
name = bottom;
position = "{270, 0}";
},
{
name = center;
position = "{327, 358}";
},
{
name = top;
position = "{382, 705}";
}
);
layerId = "AFEE2FCF-314D-4571-9AD7-6410332F14FF";
paths = (
{
closed = 1;
nodes = (
"333 0 LINE",
"428 599 LINE",
"661 599 LINE",
"678 705 LINE",
"83 705 LINE",
"66 599 LINE",
"299 599 LINE",
"204 0 LINE"
);
}
);
width = 619;
}
);
leftKerningGroup = T;
rightKerningGroup = T;
unicode = 0054;
userData = {
anchors = (
);
b = {
};
com.typemytype.robofont.layerData = {
b = {
anchors = (
);
components = (
);
contours = (
{
points = (
{
segmentType = curve;
smooth = 1;
x = 581;
y = 0;
},
{
segmentType = line;
smooth = 1;
x = 1350;
y = 0;
},
{
smooth = 0;
x = 1399;
y = 0;
},
{
smooth = 0;
x = 1423;
y = 34;
},
{
segmentType = curve;
smooth = 1;
x = 1423;
y = 71;
},
{
smooth = 0;
x = 1423;
y = 107;
},
{
smooth = 0;
x = 1399;
y = 141;
},
{
segmentType = curve;
smooth = 1;
x = 1350;
y = 141;
},
{
segmentType = line;
smooth = 0;
x = 671;
y = 141;
},
{
segmentType = line;
smooth = 0;
x = 671;
y = 665;
},
{
segmentType = line;
smooth = 1;
x = 1290;
y = 665;
},
{
smooth = 0;
x = 1339;
y = 665;
},
{
smooth = 0;
x = 1364;
y = 698;
},
{
segmentType = curve;
smooth = 1;
x = 1364;
y = 734;
},
{
smooth = 0;
x = 1364;
y = 770;
},
{
smooth = 0;
x = 1341;
y = 803;
},
{
segmentType = curve;
smooth = 1;
x = 1290;
y = 803;
},
{
segmentType = line;
smooth = 0;
x = 671;
y = 803;
},
{
segmentType = line;
smooth = 0;
x = 671;
y = 1285;
},
{
segmentType = line;
smooth = 1;
x = 1322;
y = 1285;
},
{
smooth = 0;
x = 1371;
y = 1285;
},
{
smooth = 0;
x = 1395;
y = 1319;
},
{
segmentType = curve;
smooth = 1;
x = 1395;
y = 1356;
},
{
smooth = 0;
x = 1395;
y = 1392;
},
{
smooth = 0;
x = 1371;
y = 1426;
},
{
segmentType = curve;
smooth = 1;
x = 1322;
y = 1426;
},
{
segmentType = line;
smooth = 1;
x = 576;
y = 1426;
},
{
smooth = 0;
x = 528;
y = 1426;
},
{
smooth = 0;
x = 493;
y = 1383;
},
{
segmentType = curve;
smooth = 1;
x = 493;
y = 1340;
},
{
segmentType = line;
smooth = 1;
x = 493;
y = 86;
},
{
smooth = 0;
x = 493;
y = 41;
},
{
smooth = 0;
x = 537;
y = 0;
}
);
}
);
lib = {
};
name = T;
unicodes = (
);
width = 1158;
};
};
components = (
);
contours = (
);
lib = {
};
name = T;
unicodes = (
);
width = 1199;
};
},
{
color = 4;
glyphname = U;
layers = (
{
anchors = (
{
name = bottom;
position = "{342, 0}";
},
{
name = ogonek;
position = "{452, 0}";
},
{
name = top;
position = "{454, 705}";
},
{
name = topright;
position = "{647, 705}";
}
);
background = {
anchors = (
{
name = bottom;
position = "{342, 0}";
},
{
name = ogonek;
position = "{452, 0}";
},
{
name = top;
position = "{454, 705}";
},
{
name = topright;
position = "{647, 705}";
}
);
paths = (
{
closed = 1;
nodes = (
"558 -12 OFFCURVE",
"680 94 OFFCURVE",
"714 307 CURVE SMOOTH",
"777 705 LINE",
"565 705 LINE",
"501 304 LINE SMOOTH",
"487 214 OFFCURVE",
"445 167 OFFCURVE",
"368 167 CURVE SMOOTH",
"291 167 OFFCURVE",
"265 214 OFFCURVE",
"279 304 CURVE SMOOTH",
"343 705 LINE",
"127 705 LINE",
"64 307 LINE SMOOTH",
"30 94 OFFCURVE",
"122 -12 OFFCURVE",
"340 -12 CURVE SMOOTH"
);
}
);
};
layerId = "BFD2D546-DAD9-41DE-8B9F-F3E812C082B3";
paths = (
{
closed = 1;
nodes = (
"578 -12 OFFCURVE",
"680 94 OFFCURVE",
"712 297 CURVE SMOOTH",
"777 705 LINE",
"565 705 LINE",
"501 304 LINE SMOOTH",
"487 214 OFFCURVE",
"451 167 OFFCURVE",
"375 167 CURVE SMOOTH",
"291 167 OFFCURVE",
"265 214 OFFCURVE",
"279 300 CURVE SMOOTH",
"343 705 LINE",
"127 705 LINE",
"65 315 LINE SMOOTH",
"29 89 OFFCURVE",
"152 -12 OFFCURVE",
"352 -12 CURVE SMOOTH"
);
}
);
width = 758;
},
{
anchors = (
{
name = bottom;
position = "{321, 0}";
},
{
name = ogonek;
position = "{389, 0}";
},
{
name = top;
position = "{433, 705}";
},
{
name = topright;
position = "{668, 705}";
}
);
background = {
anchors = (
{
name = bottom;
position = "{321, 0}";
},
{
name = ogonek;
position = "{389, 0}";
},
{
name = top;
position = "{433, 705}";
},
{
name = topright;
position = "{668, 705}";
}
);
paths = (
{
closed = 1;
nodes = (
"494 -8 OFFCURVE",
"604 89 OFFCURVE",
"633 270 CURVE SMOOTH",
"702 705 LINE",
"660 705 LINE",
"592 276 LINE SMOOTH",
"566 113 OFFCURVE",
"474 33 OFFCURVE",
"326 33 CURVE SMOOTH",
"169 33 OFFCURVE",
"112 113 OFFCURVE",
"138 276 CURVE SMOOTH",
"206 705 LINE",
"164 705 LINE",
"95 270 LINE SMOOTH",
"66 89 OFFCURVE",
"137 -8 OFFCURVE",
"320 -8 CURVE SMOOTH"
);
}
);
};
layerId = "C98CF2FB-27AB-48B2-98BD-5B202BDF0FA3";
paths = (
{
closed = 1;
nodes = (
"494 -8 OFFCURVE",
"602 74 OFFCURVE",
"633 270 CURVE SMOOTH",
"702 705 LINE",
"660 705 LINE",
"592 276 LINE SMOOTH",
"564 100 OFFCURVE",
"474 33 OFFCURVE",
"331 33 CURVE SMOOTH",
"166 33 OFFCURVE",
"112 113 OFFCURVE",
"138 276 CURVE SMOOTH",
"206 705 LINE",
"164 705 LINE",
"95 270 LINE SMOOTH",
"66 88 OFFCURVE",
"149 -8 OFFCURVE",
"328 -8 CURVE SMOOTH"
);
}
);
width = 722;
},
{
anchors = (
{
name = bottom;
position = "{332, 0}";
},
{
name = ogonek;
position = "{421, 0}";
},
{
name = top;
position = "{444, 705}";
},
{
name = topright;
position = "{658, 705}";
}
);
layerId = "AFEE2FCF-314D-4571-9AD7-6410332F14FF";
paths = (
{
closed = 1;
nodes = (
"536 -10 OFFCURVE",
"641 84 OFFCURVE",
"673 284 CURVE SMOOTH",
"740 705 LINE",
"613 705 LINE",
"547 290 LINE SMOOTH",
"526 157 OFFCURVE",
"463 100 OFFCURVE",
"353 100 CURVE SMOOTH",
"229 100 OFFCURVE",
"189 164 OFFCURVE",
"209 288 CURVE SMOOTH",
"275 705 LINE",
"146 705 LINE",
"80 293 LINE SMOOTH",
"48 89 OFFCURVE",
"151 -10 OFFCURVE",
"340 -10 CURVE SMOOTH"
);
}
);
width = 740;
}
);
leftKerningGroup = U;
rightKerningGroup = U;
unicode = 0055;
userData = {
anchors = (
);
b = {
};
com.typemytype.robofont.layerData = {
b = {
anchors = (
);
components = (
);
contours = (
);
lib = {
};
name = U;
unicodes = (
);
width = 1490;
};
};
components = (
);
contours = (
);
lib = {
};
name = U;
unicodes = (
);
width = 1513;
};
},
{
color = 4;
glyphname = V;
layers = (
{
anchors = (
{
name = bottom;
position = "{349, 0}";
},
{
name = top;
position = "{461, 705}";
}
);
background = {
anchors = (
{
name = bottom;
position = "{349, 0}";
},
{
name = top;
position = "{461, 705}";
}
);
paths = (
{
closed = 1;
nodes = (
"429 0 LINE",
"864 705 LINE",
"641 705 LINE",
"348 201 LINE",
"411 201 LINE",
"277 705 LINE",
"45 705 LINE",
"257 0 LINE"
);
}
);
};
layerId = "BFD2D546-DAD9-41DE-8B9F-F3E812C082B3";
paths = (
{
closed = 1;
nodes = (
"429 0 LINE",
"864 705 LINE",
"634 705 LINE",
"341 201 LINE",
"404 201 LINE",
"270 705 LINE",
"45 705 LINE",
"257 0 LINE"
);
}
);
width = 765;
},
{
anchors = (
{
name = bottom;
position = "{299, 0}";
},
{
name = top;
position = "{411, 705}";
}
);
background = {
anchors = (
{
name = bottom;
position = "{299, 0}";
},
{
name = top;
position = "{411, 705}";
}
);
paths = (
{
closed = 1;
nodes = (
"320 0 LINE",
"737 705 LINE",
"693 705 LINE",
"291 24 LINE",
"313 24 LINE",
"129 705 LINE",
"84 705 LINE",
"274 0 LINE"
);
}
);
};
layerId = "C98CF2FB-27AB-48B2-98BD-5B202BDF0FA3";
paths = (
{
closed = 1;
nodes = (
"320 0 LINE",
"737 705 LINE",
"690 705 LINE",
"290 24 LINE",
"310 24 LINE",
"126 705 LINE",
"84 705 LINE",
"274 0 LINE"
);
}
);
width = 677;
},
{
anchors = (
{
name = bottom;
position = "{324, 0}";
},
{
name = top;
position = "{436, 705}";
}
);
layerId = "AFEE2FCF-314D-4571-9AD7-6410332F14FF";
paths = (
{
closed = 1;
nodes = (
"375 0 LINE",
"801 705 LINE",
"662 705 LINE",
"316 113 LINE",
"357 113 LINE",
"198 705 LINE",
"65 705 LINE",
"266 0 LINE"
);
}
);
width = 721;
}
);
leftKerningGroup = V;
rightKerningGroup = V;
unicode = 0056;
userData = {
anchors = (
);
b = {
};
com.typemytype.robofont.guides = (
);
com.typemytype.robofont.layerData = {
b = {
anchors = (
);
components = (
);
contours = (
{
points = (
{
segmentType = curve;
smooth = 1;
x = 644;
y = "-5";
},
{
smooth = 0;
x = 712;
y = "-5";
},
{
smooth = 0;
x = 764;
y = 38;
},
{
segmentType = curve;
smooth = 1;
x = 793;
y = 117;
},
{
segmentType = line;
smooth = 1;
x = 1243;
y = 1324;
},
{
smooth = 0;
x = 1247;
y = 1335;
},
{
smooth = 0;
x = 1248;
y = 1342;
},
{
segmentType = curve;
smooth = 1;
x = 1248;
y = 1351;
},
{
smooth = 0;
x = 1248;
y = 1395;
},
{
smooth = 0;
x = 1203;
y = 1427;
},
{
segmentType = curve;
smooth = 1;
x = 1160;
y = 1427;
},
{
smooth = 0;
x = 1125;
y = 1427;
},
{
smooth = 0;
x = 1090;
y = 1408;
},
{
segmentType = curve;
smooth = 1;
x = 1076;
y = 1369;
},
{
segmentType = line;
smooth = 0;
x = 651;
y = 192;
},
{
segmentType = line;
smooth = 0;
x = 650;
y = 190;
},
{
segmentType = line;
smooth = 1;
x = 214;
y = 1370;
},
{
smooth = 0;
x = 200;
y = 1407;
},
{
smooth = 0;
x = 170;
y = 1427;
},
{
segmentType = curve;
smooth = 1;
x = 135;
y = 1427;
},
{
smooth = 0;
x = 90;
y = 1427;
},
{
smooth = 0;
x = 43;
y = 1392;
},
{
segmentType = curve;
smooth = 1;
x = 43;
y = 1344;
},
{
smooth = 0;
x = 43;
y = 1336;
},
{
smooth = 0;
x = 44;
y = 1326;
},
{
segmentType = curve;
smooth = 0;
x = 48;
y = 1318;
},
{
segmentType = line;
smooth = 1;
x = 501;
y = 117;
},
{
smooth = 0;
x = 532;
y = 35;
},
{
smooth = 0;
x = 581;
y = "-5";
}
);
}
);
lib = {
};
name = V;
unicodes = (
);
width = 1289;
};
};
components = (
);
contours = (
);
lib = {
};
name = V;
unicodes = (
);
width = 1365;
};
},
{
color = 4;
glyphname = W;
layers = (
{
anchors = (
{
name = bottom;
position = "{529, 0}";
},
{
name = top;
position = "{641, 705}";
}
);
background = {
anchors = (
{
name = bottom;
position = "{529, 0}";
},
{
name = top;
position = "{641, 705}";
}
);
paths = (
{
closed = 1;
nodes = (
"394 0 LINE",
"607 412 LINE",
"584 412 LINE",
"663 0 LINE",
"834 0 LINE",
"1201 705 LINE",
"993 705 LINE",
"754 234 LINE",
"801 234 LINE",
"725 705 LINE",
"572 705 LINE",
"327 234 LINE",
"376 234 LINE",
"302 705 LINE",
"80 705 LINE",
"222 0 LINE"
);
}
);
};
layerId = "BFD2D546-DAD9-41DE-8B9F-F3E812C082B3";
paths = (
{
closed = 1;
nodes = (
"394 0 LINE",
"607 412 LINE",
"584 412 LINE",
"663 0 LINE",
"834 0 LINE",
"1201 705 LINE",
"986 705 LINE",
"747 234 LINE",
"794 234 LINE",
"718 705 LINE",
"565 705 LINE",
"320 234 LINE",
"369 234 LINE",
"295 705 LINE",
"80 705 LINE",
"222 0 LINE"
);
}
);
width = 1137;
},
{
anchors = (
{
name = bottom;
position = "{512, 0}";
},
{
name = top;
position = "{624, 705}";
}
);
background = {
anchors = (
{
name = bottom;
position = "{512, 0}";
},
{
name = top;
position = "{624, 705}";
}
);
paths = (
{
closed = 1;
nodes = (
"287 0 LINE",
"631 672 LINE",
"611 672 LINE",
"732 0 LINE",
"776 0 LINE",
"1134 705 LINE",
"1091 705 LINE",
"743 19 LINE",
"770 19 LINE",
"646 705 LINE",
"607 705 LINE",
"255 19 LINE",
"285 19 LINE",
"159 705 LINE",
"114 705 LINE",
"245 0 LINE"
);
}
);
};
layerId = "C98CF2FB-27AB-48B2-98BD-5B202BDF0FA3";
paths = (
{
closed = 1;
nodes = (
"287 0 LINE",
"631 672 LINE",
"611 672 LINE",
"732 0 LINE",
"776 0 LINE",
"1134 705 LINE",
"1088 705 LINE",
"740 19 LINE",
"767 19 LINE",
"643 705 LINE",
"604 705 LINE",
"252 19 LINE",
"282 19 LINE",
"156 705 LINE",
"114 705 LINE",
"245 0 LINE"
);
}
);
width = 1104;
},
{
anchors = (
{
name = bottom;
position = "{521, 0}";
},
{
name = top;
position = "{633, 705}";
}
);
layerId = "AFEE2FCF-314D-4571-9AD7-6410332F14FF";
paths = (
{
closed = 1;
nodes = (
"341 0 LINE",
"619 542 LINE",
"598 542 LINE",
"698 0 LINE",
"805 0 LINE",
"1168 705 LINE",
"1037 705 LINE",
"744 127 LINE",
"781 127 LINE",
"681 705 LINE",
"585 705 LINE",
"286 127 LINE",
"326 127 LINE",
"226 705 LINE",
"97 705 LINE",
"234 0 LINE"
);
}
);
width = 1120.5;
}
);
leftKerningGroup = V;
rightKerningGroup = V;
unicode = 0057;
userData = {
anchors = (
);
b = {
};
com.typemytype.robofont.layerData = {
b = {
anchors = (
);
components = (
);
contours = (
);
lib = {
};
name = W;
unicodes = (
);
width = 2126;
};
};
components = (
);
contours = (
);
lib = {
};
name = W;
unicodes = (
);
width = 2070;
};
},
{
color = 4;
glyphname = X;
layers = (
{
anchors = (
{
name = bottom;
position = "{313, 0}";
},
{
name = top;
position = "{425, 705}";
}
);
background = {
anchors = (
{
name = bottom;
position = "{313, 0}";
},
{
name = top;
position = "{425, 705}";
}
);
paths = (
{
closed = 1;
nodes = (
"171 0 LINE",
"384 245 LINE",
"317 245 LINE",
"452 0 LINE",
"705 0 LINE",
"461 404 LINE",
"445 305 LINE",
"812 705 LINE",
"560 705 LINE",
"349 461 LINE",
"419 461 LINE",
"288 705 LINE",
"36 705 LINE",
"274 305 LINE",
"290 404 LINE",
"-80 0 LINE"
);
}
);
};
layerId = "BFD2D546-DAD9-41DE-8B9F-F3E812C082B3";
paths = (
{
closed = 1;
nodes = (
"175 0 LINE",
"388 245 LINE",
"321 245 LINE",
"456 0 LINE",
"701 0 LINE",
"457 404 LINE",
"449 305 LINE",
"816 705 LINE",
"556 705 LINE",
"345 461 LINE",
"415 461 LINE",
"284 705 LINE",
"40 705 LINE",
"278 305 LINE",
"286 404 LINE",
"-84 0 LINE"
);
}
);
width = 705;
},
{
anchors = (
{
name = bottom;
position = "{278, 0}";
},
{
name = top;
position = "{390, 705}";
}
);
background = {
anchors = (
{
name = bottom;
position = "{278, 0}";
},
{
name = top;
position = "{390, 705}";
}
);
paths = (
{
closed = 1;
nodes = (
"35 0 LINE",
"343 342 LINE",
"322 342 LINE",
"521 0 LINE",
"572 0 LINE",
"357 367 LINE",
"356 357 LINE",
"669 705 LINE",
"618 705 LINE",
"335 387 LINE",
"347 387 LINE",
"162 705 LINE",
"111 705 LINE",
"315 357 LINE",
"316 367 LINE",
"-16 0 LINE"
);
}
);
};
layerId = "C98CF2FB-27AB-48B2-98BD-5B202BDF0FA3";
paths = (
{
closed = 1;
nodes = (
"37 0 LINE",
"345 342 LINE",
"323 342 LINE",
"522 0 LINE",
"570 0 LINE",
"355 367 LINE",
"358 357 LINE",
"671 705 LINE",
"616 705 LINE",
"333 387 LINE",
"345 387 LINE",
"160 705 LINE",
"112 705 LINE",
"316 357 LINE",
"314 367 LINE",
"-18 0 LINE"
);
}
);
width = 636;
},
{
anchors = (
{
name = bottom;
position = "{296, 0}";
},
{
name = top;
position = "{408, 705}";
}
);
layerId = "AFEE2FCF-314D-4571-9AD7-6410332F14FF";
paths = (
{
closed = 1;
nodes = (
"106 0 LINE",
"367 294 LINE",
"322 294 LINE",
"489 0 LINE",
"636 0 LINE",
"406 386 LINE",
"404 331 LINE",
"744 705 LINE",
"586 705 LINE",
"339 424 LINE",
"380 424 LINE",
"222 705 LINE",
"76 705 LINE",
"297 331 LINE",
"300 386 LINE",
"-51 0 LINE"
);
}
);
width = 670.5;
}
);
leftKerningGroup = X;
rightKerningGroup = X;
unicode = 0058;
userData = {
anchors = (
);
b = {
};
com.typemytype.robofont.layerData = {
b = {
anchors = (
);
components = (
);
contours = (
{
points = (
{
segmentType = curve;
smooth = 1;
x = 151;
y = 0;
},
{
smooth = 0;
x = 176;
y = 0;
},
{
smooth = 0;
x = 201;
y = 12;
},
{
segmentType = curve;
smooth = 1;
x = 222;
y = 41;
},
{
segmentType = line;
smooth = 0;
x = 641;
y = 616;
},
{
segmentType = line;
smooth = 0;
x = 746;
y = 734;
},
{
segmentType = line;
smooth = 1;
x = 1175;
y = 1310;
},
{
smooth = 0;
x = 1186;
y = 1325;
},
{
smooth = 0;
x = 1190;
y = 1338;
},
{
segmentType = curve;
smooth = 1;
x = 1190;
y = 1353;
},
{
smooth = 0;
x = 1190;
y = 1393;
},
{
smooth = 0;
x = 1153;
y = 1426;
},
{
segmentType = curve;
smooth = 1;
x = 1110;
y = 1426;
},
{
smooth = 0;
x = 1083;
y = 1426;
},
{
smooth = 0;
x = 1058;
y = 1414;
},
{
segmentType = curve;
smooth = 1;
x = 1037;
y = 1385;
},
{
segmentType = line;
smooth = 0;
x = 648;
y = 844;
},
{
segmentType = line;
smooth = 0;
x = 542;
y = 732;
},
{
segmentType = line;
smooth = 1;
x = 84;
y = 121;
},
{
smooth = 0;
x = 73;
y = 106;
},
{
smooth = 0;
x = 68;
y = 91;
},
{
segmentType = curve;
smooth = 1;
x = 68;
y = 76;
},
{
smooth = 0;
x = 68;
y = 35;
},
{
smooth = 0;
x = 108;
y = 0;
}
);
},
{
points = (
{
segmentType = curve;
smooth = 1;
x = 1104;
y = 0;
},
{
smooth = 0;
x = 1151;
y = 0;
},
{
smooth = 0;
x = 1200;
y = 40;
},
{
segmentType = curve;
smooth = 1;
x = 1200;
y = 85;
},
{
smooth = 0;
x = 1200;
y = 98;
},
{
smooth = 0;
x = 1195;
y = 113;
},
{
segmentType = curve;
smooth = 0;
x = 1186;
y = 126;
},
{
segmentType = line;
smooth = 0;
x = 272;
y = 1385;
},
{
smooth = 0;
x = 252;
y = 1414;
},
{
smooth = 0;
x = 225;
y = 1426;
},
{
segmentType = curve;
smooth = 1;
x = 197;
y = 1426;
},
{
smooth = 0;
x = 149;
y = 1426;
},
{
smooth = 0;
x = 100;
y = 1388;
},
{
segmentType = curve;
smooth = 1;
x = 100;
y = 1343;
},
{
smooth = 0;
x = 100;
y = 1328;
},
{
smooth = 0;
x = 105;
y = 1315;
},
{
segmentType = curve;
smooth = 0;
x = 114;
y = 1303;
},
{
segmentType = line;
smooth = 0;
x = 1033;
y = 40;
},
{
smooth = 0;
x = 1052;
y = 13;
},
{
smooth = 0;
x = 1076;
y = 0;
}
);
}
);
lib = {
};
name = X;
unicodes = (
);
width = 1274;
};
};
components = (
);
contours = (
);
lib = {
};
name = X;
unicodes = (
);
width = 1322;
};
},
{
color = 4;
glyphname = Y;
layers = (
{
anchors = (
{
name = bottom;
position = "{297, 0}";
},
{
name = top;
position = "{407, 705}";
},
{
name = topleft;
position = "{86, 705}";
}
);
background = {
anchors = (
{
name = bottom;
position = "{297, 0}";
},
{
name = top;
position = "{407, 705}";
},
{
name = topleft;
position = "{86, 705}";
}
);
paths = (
{
closed = 1;
nodes = (
"404 0 LINE",
"458 339 LINE",
"396 223 LINE",
"795 705 LINE",
"554 705 LINE",
"348 443 LINE",
"389 443 LINE",
"268 705 LINE",
"20 705 LINE",
"265 223 LINE",
"242 339 LINE",
"188 0 LINE"
);
}
);
};
layerId = "BFD2D546-DAD9-41DE-8B9F-F3E812C082B3";
paths = (
{
closed = 1;
nodes = (
"404 0 LINE",
"458 339 LINE",
"396 213 LINE",
"795 705 LINE",
"547 705 LINE",
"341 443 LINE",
"382 443 LINE",
"261 705 LINE",
"20 705 LINE",
"265 223 LINE",
"242 339 LINE",
"188 0 LINE"
);
}
);
width = 671;
},
{
anchors = (
{
name = bottom;
position = "{254, 0}";
},
{
name = top;
position = "{366, 705}";
},
{
name = topleft;
position = "{91, 705}";
}
);
background = {
anchors = (
{
name = bottom;
position = "{254, 0}";
},
{
name = top;
position = "{366, 705}";
},
{
name = topleft;
position = "{91, 705}";
}
);
paths = (
{
closed = 1;
nodes = (
"274 0 LINE",
"326 326 LINE",
"310 288 LINE",
"658 705 LINE",
"611 705 LINE",
"299 327 LINE",
"314 327 LINE",
"122 705 LINE",
"73 705 LINE",
"289 288 LINE",
"284 326 LINE",
"232 0 LINE"
);
}
);
};
layerId = "C98CF2FB-27AB-48B2-98BD-5B202BDF0FA3";
paths = (
{
closed = 1;
nodes = (
"274 0 LINE",
"326 326 LINE",
"310 288 LINE",
"658 705 LINE",
"608 705 LINE",
"296 327 LINE",
"311 327 LINE",
"119 705 LINE",
"73 705 LINE",
"289 288 LINE",
"284 326 LINE",
"232 0 LINE"
);
}
);
width = 587;
},
{
anchors = (
{
name = bottom;
position = "{276, 0}";
},
{
name = top;
position = "{387, 705}";
},
{
name = topleft;
position = "{89, 705}";
}
);
layerId = "AFEE2FCF-314D-4571-9AD7-6410332F14FF";
paths = (
{
closed = 1;
nodes = (
"339 0 LINE",
"392 333 LINE",
"353 251 LINE",
"727 705 LINE",
"578 705 LINE",
"319 385 LINE",
"347 385 LINE",
"190 705 LINE",
"47 705 LINE",
"277 256 LINE",
"263 333 LINE",
"210 0 LINE"
);
}
);
width = 629;
}
);
leftKerningGroup = Y;
rightKerningGroup = Y;
unicode = 0059;
userData = {
anchors = (
);
b = {
};
com.typemytype.robofont.guides = (
);
com.typemytype.robofont.layerData = {
b = {
anchors = (
);
components = (
);
contours = (
{
points = (
{
segmentType = curve;
smooth = 1;
x = 641;
y = 0;
},
{
smooth = 0;
x = 685;
y = 0;
},
{
smooth = 0;
x = 730;
y = 29;
},
{
segmentType = curve;
smooth = 1;
x = 730;
y = 85;
},
{
segmentType = line;
smooth = 0;
x = 730;
y = 1285;
},
{
segmentType = line;
smooth = 1;
x = 1115;
y = 1285;
},
{
smooth = 0;
x = 1164;
y = 1285;
},
{
smooth = 0;
x = 1190;
y = 1319;
},
{
segmentType = curve;
smooth = 1;
x = 1190;
y = 1355;
},
{
smooth = 0;
x = 1190;
y = 1392;
},
{
smooth = 0;
x = 1166;
y = 1426;
},
{
segmentType = curve;
smooth = 1;
x = 1115;
y = 1426;
},
{
segmentType = line;
smooth = 1;
x = 160;
y = 1426;
},
{
smooth = 0;
x = 111;
y = 1426;
},
{
smooth = 0;
x = 86;
y = 1392;
},
{
segmentType = curve;
smooth = 1;
x = 86;
y = 1355;
},
{
smooth = 0;
x = 86;
y = 1319;
},
{
smooth = 0;
x = 111;
y = 1285;
},
{
segmentType = curve;
smooth = 1;
x = 160;
y = 1285;
},
{
segmentType = line;
smooth = 0;
x = 552;
y = 1285;
},
{
segmentType = line;
smooth = 1;
x = 552;
y = 85;
},
{
smooth = 0;
x = 552;
y = 29;
},
{
smooth = 0;
x = 596;
y = 0;
}
);
}
);
lib = {
};
name = Y;
unicodes = (
);
width = 1278;
};
};
components = (
);
contours = (
);
lib = {
};
name = Y;
unicodes = (
);
width = 1321;
};
},
{
color = 4;
glyphname = Yhook;
production = uni01B3;
layers = (
{
background = {
paths = (
{
closed = 1;
nodes = (
"404 0 LINE",
"458 339 LINE",
"396 213 LINE",
"795 705 LINE",
"547 705 LINE",
"341 443 LINE",
"382 443 LINE",
"261 705 LINE",
"20 705 LINE",
"265 223 LINE",
"242 339 LINE",
"188 0 LINE"
);
}
);
};
layerId = "BFD2D546-DAD9-41DE-8B9F-F3E812C082B3";
paths = (
{
closed = 1;
nodes = (
"404 0 LINE",
"458 339 LINE",
"396 213 LINE",
"646 522 LINE SMOOTH",
"672 555 OFFCURVE",
"698 566 OFFCURVE",
"730 566 CURVE SMOOTH",
"751 566 OFFCURVE",
"766 565 OFFCURVE",
"781 560 CURVE",
"803 702 LINE",
"786 711 OFFCURVE",
"747 717 OFFCURVE",
"713 717 CURVE SMOOTH",
"606 717 OFFCURVE",
"538 692 OFFCURVE",
"465 600 CURVE SMOOTH",
"341 443 LINE",
"382 443 LINE",
"261 705 LINE",
"20 705 LINE",
"265 223 LINE",
"242 339 LINE",
"188 0 LINE"
);
}
);
width = 671;
},
{
background = {
paths = (
{
closed = 1;
nodes = (
"274 0 LINE",
"326 326 LINE",
"310 288 LINE",
"658 705 LINE",
"608 705 LINE",
"296 327 LINE",
"311 327 LINE",
"119 705 LINE",
"73 705 LINE",
"289 288 LINE",
"284 326 LINE",
"232 0 LINE"
);
}
);
};
layerId = "C98CF2FB-27AB-48B2-98BD-5B202BDF0FA3";
paths = (
{
closed = 1;
nodes = (
"274 0 LINE",
"326 326 LINE",
"310 288 LINE",
"589 623 LINE SMOOTH",
"621 661 OFFCURVE",
"654 675 OFFCURVE",
"690 675 CURVE SMOOTH",
"709 675 OFFCURVE",
"723 672 OFFCURVE",
"737 667 CURVE",
"743 704 LINE",
"725 710 OFFCURVE",
"715 712 OFFCURVE",
"690 712 CURVE SMOOTH",
"637 712 OFFCURVE",
"599 693 OFFCURVE",
"557 643 CURVE SMOOTH",
"296 327 LINE",
"311 327 LINE",
"119 705 LINE",
"73 705 LINE",
"289 288 LINE",
"284 326 LINE",
"232 0 LINE"
);
}
);
width = 587;
},
{
layerId = "AFEE2FCF-314D-4571-9AD7-6410332F14FF";
paths = (
{
closed = 1;
nodes = (
"339 0 LINE",
"392 333 LINE",
"353 251 LINE",
"618 573 LINE SMOOTH",
"647 608 OFFCURVE",
"676 621 OFFCURVE",
"710 621 CURVE SMOOTH",
"730 621 OFFCURVE",
"745 619 OFFCURVE",
"759 614 CURVE",
"773 703 LINE",
"756 711 OFFCURVE",
"731 715 OFFCURVE",
"702 715 CURVE SMOOTH",
"622 715 OFFCURVE",
"569 693 OFFCURVE",
"511 622 CURVE SMOOTH",
"319 385 LINE",
"347 385 LINE",
"190 705 LINE",
"47 705 LINE",
"277 256 LINE",
"263 333 LINE",
"210 0 LINE"
);
}
);
width = 629;
}
);
leftKerningGroup = Y;
rightKerningGroup = Y;
unicode = 01B3;
},
{
color = 4;
glyphname = Z;
layers = (
{
anchors = (
{
name = bottom;
position = "{287, 0}";
},
{
name = top;
position = "{399, 705}";
}
);
background = {
anchors = (
{
name = bottom;
position = "{287, 0}";
},
{
name = top;
position = "{399, 705}";
}
);
paths = (
{
closed = 1;
nodes = (
"565 0 LINE",
"593 175 LINE",
"241 175 LINE",
"232 117 LINE",
"636 547 LINE",
"661 705 LINE",
"120 705 LINE",
"92 530 LINE",
"428 530 LINE",
"437 588 LINE",
"33 158 LINE",
"8 0 LINE"
);
}
);
};
layerId = "BFD2D546-DAD9-41DE-8B9F-F3E812C082B3";
paths = (
{
closed = 1;
nodes = (
"565 0 LINE",
"593 175 LINE",
"249 175 LINE",
"240 117 LINE",
"636 547 LINE",
"661 705 LINE",
"120 705 LINE",
"92 530 LINE",
"420 530 LINE",
"429 588 LINE",
"33 158 LINE",
"8 0 LINE"
);
}
);
width = 631;
},
{
anchors = (
{
name = bottom;
position = "{254, 0}";
},
{
name = top;
position = "{366, 705}";
}
);
background = {
anchors = (
{
name = bottom;
position = "{254, 0}";
},
{
name = top;
position = "{366, 705}";
}
);
paths = (
{
closed = 1;
nodes = (
"506 0 LINE",
"512 39 LINE",
"47 39 LINE",
"44 16 LINE",
"603 674 LINE",
"608 705 LINE",
"114 705 LINE",
"107 666 LINE",
"561 666 LINE",
"565 689 LINE",
"7 31 LINE",
"2 0 LINE"
);
}
);
};
layerId = "C98CF2FB-27AB-48B2-98BD-5B202BDF0FA3";
paths = (
{
closed = 1;
nodes = (
"506 0 LINE",
"512 39 LINE",
"51 39 LINE",
"48 16 LINE",
"603 674 LINE",
"608 705 LINE",
"114 705 LINE",
"107 666 LINE",
"557 666 LINE",
"561 689 LINE",
"7 31 LINE",
"2 0 LINE"
);
}
);
width = 585;
},
{
anchors = (
{
name = bottom;
position = "{271, 0}";
},
{
name = top;
position = "{383, 705}";
}
);
layerId = "AFEE2FCF-314D-4571-9AD7-6410332F14FF";
paths = (
{
closed = 1;
nodes = (
"536 0 LINE",
"553 107 LINE",
"150 107 LINE",
"144 67 LINE",
"620 611 LINE",
"635 705 LINE",
"117 705 LINE",
"100 598 LINE",
"489 598 LINE",
"495 639 LINE",
"20 95 LINE",
"5 0 LINE"
);
}
);
width = 608;
}
);
leftKerningGroup = Z;
rightKerningGroup = Z;
unicode = 005A;
userData = {
anchors = (
);
b = {
};
com.typemytype.robofont.layerData = {
b = {
anchors = (
);
components = (
);
contours = (
{
points = (
{
segmentType = curve;
smooth = 1;
x = 266;
y = 0;
},
{
segmentType = line;
smooth = 1;
x = 1035;
y = 0;
},
{
smooth = 0;
x = 1084;
y = 0;
},
{
smooth = 0;
x = 1108;
y = 34;
},
{
segmentType = curve;
smooth = 1;
x = 1108;
y = 71;
},
{
smooth = 0;
x = 1108;
y = 107;
},
{
smooth = 0;
x = 1084;
y = 141;
},
{
segmentType = curve;
smooth = 1;
x = 1035;
y = 141;
},
{
segmentType = line;
smooth = 0;
x = 356;
y = 141;
},
{
segmentType = line;
smooth = 0;
x = 356;
y = 665;
},
{
segmentType = line;
smooth = 1;
x = 975;
y = 665;
},
{
smooth = 0;
x = 1024;
y = 665;
},
{
smooth = 0;
x = 1049;
y = 698;
},
{
segmentType = curve;
smooth = 1;
x = 1049;
y = 734;
},
{
smooth = 0;
x = 1049;
y = 770;
},
{
smooth = 0;
x = 1026;
y = 803;
},
{
segmentType = curve;
smooth = 1;
x = 975;
y = 803;
},
{
segmentType = line;
smooth = 0;
x = 356;
y = 803;
},
{
segmentType = line;
smooth = 0;
x = 356;
y = 1285;
},
{
segmentType = line;
smooth = 1;
x = 1007;
y = 1285;
},
{
smooth = 0;
x = 1056;
y = 1285;
},
{
smooth = 0;
x = 1080;
y = 1319;
},
{
segmentType = curve;
smooth = 1;
x = 1080;
y = 1356;
},
{
smooth = 0;
x = 1080;
y = 1392;
},
{
smooth = 0;
x = 1056;
y = 1426;
},
{
segmentType = curve;
smooth = 1;
x = 1007;
y = 1426;
},
{
segmentType = line;
smooth = 1;
x = 261;
y = 1426;
},
{
smooth = 0;
x = 213;
y = 1426;
},
{
smooth = 0;
x = 178;
y = 1383;
},
{
segmentType = curve;
smooth = 1;
x = 178;
y = 1340;
},
{
segmentType = line;
smooth = 1;
x = 178;
y = 86;
},
{
smooth = 0;
x = 178;
y = 41;
},
{
smooth = 0;
x = 222;
y = 0;
}
);
}
);
lib = {
};
name = Z;
unicodes = (
);
width = 1165;
};
};
components = (
);
contours = (
);
lib = {
};
name = Z;
unicodes = (
);
width = 1222;
};
},
{
color = 4;
glyphname = a;
layers = (
{
anchors = (
{
name = bottom;
position = "{279, 0}";
},
{
name = center;
position = "{316, 255}";
},
{
name = ogonek;
position = "{527, 0}";
},
{
name = top;
position = "{361, 484}";
}
);
background = {
anchors = (
{
name = bottom;
position = "{279, 0}";
},
{
name = center;
position = "{316, 255}";
},
{
name = ogonek;
position = "{527, 0}";
},
{
name = top;
position = "{361, 484}";
}
);
paths = (
{
closed = 1;
nodes = (
"286 -12 OFFCURVE",
"360 26 OFFCURVE",
"388 82 CURVE",
"376 82 LINE",
"363 0 LINE",
"569 0 LINE",
"650 510 LINE",
"444 510 LINE",
"432 434 LINE",
"442 434 LINE",
"431 486 OFFCURVE",
"368 522 OFFCURVE",
"293 522 CURVE SMOOTH",
"162 522 OFFCURVE",
"54 421 OFFCURVE",
"27 255 CURVE SMOOTH",
"0 88 OFFCURVE",
"78 -12 OFFCURVE",
"208 -12 CURVE SMOOTH"
);
},
{
closed = 1;
nodes = (
"255 141 OFFCURVE",
"224 172 OFFCURVE",
"237 255 CURVE SMOOTH",
"250 338 OFFCURVE",
"291 369 OFFCURVE",
"339 369 CURVE SMOOTH",
"388 369 OFFCURVE",
"417 338 OFFCURVE",
"403 255 CURVE SMOOTH",
"389 172 OFFCURVE",
"352 141 OFFCURVE",
"303 141 CURVE SMOOTH"
);
}
);
};
layerId = "BFD2D546-DAD9-41DE-8B9F-F3E812C082B3";
paths = (
{
closed = 1;
nodes = (
"306 -12 OFFCURVE",
"365 26 OFFCURVE",
"393 82 CURVE",
"376 82 LINE",
"363 0 LINE",
"569 0 LINE",
"627 365 LINE SMOOTH",
"635 413 OFFCURVE",
"645 462 OFFCURVE",
"658 510 CURVE",
"458 510 LINE",
"433 428 LINE",
"442 434 LINE",
"431 486 OFFCURVE",
"368 522 OFFCURVE",
"293 522 CURVE SMOOTH",
"162 522 OFFCURVE",
"58 441 OFFCURVE",
"31 275 CURVE SMOOTH",
"5 108 OFFCURVE",
"88 -12 OFFCURVE",
"228 -12 CURVE SMOOTH"
);
},
{
closed = 1;
nodes = (
"255 141 OFFCURVE",
"224 172 OFFCURVE",
"239 265 CURVE SMOOTH",
"251 339 OFFCURVE",
"285 369 OFFCURVE",
"334 369 CURVE SMOOTH",
"384 369 OFFCURVE",
"416 338 OFFCURVE",
"401 245 CURVE SMOOTH",
"389 171 OFFCURVE",
"354 141 OFFCURVE",
"306 141 CURVE SMOOTH"
);
}
);
width = 657;
},
{
anchors = (
{
name = bottom;
position = "{245, 0}";
},
{
name = center;
position = "{275, 253}";
},
{
name = ogonek;
position = "{455, 0}";
},
{
name = top;
position = "{322, 484}";
}
);
background = {
anchors = (
{
name = bottom;
position = "{245, 0}";
},
{
name = center;
position = "{275, 253}";
},
{
name = ogonek;
position = "{455, 0}";
},
{
name = top;
position = "{322, 484}";
}
);
paths = (
{
closed = 1;
nodes = (
"328 -8 OFFCURVE",
"408 44 OFFCURVE",
"445 131 CURVE",
"434 131 LINE",
"413 0 LINE",
"455 0 LINE",
"534 500 LINE",
"492 500 LINE",
"471 369 LINE",
"482 369 LINE",
"473 456 OFFCURVE",
"409 508 OFFCURVE",
"314 508 CURVE SMOOTH",
"179 508 OFFCURVE",
"79 411 OFFCURVE",
"54 250 CURVE SMOOTH",
"29 89 OFFCURVE",
"98 -8 OFFCURVE",
"233 -8 CURVE SMOOTH"
);
},
{
closed = 1;
nodes = (
"130 31 OFFCURVE",
"74 109 OFFCURVE",
"97 250 CURVE SMOOTH",
"120 391 OFFCURVE",
"199 469 OFFCURVE",
"309 469 CURVE SMOOTH",
"417 469 OFFCURVE",
"476 391 OFFCURVE",
"454 250 CURVE SMOOTH",
"432 109 OFFCURVE",
"348 31 OFFCURVE",
"240 31 CURVE SMOOTH"
);
}
);
};
layerId = "C98CF2FB-27AB-48B2-98BD-5B202BDF0FA3";
paths = (
{
closed = 1;
nodes = (
"339 -8 OFFCURVE",
"411 44 OFFCURVE",
"448 131 CURVE",
"434 131 LINE",
"413 0 LINE",
"455 0 LINE",
"517 392 LINE SMOOTH",
"522 426 OFFCURVE",
"532 463 OFFCURVE",
"542 500 CURVE",
"501 500 LINE",
"470 369 LINE",
"482 369 LINE",
"468 456 OFFCURVE",
"404 508 OFFCURVE",
"311 508 CURVE SMOOTH",
"180 508 OFFCURVE",
"81 420 OFFCURVE",
"55 260 CURVE SMOOTH",
"27 88 OFFCURVE",
"101 -8 OFFCURVE",
"240 -8 CURVE SMOOTH"
);
},
{
closed = 1;
nodes = (
"131 31 OFFCURVE",
"74 109 OFFCURVE",
"97 250 CURVE SMOOTH",
"119 391 OFFCURVE",
"200 469 OFFCURVE",
"307 469 CURVE SMOOTH",
"419 469 OFFCURVE",
"478 391 OFFCURVE",
"456 250 CURVE SMOOTH",
"433 109 OFFCURVE",
"350 31 OFFCURVE",
"244 31 CURVE SMOOTH"
);
}
);
width = 583;
},
{
anchors = (
{
name = bottom;
position = "{262, 0}";
},
{
name = center;
position = "{296, 254}";
},
{
name = ogonek;
position = "{491, 0}";
},
{
name = top;
position = "{342, 484}";
}
);
layerId = "AFEE2FCF-314D-4571-9AD7-6410332F14FF";
paths = (
{
closed = 1;
nodes = (
"323 -10 OFFCURVE",
"388 35 OFFCURVE",
"421 107 CURVE",
"405 107 LINE",
"388 0 LINE",
"512 0 LINE",
"572 379 LINE SMOOTH",
"579 420 OFFCURVE",
"589 463 OFFCURVE",
"600 505 CURVE",
"480 505 LINE",
"452 399 LINE",
"462 402 LINE",
"450 471 OFFCURVE",
"386 515 OFFCURVE",
"302 515 CURVE SMOOTH",
"171 515 OFFCURVE",
"70 431 OFFCURVE",
"43 268 CURVE SMOOTH",
"16 98 OFFCURVE",
"95 -10 OFFCURVE",
"234 -10 CURVE SMOOTH"
);
},
{
closed = 1;
nodes = (
"193 86 OFFCURVE",
"149 141 OFFCURVE",
"168 258 CURVE SMOOTH",
"185 365 OFFCURVE",
"243 419 OFFCURVE",
"321 419 CURVE SMOOTH",
"402 419 OFFCURVE",
"447 365 OFFCURVE",
"429 248 CURVE SMOOTH",
"411 140 OFFCURVE",
"352 86 OFFCURVE",
"275 86 CURVE SMOOTH"
);
}
);
width = 620;
}
);
leftKerningGroup = a;
rightKerningGroup = n;
unicode = 0061;
userData = {
anchors = (
);
b = {
};
com.typemytype.robofont.layerData = {
b = {
anchors = (
);
components = (
);
contours = (
);
lib = {
};
name = a;
unicodes = (
);
width = 1040;
};
};
components = (
);
contours = (
);
lib = {
};
name = a;
unicodes = (
);
width = 1101;
};
},
{
color = 4;
glyphname = ae;
layers = (
{
anchors = (
{
name = bottom;
position = "{364, 0}";
},
{
name = top;
position = "{469, 484}";
}
);
background = {
anchors = (
{
name = bottom;
position = "{364, 0}";
},
{
name = top;
position = "{469, 484}";
}
);
paths = (
{
closed = 1;
nodes = (
"1376 -12 OFFCURVE",
"1452 29 OFFCURVE",
"1493 100 CURVE",
"1462 100 LINE",
"1494 28 OFFCURVE",
"1565 -12 OFFCURVE",
"1680 -12 CURVE SMOOTH",
"1756 -12 OFFCURVE",
"1832 4 OFFCURVE",
"1890 39 CURVE",
"1860 174 LINE",
"1814 148 OFFCURVE",
"1764 140 OFFCURVE",
"1713 140 CURVE SMOOTH",
"1636 140 OFFCURVE",
"1604 172 OFFCURVE",
"1622 261 CURVE SMOOTH",
"1624 271 LINE SMOOTH",
"1640 351 OFFCURVE",
"1667 387 OFFCURVE",
"1714 387 CURVE SMOOTH",
"1751 387 OFFCURVE",
"1773 359 OFFCURVE",
"1762 293 CURVE",
"1782 312 LINE",
"1616 312 LINE",
"1602 218 LINE",
"1923 218 LINE",
"1929 258 LINE SMOOTH",
"1954 425 OFFCURVE",
"1880 522 OFFCURVE",
"1736 522 CURVE SMOOTH",
"1666 522 OFFCURVE",
"1612 499 OFFCURVE",
"1549 450 CURVE",
"1592 450 LINE",
"1561 501 OFFCURVE",
"1494 522 OFFCURVE",
"1406 522 CURVE SMOOTH",
"1323 522 OFFCURVE",
"1231 500 OFFCURVE",
"1172 468 CURVE",
"1203 332 LINE",
"1266 359 OFFCURVE",
"1316 370 OFFCURVE",
"1369 370 CURVE SMOOTH",
"1422 370 OFFCURVE",
"1443 356 OFFCURVE",
"1437 319 CURVE SMOOTH",
"1417 196 LINE SMOOTH",
"1410 151 OFFCURVE",
"1371 123 OFFCURVE",
"1329 123 CURVE SMOOTH",
"1293 123 OFFCURVE",
"1278 141 OFFCURVE",
"1282 166 CURVE SMOOTH",
"1287 195 OFFCURVE",
"1322 218 OFFCURVE",
"1383 218 CURVE SMOOTH",
"1436 218 LINE",
"1450 312 LINE",
"1401 312 LINE SMOOTH",
"1197 312 OFFCURVE",
"1120 266 OFFCURVE",
"1103 159 CURVE SMOOTH",
"1089 72 OFFCURVE",
"1147 -12 OFFCURVE",
"1276 -12 CURVE SMOOTH"
);
},
{
closed = 1;
nodes = (
"682 -12 OFFCURVE",
"750 3 OFFCURVE",
"808 38 CURVE",
"759 173 LINE",
"714 150 OFFCURVE",
"678 141 OFFCURVE",
"637 141 CURVE SMOOTH",
"542 141 OFFCURVE",
"511 181 OFFCURVE",
"522 250 CURVE SMOOTH",
"530 301 LINE SMOOTH",
"538 349 OFFCURVE",
"563 387 OFFCURVE",
"609 387 CURVE SMOOTH",
"650 387 OFFCURVE",
"672 358 OFFCURVE",
"662 293 CURVE",
"682 312 LINE",
"511 312 LINE",
"497 218 LINE",
"823 218 LINE",
"829 255 LINE SMOOTH",
"854 408 OFFCURVE",
"773 522 OFFCURVE",
"614 522 CURVE SMOOTH",
"460 522 OFFCURVE",
"354 425 OFFCURVE",
"330 278 CURVE SMOOTH",
"303 110 OFFCURVE",
"404 -12 OFFCURVE",
"606 -12 CURVE SMOOTH"
);
}
);
};
layerId = "BFD2D546-DAD9-41DE-8B9F-F3E812C082B3";
paths = (
{
closed = 1;
nodes = (
"296 -12 OFFCURVE",
"362 29 OFFCURVE",
"403 100 CURVE",
"365 100 LINE",
"409 28 OFFCURVE",
"491 -12 OFFCURVE",
"606 -12 CURVE SMOOTH",
"682 -12 OFFCURVE",
"750 3 OFFCURVE",
"808 38 CURVE",
"759 173 LINE",
"714 150 OFFCURVE",
"678 141 OFFCURVE",
"637 141 CURVE SMOOTH",
"542 141 OFFCURVE",
"511 181 OFFCURVE",
"522 250 CURVE SMOOTH",
"530 301 LINE SMOOTH",
"538 349 OFFCURVE",
"562 387 OFFCURVE",
"609 387 CURVE SMOOTH",
"650 387 OFFCURVE",
"672 358 OFFCURVE",
"662 293 CURVE",
"682 312 LINE",
"516 312 LINE",
"502 218 LINE",
"823 218 LINE",
"829 255 LINE SMOOTH",
"854 408 OFFCURVE",
"773 522 OFFCURVE",
"614 522 CURVE SMOOTH",
"544 522 OFFCURVE",
"487 504 OFFCURVE",
"429 450 CURVE",
"482 450 LINE",
"451 501 OFFCURVE",
"394 522 OFFCURVE",
"286 522 CURVE SMOOTH",
"213 522 OFFCURVE",
"115 501 OFFCURVE",
"56 473 CURVE",
"103 335 LINE",
"162 360 OFFCURVE",
"206 370 OFFCURVE",
"259 370 CURVE SMOOTH",
"312 370 OFFCURVE",
"342 346 OFFCURVE",
"335 299 CURVE SMOOTH",
"319 196 LINE SMOOTH",
"312 151 OFFCURVE",
"281 123 OFFCURVE",
"234 123 CURVE SMOOTH",
"193 123 OFFCURVE",
"178 144 OFFCURVE",
"182 171 CURVE SMOOTH",
"187 198 OFFCURVE",
"212 218 OFFCURVE",
"273 218 CURVE SMOOTH",
"336 218 LINE",
"350 312 LINE",
"301 312 LINE SMOOTH",
"97 312 OFFCURVE",
"20 266 OFFCURVE",
"6 179 CURVE SMOOTH",
"-8 92 OFFCURVE",
"47 -12 OFFCURVE",
"206 -12 CURVE SMOOTH"
);
}
);
width = 854;
},
{
anchors = (
{
name = bottom;
position = "{396, 0}";
},
{
name = top;
position = "{473, 484}";
}
);
background = {
anchors = (
{
name = bottom;
position = "{396, 0}";
},
{
name = top;
position = "{473, 484}";
}
);
paths = (
{
closed = 1;
nodes = (
"308 -8 OFFCURVE",
"393 56 OFFCURVE",
"428 163 CURVE",
"409 163 LINE",
"418 52 OFFCURVE",
"486 -8 OFFCURVE",
"606 -8 CURVE SMOOTH",
"675 -8 OFFCURVE",
"752 18 OFFCURVE",
"801 64 CURVE",
"785 97 LINE",
"727 51 OFFCURVE",
"671 31 OFFCURVE",
"611 31 CURVE SMOOTH",
"489 31 OFFCURVE",
"437 118 OFFCURVE",
"457 260 CURVE SMOOTH",
"458 267 LINE SMOOTH",
"477 398 OFFCURVE",
"560 470 OFFCURVE",
"670 470 CURVE SMOOTH",
"777 470 OFFCURVE",
"823 397 OFFCURVE",
"804 280 CURVE",
"823 293 LINE",
"451 293 LINE",
"445 255 LINE",
"839 255 LINE",
"843 279 LINE SMOOTH",
"866 420 OFFCURVE",
"803 508 OFFCURVE",
"679 508 CURVE SMOOTH",
"581 508 OFFCURVE",
"502 458 OFFCURVE",
"453 366 CURVE",
"472 366 LINE",
"475 458 OFFCURVE",
"430 508 OFFCURVE",
"323 508 CURVE SMOOTH",
"254 508 OFFCURVE",
"181 486 OFFCURVE",
"124 449 CURVE",
"138 413 LINE",
"201 453 OFFCURVE",
"255 469 OFFCURVE",
"319 469 CURVE SMOOTH",
"405 469 OFFCURVE",
"441 428 OFFCURVE",
"425 328 CURVE SMOOTH",
"406 209 LINE SMOOTH",
"389 103 OFFCURVE",
"310 30 OFFCURVE",
"215 30 CURVE SMOOTH",
"134 30 OFFCURVE",
"90 76 OFFCURVE",
"101 144 CURVE SMOOTH",
"115 233 OFFCURVE",
"172 256 OFFCURVE",
"372 256 CURVE SMOOTH",
"422 256 LINE",
"427 293 LINE",
"375 293 LINE SMOOTH",
"149 293 OFFCURVE",
"73 259 OFFCURVE",
"54 141 CURVE SMOOTH",
"40 55 OFFCURVE",
"106 -8 OFFCURVE",
"206 -8 CURVE SMOOTH"
);
}
);
};
layerId = "C98CF2FB-27AB-48B2-98BD-5B202BDF0FA3";
paths = (
{
closed = 1;
nodes = (
"318 -8 OFFCURVE",
"397 56 OFFCURVE",
"432 163 CURVE",
"415 163 LINE",
"428 54 OFFCURVE",
"498 -8 OFFCURVE",
"618 -8 CURVE SMOOTH",
"686 -8 OFFCURVE",
"764 18 OFFCURVE",
"812 64 CURVE",
"790 97 LINE",
"740 49 OFFCURVE",
"679 31 OFFCURVE",
"619 31 CURVE SMOOTH",
"497 31 OFFCURVE",
"437 108 OFFCURVE",
"456 248 CURVE SMOOTH",
"458 263 LINE SMOOTH",
"474 382 OFFCURVE",
"548 470 OFFCURVE",
"667 470 CURVE SMOOTH",
"777 470 OFFCURVE",
"824 399 OFFCURVE",
"807 277 CURVE",
"824 290 LINE",
"447 290 LINE",
"441 252 LINE",
"840 252 LINE",
"844 279 LINE SMOOTH",
"864 416 OFFCURVE",
"798 508 OFFCURVE",
"671 508 CURVE SMOOTH",
"576 508 OFFCURVE",
"492 455 OFFCURVE",
"449 366 CURVE",
"467 366 LINE",
"470 455 OFFCURVE",
"423 508 OFFCURVE",
"315 508 CURVE SMOOTH",
"242 508 OFFCURVE",
"171 486 OFFCURVE",
"114 447 CURVE",
"133 413 LINE",
"196 453 OFFCURVE",
"250 469 OFFCURVE",
"319 469 CURVE SMOOTH",
"395 469 OFFCURVE",
"441 428 OFFCURVE",
"425 328 CURVE SMOOTH",
"406 209 LINE SMOOTH",
"389 103 OFFCURVE",
"316 30 OFFCURVE",
"215 30 CURVE SMOOTH",
"134 30 OFFCURVE",
"90 76 OFFCURVE",
"101 144 CURVE SMOOTH",
"115 233 OFFCURVE",
"212 251 OFFCURVE",
"372 251 CURVE SMOOTH",
"422 251 LINE",
"427 288 LINE",
"375 288 LINE SMOOTH",
"194 288 OFFCURVE",
"75 262 OFFCURVE",
"56 151 CURVE SMOOTH",
"40 58 OFFCURVE",
"104 -8 OFFCURVE",
"210 -8 CURVE SMOOTH"
);
}
);
width = 890;
},
{
anchors = (
{
name = bottom;
position = "{380, 0}";
},
{
name = top;
position = "{471, 484}";
}
);
layerId = "AFEE2FCF-314D-4571-9AD7-6410332F14FF";
paths = (
{
closed = 1;
nodes = (
"307 -10 OFFCURVE",
"380 43 OFFCURVE",
"418 132 CURVE",
"390 132 LINE",
"419 41 OFFCURVE",
"495 -10 OFFCURVE",
"612 -10 CURVE SMOOTH",
"684 -10 OFFCURVE",
"757 11 OFFCURVE",
"810 51 CURVE",
"775 135 LINE",
"727 100 OFFCURVE",
"679 86 OFFCURVE",
"628 86 CURVE SMOOTH",
"520 86 OFFCURVE",
"474 145 OFFCURVE",
"489 249 CURVE SMOOTH",
"494 282 LINE SMOOTH",
"506 366 OFFCURVE",
"555 429 OFFCURVE",
"638 429 CURVE SMOOTH",
"714 429 OFFCURVE",
"748 379 OFFCURVE",
"735 285 CURVE",
"753 301 LINE",
"482 301 LINE",
"472 235 LINE",
"832 235 LINE",
"837 267 LINE SMOOTH",
"859 412 OFFCURVE",
"786 515 OFFCURVE",
"643 515 CURVE SMOOTH",
"560 515 OFFCURVE",
"490 480 OFFCURVE",
"439 408 CURVE",
"475 408 LINE",
"461 478 OFFCURVE",
"409 515 OFFCURVE",
"301 515 CURVE SMOOTH",
"228 515 OFFCURVE",
"143 494 OFFCURVE",
"85 460 CURVE",
"118 374 LINE",
"179 407 OFFCURVE",
"228 420 OFFCURVE",
"289 420 CURVE SMOOTH",
"354 420 OFFCURVE",
"392 387 OFFCURVE",
"380 314 CURVE SMOOTH",
"363 203 LINE SMOOTH",
"351 127 OFFCURVE",
"299 77 OFFCURVE",
"225 77 CURVE SMOOTH",
"164 77 OFFCURVE",
"134 110 OFFCURVE",
"142 158 CURVE SMOOTH",
"151 216 OFFCURVE",
"212 235 OFFCURVE",
"323 235 CURVE SMOOTH",
"379 235 LINE",
"389 300 LINE",
"338 300 LINE SMOOTH",
"146 300 OFFCURVE",
"48 264 OFFCURVE",
"31 165 CURVE SMOOTH",
"16 75 OFFCURVE",
"76 -10 OFFCURVE",
"208 -10 CURVE SMOOTH"
);
}
);
width = 872;
}
);
leftKerningGroup = a;
rightKerningGroup = e;
unicode = 00E6;
userData = {
com.typemytype.robofont.layerData = {
b = {
anchors = (
);
components = (
);
contours = (
);
lib = {
};
name = ae;
unicodes = (
);
width = 1734;
};
};
};
},
{
color = 4;
glyphname = b;
layers = (
{
anchors = (
{
name = bottom;
position = "{273, 0}";
},
{
name = top;
position = "{412, 735}";
}
);
background = {
anchors = (
{
name = bottom;
position = "{273, 0}";
},
{
name = top;
position = "{412, 735}";
}
);
paths = (
{
closed = 1;
nodes = (
"1293 -12 OFFCURVE",
"1404 86 OFFCURVE",
"1430 253 CURVE SMOOTH",
"1456 419 OFFCURVE",
"1379 522 OFFCURVE",
"1249 522 CURVE SMOOTH",
"1177 522 OFFCURVE",
"1102 486 OFFCURVE",
"1072 434 CURVE",
"1085 434 LINE",
"1133 736 LINE",
"925 736 LINE",
"808 0 LINE",
"1013 0 LINE",
"1026 82 LINE",
"1015 82 LINE",
"1026 26 OFFCURVE",
"1090 -12 OFFCURVE",
"1164 -12 CURVE SMOOTH"
);
},
{
closed = 1;
nodes = (
"1070 141 OFFCURVE",
"1040 172 OFFCURVE",
"1053 255 CURVE SMOOTH",
"1066 338 OFFCURVE",
"1106 369 OFFCURVE",
"1155 369 CURVE SMOOTH",
"1203 369 OFFCURVE",
"1234 336 OFFCURVE",
"1221 253 CURVE SMOOTH",
"1208 170 OFFCURVE",
"1167 141 OFFCURVE",
"1119 141 CURVE SMOOTH"
);
},
{
closed = 1;
nodes = (
"352 522 OFFCURVE",
"293 484 OFFCURVE",
"265 428 CURVE",
"282 428 LINE",
"295 510 LINE",
"89 510 LINE",
"31 145 LINE SMOOTH",
"23 97 OFFCURVE",
"13 48 OFFCURVE",
"0 0 CURVE",
"200 0 LINE",
"225 82 LINE",
"216 76 LINE",
"227 24 OFFCURVE",
"290 -12 OFFCURVE",
"365 -12 CURVE SMOOTH",
"496 -12 OFFCURVE",
"600 69 OFFCURVE",
"627 235 CURVE SMOOTH",
"654 402 OFFCURVE",
"570 522 OFFCURVE",
"430 522 CURVE SMOOTH"
);
},
{
closed = 1;
nodes = (
"403 369 OFFCURVE",
"434 338 OFFCURVE",
"419 245 CURVE SMOOTH",
"407 171 OFFCURVE",
"373 141 OFFCURVE",
"324 141 CURVE SMOOTH",
"274 141 OFFCURVE",
"242 172 OFFCURVE",
"257 265 CURVE SMOOTH",
"269 339 OFFCURVE",
"304 369 OFFCURVE",
"352 369 CURVE SMOOTH"
);
}
);
};
layerId = "BFD2D546-DAD9-41DE-8B9F-F3E812C082B3";
paths = (
{
closed = 1;
nodes = (
"496 -12 OFFCURVE",
"600 69 OFFCURVE",
"627 235 CURVE SMOOTH",
"654 402 OFFCURVE",
"570 522 OFFCURVE",
"430 522 CURVE SMOOTH",
"352 522 OFFCURVE",
"293 484 OFFCURVE",
"265 428 CURVE",
"285 434 LINE",
"333 736 LINE",
"125 736 LINE",
"8 0 LINE",
"213 0 LINE",
"226 82 LINE",
"216 76 LINE",
"227 24 OFFCURVE",
"290 -12 OFFCURVE",
"365 -12 CURVE SMOOTH"
);
},
{
closed = 1;
nodes = (
"274 141 OFFCURVE",
"242 172 OFFCURVE",
"257 265 CURVE SMOOTH",
"269 339 OFFCURVE",
"304 369 OFFCURVE",
"352 369 CURVE SMOOTH",
"403 369 OFFCURVE",
"434 338 OFFCURVE",
"419 245 CURVE SMOOTH",
"407 171 OFFCURVE",
"373 141 OFFCURVE",
"324 141 CURVE SMOOTH"
);
}
);
width = 657;
},
{
anchors = (
{
name = bottom;
position = "{281, 0}";
},
{
name = top;
position = "{386, 735}";
}
);
background = {
anchors = (
{
name = bottom;
position = "{281, 0}";
},
{
name = top;
position = "{386, 735}";
}
);
paths = (
{
closed = 1;
nodes = (
"1102 -8 OFFCURVE",
"1204 89 OFFCURVE",
"1230 250 CURVE SMOOTH",
"1256 411 OFFCURVE",
"1184 508 OFFCURVE",
"1049 508 CURVE SMOOTH",
"953 508 OFFCURVE",
"875 455 OFFCURVE",
"838 369 CURVE",
"849 369 LINE",
"908 736 LINE",
"866 736 LINE",
"749 0 LINE",
"791 0 LINE",
"812 131 LINE",
"801 131 LINE",
"810 44 OFFCURVE",
"872 -8 OFFCURVE",
"968 -8 CURVE SMOOTH"
);
},
{
closed = 1;
nodes = (
"864 31 OFFCURVE",
"807 109 OFFCURVE",
"830 250 CURVE SMOOTH",
"853 391 OFFCURVE",
"933 469 OFFCURVE",
"1042 469 CURVE SMOOTH",
"1151 469 OFFCURVE",
"1209 391 OFFCURVE",
"1187 250 CURVE SMOOTH",
"1165 109 OFFCURVE",
"1082 31 OFFCURVE",
"973 31 CURVE SMOOTH"
);
},
{
closed = 1;
nodes = (
"244 508 OFFCURVE",
"172 456 OFFCURVE",
"135 369 CURVE",
"149 369 LINE",
"170 500 LINE",
"128 500 LINE",
"66 108 LINE SMOOTH",
"61 74 OFFCURVE",
"51 37 OFFCURVE",
"41 0 CURVE",
"82 0 LINE",
"113 131 LINE",
"101 131 LINE",
"115 44 OFFCURVE",
"179 -8 OFFCURVE",
"272 -8 CURVE SMOOTH",
"403 -8 OFFCURVE",
"502 80 OFFCURVE",
"528 240 CURVE SMOOTH",
"556 412 OFFCURVE",
"482 508 OFFCURVE",
"343 508 CURVE SMOOTH"
);
},
{
closed = 1;
nodes = (
"452 469 OFFCURVE",
"509 391 OFFCURVE",
"486 250 CURVE SMOOTH",
"463 109 OFFCURVE",
"383 31 OFFCURVE",
"276 31 CURVE SMOOTH",
"164 31 OFFCURVE",
"105 109 OFFCURVE",
"127 250 CURVE SMOOTH",
"149 391 OFFCURVE",
"233 469 OFFCURVE",
"339 469 CURVE SMOOTH"
);
}
);
};
layerId = "C98CF2FB-27AB-48B2-98BD-5B202BDF0FA3";
paths = (
{
closed = 1;
nodes = (
"403 -8 OFFCURVE",
"502 80 OFFCURVE",
"528 240 CURVE SMOOTH",
"556 412 OFFCURVE",
"482 508 OFFCURVE",
"343 508 CURVE SMOOTH",
"244 508 OFFCURVE",
"172 456 OFFCURVE",
"135 369 CURVE",
"149 369 LINE",
"207 736 LINE",
"165 736 LINE",
"48 0 LINE",
"90 0 LINE",
"111 131 LINE",
"101 131 LINE",
"115 44 OFFCURVE",
"179 -8 OFFCURVE",
"272 -8 CURVE SMOOTH"
);
},
{
closed = 1;
nodes = (
"164 31 OFFCURVE",
"105 109 OFFCURVE",
"127 250 CURVE SMOOTH",
"149 391 OFFCURVE",
"233 469 OFFCURVE",
"339 469 CURVE SMOOTH",
"452 469 OFFCURVE",
"509 391 OFFCURVE",
"486 250 CURVE SMOOTH",
"463 109 OFFCURVE",
"383 31 OFFCURVE",
"276 31 CURVE SMOOTH"
);
}
);
width = 583;
},
{
anchors = (
{
name = bottom;
position = "{277, 0}";
},
{
name = top;
position = "{399, 735}";
}
);
layerId = "AFEE2FCF-314D-4571-9AD7-6410332F14FF";
paths = (
{
closed = 1;
nodes = (
"450 -10 OFFCURVE",
"551 75 OFFCURVE",
"578 238 CURVE SMOOTH",
"605 407 OFFCURVE",
"526 515 OFFCURVE",
"387 515 CURVE SMOOTH",
"298 515 OFFCURVE",
"233 470 OFFCURVE",
"200 399 CURVE",
"217 402 LINE",
"270 736 LINE",
"145 736 LINE",
"28 0 LINE",
"152 0 LINE",
"169 107 LINE",
"159 104 LINE",
"171 34 OFFCURVE",
"235 -10 OFFCURVE",
"319 -10 CURVE SMOOTH"
);
},
{
closed = 1;
nodes = (
"219 86 OFFCURVE",
"174 141 OFFCURVE",
"192 258 CURVE SMOOTH",
"209 365 OFFCURVE",
"269 419 OFFCURVE",
"346 419 CURVE SMOOTH",
"428 419 OFFCURVE",
"472 365 OFFCURVE",
"453 248 CURVE SMOOTH",
"435 140 OFFCURVE",
"378 86 OFFCURVE",
"300 86 CURVE SMOOTH"
);
}
);
width = 620;
}
);
leftKerningGroup = h;
rightKerningGroup = o;
unicode = 0062;
userData = {
anchors = (
);
b = {
};
com.typemytype.robofont.layerData = {
b = {
anchors = (
);
components = (
);
contours = (
{
points = (
{
segmentType = curve;
smooth = 1;
x = 238;
y = 1425;
},
{
smooth = 0;
x = 198;
y = 1425;
},
{
smooth = 0;
x = 158;
y = 1400;
},
{
segmentType = curve;
smooth = 1;
x = 158;
y = 1351;
},
{
segmentType = line;
smooth = 1;
x = 158;
y = 76;
},
{
smooth = 0;
x = 158;
y = 27;
},
{
smooth = 0;
x = 197;
y = 3;
},
{
segmentType = curve;
smooth = 1;
x = 237;
y = 3;
},
{
smooth = 0;
x = 297;
y = 3;
},
{
smooth = 0;
x = 318;
y = 38;
},
{
segmentType = curve;
smooth = 1;
x = 318;
y = 76;
},
{
segmentType = line;
smooth = 0;
x = 318;
y = 183;
},
{
smooth = 0;
x = 384;
y = 46;
},
{
smooth = 0;
x = 516;
y = "-20";
},
{
segmentType = curve;
smooth = 1;
x = 666;
y = "-20";
},
{
smooth = 0;
x = 957;
y = "-20";
},
{
smooth = 0;
x = 1095;
y = 225;
},
{
segmentType = curve;
smooth = 1;
x = 1095;
y = 502;
},
{
smooth = 0;
x = 1095;
y = 777;
},
{
smooth = 0;
x = 939;
y = 1013;
},
{
segmentType = curve;
smooth = 1;
x = 650;
y = 1013;
},
{
smooth = 0;
x = 503;
y = 1013;
},
{
smooth = 0;
x = 376;
y = 942;
},
{
segmentType = curve;
smooth = 0;
x = 318;
y = 814;
},
{
segmentType = line;
smooth = 1;
x = 318;
y = 1351;
},
{
smooth = 0;
x = 318;
y = 1400;
},
{
smooth = 0;
x = 278;
y = 1425;
}
);
},
{
points = (
{
segmentType = curve;
smooth = 1;
x = 632;
y = 903;
},
{
smooth = 0;
x = 859;
y = 903;
},
{
smooth = 0;
x = 935;
y = 685;
},
{
segmentType = curve;
smooth = 1;
x = 935;
y = 496;
},
{
smooth = 0;
x = 935;
y = 316;
},
{
smooth = 0;
x = 869;
y = 93;
},
{
segmentType = curve;
smooth = 0;
x = 645;
y = 90;
},
{
smooth = 0;
x = 395;
y = 90;
},
{
smooth = 0;
x = 319;
y = 279;
},
{
segmentType = curve;
smooth = 1;
x = 319;
y = 501;
},
{
smooth = 0;
x = 319;
y = 701;
},
{
smooth = 0;
x = 407;
y = 903;
}
);
}
);
lib = {
};
name = b;
unicodes = (
);
width = 1181;
};
};
components = (
);
contours = (
);
lib = {
};
name = b;
unicodes = (
);
width = 1203;
};
},
{
color = 4;
glyphname = bhook;
production = uni0253;
layers = (
{
background = {
paths = (
{
closed = 1;
nodes = (
"496 -12 OFFCURVE",
"600 69 OFFCURVE",
"627 235 CURVE SMOOTH",
"654 402 OFFCURVE",
"570 522 OFFCURVE",
"430 522 CURVE SMOOTH",
"352 522 OFFCURVE",
"293 484 OFFCURVE",
"265 428 CURVE",
"285 434 LINE",
"333 736 LINE",
"125 736 LINE",
"8 0 LINE",
"213 0 LINE",
"226 82 LINE",
"216 76 LINE",
"227 24 OFFCURVE",
"290 -12 OFFCURVE",
"365 -12 CURVE SMOOTH"
);
},
{
closed = 1;
nodes = (
"274 141 OFFCURVE",
"242 172 OFFCURVE",
"257 265 CURVE SMOOTH",
"269 339 OFFCURVE",
"304 369 OFFCURVE",
"352 369 CURVE SMOOTH",
"403 369 OFFCURVE",
"434 338 OFFCURVE",
"419 245 CURVE SMOOTH",
"407 171 OFFCURVE",
"373 141 OFFCURVE",
"324 141 CURVE SMOOTH"
);
}
);
};
layerId = "BFD2D546-DAD9-41DE-8B9F-F3E812C082B3";
paths = (
{
closed = 1;
nodes = (
"496 -12 OFFCURVE",
"600 69 OFFCURVE",
"627 235 CURVE SMOOTH",
"654 402 OFFCURVE",
"570 522 OFFCURVE",
"430 522 CURVE SMOOTH",
"352 522 OFFCURVE",
"293 484 OFFCURVE",
"265 428 CURVE",
"285 434 LINE",
"296 508 LINE",
"305 561 OFFCURVE",
"332 589 OFFCURVE",
"377 589 CURVE SMOOTH",
"391 589 OFFCURVE",
"402 588 OFFCURVE",
"416 584 CURVE",
"453 735 LINE",
"433 743 OFFCURVE",
"396 748 OFFCURVE",
"370 748 CURVE SMOOTH",
"211 748 OFFCURVE",
"115 675 OFFCURVE",
"89 512 CURVE SMOOTH",
"8 0 LINE",
"213 0 LINE",
"226 82 LINE",
"216 76 LINE",
"227 24 OFFCURVE",
"290 -12 OFFCURVE",
"365 -12 CURVE SMOOTH"
);
},
{
closed = 1;
nodes = (
"274 141 OFFCURVE",
"242 172 OFFCURVE",
"257 265 CURVE SMOOTH",
"269 339 OFFCURVE",
"304 369 OFFCURVE",
"352 369 CURVE SMOOTH",
"403 369 OFFCURVE",
"434 338 OFFCURVE",
"419 245 CURVE SMOOTH",
"407 171 OFFCURVE",
"373 141 OFFCURVE",
"324 141 CURVE SMOOTH"
);
}
);
width = 657;
},
{
background = {
paths = (
{
closed = 1;
nodes = (
"403 -8 OFFCURVE",
"502 80 OFFCURVE",
"528 240 CURVE SMOOTH",
"556 412 OFFCURVE",
"482 508 OFFCURVE",
"343 508 CURVE SMOOTH",
"244 508 OFFCURVE",
"172 456 OFFCURVE",
"135 369 CURVE",
"149 369 LINE",
"207 736 LINE",
"165 736 LINE",
"48 0 LINE",
"90 0 LINE",
"111 131 LINE",
"101 131 LINE",
"115 44 OFFCURVE",
"179 -8 OFFCURVE",
"272 -8 CURVE SMOOTH"
);
},
{
closed = 1;
nodes = (
"452 469 OFFCURVE",
"509 391 OFFCURVE",
"486 250 CURVE SMOOTH",
"463 109 OFFCURVE",
"383 31 OFFCURVE",
"276 31 CURVE SMOOTH",
"164 31 OFFCURVE",
"105 109 OFFCURVE",
"127 250 CURVE SMOOTH",
"149 391 OFFCURVE",
"233 469 OFFCURVE",
"339 469 CURVE SMOOTH"
);
}
);
};
layerId = "C98CF2FB-27AB-48B2-98BD-5B202BDF0FA3";
paths = (
{
closed = 1;
nodes = (
"403 -8 OFFCURVE",
"502 80 OFFCURVE",
"528 240 CURVE SMOOTH",
"556 412 OFFCURVE",
"482 508 OFFCURVE",
"343 508 CURVE SMOOTH",
"244 508 OFFCURVE",
"172 456 OFFCURVE",
"135 369 CURVE",
"149 369 LINE",
"185 596 LINE SMOOTH",
"197 669 OFFCURVE",
"236 706 OFFCURVE",
"308 706 CURVE SMOOTH",
"322 706 OFFCURVE",
"330 705 OFFCURVE",
"347 700 CURVE",
"359 737 LINE",
"345 742 OFFCURVE",
"331 744 OFFCURVE",
"312 744 CURVE SMOOTH",
"211 744 OFFCURVE",
"158 692 OFFCURVE",
"142 594 CURVE SMOOTH",
"48 0 LINE",
"90 0 LINE",
"111 131 LINE",
"101 131 LINE",
"115 44 OFFCURVE",
"179 -8 OFFCURVE",
"272 -8 CURVE SMOOTH"
);
},
{
closed = 1;
nodes = (
"164 31 OFFCURVE",
"105 109 OFFCURVE",
"127 250 CURVE SMOOTH",
"149 391 OFFCURVE",
"233 469 OFFCURVE",
"339 469 CURVE SMOOTH",
"452 469 OFFCURVE",
"509 391 OFFCURVE",
"486 250 CURVE SMOOTH",
"463 109 OFFCURVE",
"383 31 OFFCURVE",
"276 31 CURVE SMOOTH"
);
}
);
width = 583;
},
{
layerId = "AFEE2FCF-314D-4571-9AD7-6410332F14FF";
paths = (
{
closed = 1;
nodes = (
"450 -10 OFFCURVE",
"551 75 OFFCURVE",
"578 238 CURVE SMOOTH",
"605 407 OFFCURVE",
"526 515 OFFCURVE",
"387 515 CURVE SMOOTH",
"298 515 OFFCURVE",
"233 470 OFFCURVE",
"200 399 CURVE",
"217 402 LINE",
"241 552 LINE SMOOTH",
"251 615 OFFCURVE",
"284 648 OFFCURVE",
"343 648 CURVE SMOOTH",
"357 648 OFFCURVE",
"366 647 OFFCURVE",
"382 642 CURVE",
"406 736 LINE",
"389 743 OFFCURVE",
"364 746 OFFCURVE",
"341 746 CURVE SMOOTH",
"211 746 OFFCURVE",
"137 684 OFFCURVE",
"116 553 CURVE SMOOTH",
"28 0 LINE",
"152 0 LINE",
"169 107 LINE",
"159 104 LINE",
"171 34 OFFCURVE",
"235 -10 OFFCURVE",
"319 -10 CURVE SMOOTH"
);
},
{
closed = 1;
nodes = (
"219 86 OFFCURVE",
"174 141 OFFCURVE",
"192 258 CURVE SMOOTH",
"209 365 OFFCURVE",
"269 419 OFFCURVE",
"346 419 CURVE SMOOTH",
"428 419 OFFCURVE",
"472 365 OFFCURVE",
"453 248 CURVE SMOOTH",
"435 140 OFFCURVE",
"378 86 OFFCURVE",
"300 86 CURVE SMOOTH"
);
}
);
width = 620;
}
);
leftKerningGroup = h;
rightKerningGroup = o;
unicode = 0253;
},
{
color = 4;
glyphname = c;
layers = (
{
anchors = (
{
name = bottom;
position = "{264, 0}";
},
{
name = top;
position = "{341, 484}";
}
);
background = {
anchors = (
{
name = bottom;
position = "{264, 0}";
},
{
name = top;
position = "{341, 484}";
}
);
paths = (
{
closed = 1;
nodes = (
"347 -12 OFFCURVE",
"424 7 OFFCURVE",
"472 39 CURVE",
"439 180 LINE",
"405 158 OFFCURVE",
"360 144 OFFCURVE",
"325 144 CURVE SMOOTH",
"261 144 OFFCURVE",
"230 182 OFFCURVE",
"241 255 CURVE SMOOTH",
"252 328 OFFCURVE",
"296 366 OFFCURVE",
"360 366 CURVE SMOOTH",
"396 366 OFFCURVE",
"437 352 OFFCURVE",
"462 330 CURVE",
"541 471 LINE",
"504 503 OFFCURVE",
"432 522 OFFCURVE",
"362 522 CURVE SMOOTH",
"187 522 OFFCURVE",
"54 422 OFFCURVE",
"27 255 CURVE SMOOTH",
"0 88 OFFCURVE",
"102 -12 OFFCURVE",
"277 -12 CURVE SMOOTH"
);
}
);
};
layerId = "BFD2D546-DAD9-41DE-8B9F-F3E812C082B3";
paths = (
{
closed = 1;
nodes = (
"377 -12 OFFCURVE",
"451 10 OFFCURVE",
"489 39 CURVE",
"439 177 LINE",
"405 157 OFFCURVE",
"365 144 OFFCURVE",
"336 144 CURVE SMOOTH",
"262 144 OFFCURVE",
"232 199 OFFCURVE",
"243 265 CURVE SMOOTH",
"255 338 OFFCURVE",
"301 366 OFFCURVE",
"357 366 CURVE SMOOTH",
"393 366 OFFCURVE",
"437 355 OFFCURVE",
"462 336 CURVE",
"521 476 LINE",
"484 505 OFFCURVE",
"412 522 OFFCURVE",
"352 522 CURVE SMOOTH",
"181 522 OFFCURVE",
"57 439 OFFCURVE",
"31 275 CURVE SMOOTH",
"5 110 OFFCURVE",
"104 -12 OFFCURVE",
"298 -12 CURVE SMOOTH"
);
}
);
width = 520;
},
{
anchors = (
{
name = bottom;
position = "{241, 0}";
},
{
name = top;
position = "{318, 484}";
}
);
background = {
paths = (
{
closed = 1;
nodes = (
"371 -8 OFFCURVE",
"471 80 OFFCURVE",
"497 240 CURVE SMOOTH",
"524 412 OFFCURVE",
"450 508 OFFCURVE",
"311 508 CURVE SMOOTH",
"180 508 OFFCURVE",
"81 420 OFFCURVE",
"55 260 CURVE SMOOTH",
"28 88 OFFCURVE",
"101 -8 OFFCURVE",
"240 -8 CURVE SMOOTH"
);
},
{
closed = 1;
nodes = (
"131 31 OFFCURVE",
"74 109 OFFCURVE",
"97 250 CURVE SMOOTH",
"119 391 OFFCURVE",
"200 469 OFFCURVE",
"307 469 CURVE SMOOTH",
"419 469 OFFCURVE",
"478 391 OFFCURVE",
"456 250 CURVE SMOOTH",
"433 109 OFFCURVE",
"350 31 OFFCURVE",
"244 31 CURVE SMOOTH"
);
}
);
};
layerId = "C98CF2FB-27AB-48B2-98BD-5B202BDF0FA3";
paths = (
{
closed = 1;
nodes = (
"306 -8 OFFCURVE",
"381 17 OFFCURVE",
"424 61 CURVE",
"403 94 LINE",
"356 49 OFFCURVE",
"299 31 OFFCURVE",
"247 31 CURVE SMOOTH",
"135 31 OFFCURVE",
"74 109 OFFCURVE",
"97 253 CURVE SMOOTH",
"119 391 OFFCURVE",
"200 469 OFFCURVE",
"314 469 CURVE SMOOTH",
"358 469 OFFCURVE",
"406 453 OFFCURVE",
"445 414 CURVE",
"468 444 LINE",
"433 486 OFFCURVE",
"376 508 OFFCURVE",
"312 508 CURVE SMOOTH",
"178 508 OFFCURVE",
"81 420 OFFCURVE",
"55 260 CURVE SMOOTH",
"27 88 OFFCURVE",
"107 -8 OFFCURVE",
"246 -8 CURVE SMOOTH"
);
}
);
width = 487;
},
{
anchors = (
{
name = bottom;
position = "{253, 0}";
},
{
name = top;
position = "{330, 484}";
}
);
layerId = "AFEE2FCF-314D-4571-9AD7-6410332F14FF";
paths = (
{
closed = 1;
nodes = (
"342 -10 OFFCURVE",
"416 14 OFFCURVE",
"457 50 CURVE",
"421 136 LINE",
"381 103 OFFCURVE",
"332 88 OFFCURVE",
"292 88 CURVE SMOOTH",
"199 88 OFFCURVE",
"153 154 OFFCURVE",
"170 259 CURVE SMOOTH",
"187 365 OFFCURVE",
"251 418 OFFCURVE",
"336 418 CURVE SMOOTH",
"376 418 OFFCURVE",
"422 404 OFFCURVE",
"454 375 CURVE",
"495 460 LINE",
"459 496 OFFCURVE",
"394 515 OFFCURVE",
"332 515 CURVE SMOOTH",
"180 515 OFFCURVE",
"69 430 OFFCURVE",
"43 268 CURVE SMOOTH",
"16 99 OFFCURVE",
"106 -10 OFFCURVE",
"272 -10 CURVE SMOOTH"
);
}
);
width = 503.5;
}
);
leftKerningGroup = o;
rightKerningGroup = c;
unicode = 0063;
userData = {
anchors = (
);
b = {
};
com.typemytype.robofont.layerData = {
b = {
anchors = (
);
components = (
);
contours = (
);
lib = {
};
name = c;
unicodes = (
);
width = 956.14099;
};
};
components = (
);
contours = (
);
lib = {
};
name = c;
unicodes = (
);
width = 992;
};
},
{
color = 4;
glyphname = d;
layers = (
{
anchors = (
{
name = bottom;
position = "{290, 0}";
},
{
name = center;
position = "{319, 255}";
},
{
name = stroke;
position = "{509, 624}";
},
{
name = top;
position = "{397, 678}";
},
{
name = topright;
position = "{714, 736}";
}
);
background = {
anchors = (
{
name = bottom;
position = "{292, 0}";
},
{
name = center;
position = "{319, 255}";
},
{
name = stroke;
position = "{511, 624}";
},
{
name = top;
position = "{399, 678}";
},
{
name = topright;
position = "{716, 736}";
}
);
paths = (
{
closed = 1;
nodes = (
"287 -12 OFFCURVE",
"363 26 OFFCURVE",
"391 82 CURVE",
"379 82 LINE",
"366 0 LINE",
"571 0 LINE",
"688 736 LINE",
"480 736 LINE",
"432 434 LINE",
"445 434 LINE",
"432 486 OFFCURVE",
"369 522 OFFCURVE",
"296 522 CURVE SMOOTH",
"165 522 OFFCURVE",
"54 421 OFFCURVE",
"27 255 CURVE SMOOTH",
"0 88 OFFCURVE",
"81 -12 OFFCURVE",
"211 -12 CURVE SMOOTH"
);
},
{
closed = 1;
nodes = (
"256 141 OFFCURVE",
"224 172 OFFCURVE",
"237 255 CURVE SMOOTH",
"250 338 OFFCURVE",
"292 369 OFFCURVE",
"340 369 CURVE SMOOTH",
"388 369 OFFCURVE",
"420 338 OFFCURVE",
"406 255 CURVE SMOOTH",
"392 172 OFFCURVE",
"352 141 OFFCURVE",
"304 141 CURVE SMOOTH"
);
}
);
};
layerId = "BFD2D546-DAD9-41DE-8B9F-F3E812C082B3";
paths = (
{
closed = 1;
nodes = (
"306 -12 OFFCURVE",
"365 26 OFFCURVE",
"393 82 CURVE",
"377 82 LINE",
"364 0 LINE",
"569 0 LINE",
"686 736 LINE",
"478 736 LINE",
"430 434 LINE",
"442 434 LINE",
"431 486 OFFCURVE",
"368 522 OFFCURVE",
"293 522 CURVE SMOOTH",
"162 522 OFFCURVE",
"57 441 OFFCURVE",
"31 275 CURVE SMOOTH",
"5 108 OFFCURVE",
"88 -12 OFFCURVE",
"228 -12 CURVE SMOOTH"
);
},
{
closed = 1;
nodes = (
"255 141 OFFCURVE",
"224 172 OFFCURVE",
"239 265 CURVE SMOOTH",
"251 339 OFFCURVE",
"285 369 OFFCURVE",
"334 369 CURVE SMOOTH",
"384 369 OFFCURVE",
"416 338 OFFCURVE",
"401 245 CURVE SMOOTH",
"389 171 OFFCURVE",
"354 141 OFFCURVE",
"306 141 CURVE SMOOTH"
);
}
);
width = 657;
},
{
anchors = (
{
name = bottom;
position = "{254, 0}";
},
{
name = center;
position = "{295, 253}";
},
{
name = stroke;
position = "{479, 599}";
},
{
name = top;
position = "{359, 675}";
},
{
name = topright;
position = "{627, 736}";
}
);
background = {
anchors = (
{
name = bottom;
position = "{254, 0}";
},
{
name = center;
position = "{295, 253}";
},
{
name = stroke;
position = "{479, 599}";
},
{
name = top;
position = "{359, 675}";
},
{
name = topright;
position = "{627, 736}";
}
);
paths = (
{
closed = 1;
nodes = (
"328 -8 OFFCURVE",
"408 44 OFFCURVE",
"445 131 CURVE",
"434 131 LINE",
"413 0 LINE",
"455 0 LINE",
"572 736 LINE",
"530 736 LINE",
"471 369 LINE",
"482 369 LINE",
"473 456 OFFCURVE",
"409 508 OFFCURVE",
"314 508 CURVE SMOOTH",
"179 508 OFFCURVE",
"79 411 OFFCURVE",
"54 250 CURVE SMOOTH",
"29 89 OFFCURVE",
"98 -8 OFFCURVE",
"233 -8 CURVE SMOOTH"
);
},
{
closed = 1;
nodes = (
"130 31 OFFCURVE",
"74 109 OFFCURVE",
"97 250 CURVE SMOOTH",
"120 391 OFFCURVE",
"199 469 OFFCURVE",
"309 469 CURVE SMOOTH",
"417 469 OFFCURVE",
"476 391 OFFCURVE",
"454 250 CURVE SMOOTH",
"432 109 OFFCURVE",
"348 31 OFFCURVE",
"240 31 CURVE SMOOTH"
);
}
);
};
layerId = "C98CF2FB-27AB-48B2-98BD-5B202BDF0FA3";
paths = (
{
closed = 1;
nodes = (
"339 -8 OFFCURVE",
"411 44 OFFCURVE",
"448 131 CURVE",
"434 131 LINE",
"413 0 LINE",
"455 0 LINE",
"572 736 LINE",
"530 736 LINE",
"472 369 LINE",
"482 369 LINE",
"468 456 OFFCURVE",
"404 508 OFFCURVE",
"311 508 CURVE SMOOTH",
"180 508 OFFCURVE",
"81 420 OFFCURVE",
"55 260 CURVE SMOOTH",
"27 88 OFFCURVE",
"101 -8 OFFCURVE",
"240 -8 CURVE SMOOTH"
);
},
{
closed = 1;
nodes = (
"131 31 OFFCURVE",
"74 109 OFFCURVE",
"97 250 CURVE SMOOTH",
"119 391 OFFCURVE",
"200 469 OFFCURVE",
"307 469 CURVE SMOOTH",
"419 469 OFFCURVE",
"478 391 OFFCURVE",
"456 250 CURVE SMOOTH",
"433 109 OFFCURVE",
"350 31 OFFCURVE",
"244 31 CURVE SMOOTH"
);
}
);
width = 583;
},
{
anchors = (
{
name = bottom;
position = "{272, 0}";
},
{
name = center;
position = "{307, 254}";
},
{
name = stroke;
position = "{494, 612}";
},
{
name = top;
position = "{378, 677}";
},
{
name = topright;
position = "{671, 736}";
}
);
layerId = "AFEE2FCF-314D-4571-9AD7-6410332F14FF";
paths = (
{
closed = 1;
nodes = (
"323 -10 OFFCURVE",
"388 35 OFFCURVE",
"421 107 CURVE",
"406 107 LINE",
"389 0 LINE",
"512 0 LINE",
"629 736 LINE",
"504 736 LINE",
"451 402 LINE",
"462 402 LINE",
"450 471 OFFCURVE",
"386 515 OFFCURVE",
"302 515 CURVE SMOOTH",
"171 515 OFFCURVE",
"69 431 OFFCURVE",
"43 268 CURVE SMOOTH",
"16 98 OFFCURVE",
"95 -10 OFFCURVE",
"234 -10 CURVE SMOOTH"
);
},
{
closed = 1;
nodes = (
"193 86 OFFCURVE",
"149 141 OFFCURVE",
"168 258 CURVE SMOOTH",
"185 365 OFFCURVE",
"243 419 OFFCURVE",
"321 419 CURVE SMOOTH",
"402 419 OFFCURVE",
"447 365 OFFCURVE",
"429 248 CURVE SMOOTH",
"411 140 OFFCURVE",
"352 86 OFFCURVE",
"275 86 CURVE SMOOTH"
);
}
);
width = 620;
}
);
leftKerningGroup = o;
rightKerningGroup = l;
unicode = 0064;
userData = {
anchors = (
);
b = {
};
com.typemytype.robofont.layerData = {
b = {
anchors = (
);
components = (
);
contours = (
);
lib = {
};
name = d;
unicodes = (
);
width = 1181;
};
};
components = (
);
contours = (
);
lib = {
};
name = d;
unicodes = (
);
width = 1207;
};
},
{
color = 4;
glyphname = eth;
layers = (
{
background = {
paths = (
{
closed = 1;
nodes = (
"461 -12 OFFCURVE",
"591 107 OFFCURVE",
"620 292 CURVE SMOOTH",
"637 395 OFFCURVE",
"616 525 OFFCURVE",
"528 620 CURVE",
"514 590 LINE",
"622 637 LINE",
"596 719 LINE",
"458 659 LINE",
"491 656 LINE",
"429 706 OFFCURVE",
"342 741 OFFCURVE",
"226 748 CURVE",
"174 622 LINE",
"221 615 OFFCURVE",
"266 599 OFFCURVE",
"304 578 CURVE",
"308 594 LINE",
"141 521 LINE",
"167 439 LINE",
"387 535 LINE",
"357 539 LINE",
"415 486 OFFCURVE",
"446 415 OFFCURVE",
"435 343 CURVE",
"472 343 LINE",
"451 417 OFFCURVE",
"398 444 OFFCURVE",
"315 444 CURVE SMOOTH",
"165 444 OFFCURVE",
"42 350 OFFCURVE",
"22 220 CURVE SMOOTH",
"0 84 OFFCURVE",
"100 -12 OFFCURVE",
"268 -12 CURVE SMOOTH"
);
},
{
closed = 1;
nodes = (
"250 142 OFFCURVE",
"224 171 OFFCURVE",
"232 219 CURVE SMOOTH",
"239 265 OFFCURVE",
"274 295 OFFCURVE",
"324 295 CURVE SMOOTH",
"377 295 OFFCURVE",
"399 265 OFFCURVE",
"392 219 CURVE SMOOTH",
"384 173 OFFCURVE",
"351 142 OFFCURVE",
"300 142 CURVE SMOOTH"
);
}
);
};
layerId = "BFD2D546-DAD9-41DE-8B9F-F3E812C082B3";
paths = (
{
closed = 1;
nodes = (
"461 -12 OFFCURVE",
"588 87 OFFCURVE",
"619 282 CURVE SMOOTH",
"637 395 OFFCURVE",
"616 525 OFFCURVE",
"528 620 CURVE",
"522 594 LINE",
"630 641 LINE",
"596 719 LINE",
"458 659 LINE",
"491 656 LINE",
"429 706 OFFCURVE",
"342 741 OFFCURVE",
"226 748 CURVE",
"174 622 LINE",
"221 615 OFFCURVE",
"266 599 OFFCURVE",
"304 578 CURVE",
"308 594 LINE",
"141 521 LINE",
"175 443 LINE",
"395 539 LINE",
"357 539 LINE",
"415 486 OFFCURVE",
"446 415 OFFCURVE",
"435 343 CURVE",
"472 343 LINE",
"451 417 OFFCURVE",
"388 444 OFFCURVE",
"305 444 CURVE SMOOTH",
"165 444 OFFCURVE",
"45 370 OFFCURVE",
"25 240 CURVE SMOOTH",
"2 94 OFFCURVE",
"110 -12 OFFCURVE",
"288 -12 CURVE SMOOTH"
);
},
{
closed = 1;
nodes = (
"250 142 OFFCURVE",
"224 171 OFFCURVE",
"232 223 CURVE SMOOTH",
"239 265 OFFCURVE",
"272 295 OFFCURVE",
"322 295 CURVE SMOOTH",
"377 295 OFFCURVE",
"399 265 OFFCURVE",
"391 214 CURVE SMOOTH",
"384 173 OFFCURVE",
"351 142 OFFCURVE",
"304 142 CURVE SMOOTH"
);
}
);
width = 641;
},
{
background = {
paths = (
{
closed = 1;
nodes = (
"382 -8 OFFCURVE",
"476 90 OFFCURVE",
"506 276 CURVE SMOOTH",
"530 429 OFFCURVE",
"501 556 OFFCURVE",
"414 643 CURVE",
"411 632 LINE",
"514 672 LINE",
"507 705 LINE",
"386 659 LINE",
"400 656 LINE",
"359 692 OFFCURVE",
"306 721 OFFCURVE",
"242 741 CURVE",
"225 708 LINE",
"279 692 OFFCURVE",
"324 668 OFFCURVE",
"359 638 CURVE",
"362 650 LINE",
"175 578 LINE",
"182 545 LINE",
"389 624 LINE",
"372 627 LINE",
"459 545 OFFCURVE",
"488 424 OFFCURVE",
"466 293 CURVE",
"485 293 LINE",
"478 406 OFFCURVE",
"419 463 OFFCURVE",
"313 463 CURVE SMOOTH",
"176 463 OFFCURVE",
"73 370 OFFCURVE",
"50 227 CURVE SMOOTH",
"27 84 OFFCURVE",
"101 -8 OFFCURVE",
"236 -8 CURVE SMOOTH"
);
},
{
closed = 1;
nodes = (
"129 31 OFFCURVE",
"73 103 OFFCURVE",
"93 227 CURVE SMOOTH",
"112 350 OFFCURVE",
"193 423 OFFCURVE",
"304 423 CURVE SMOOTH",
"415 423 OFFCURVE",
"472 349 OFFCURVE",
"453 227 CURVE SMOOTH",
"434 105 OFFCURVE",
"352 31 OFFCURVE",
"241 31 CURVE SMOOTH"
);
}
);
};
layerId = "C98CF2FB-27AB-48B2-98BD-5B202BDF0FA3";
paths = (
{
closed = 1;
nodes = (
"385 -8 OFFCURVE",
"476 90 OFFCURVE",
"504 266 CURVE SMOOTH",
"528 419 OFFCURVE",
"498 552 OFFCURVE",
"414 643 CURVE",
"414 634 LINE",
"517 674 LINE",
"504 705 LINE",
"383 659 LINE",
"400 656 LINE",
"359 692 OFFCURVE",
"306 721 OFFCURVE",
"242 741 CURVE",
"227 708 LINE",
"279 692 OFFCURVE",
"324 668 OFFCURVE",
"360 638 CURVE",
"359 650 LINE",
"172 578 LINE",
"185 547 LINE",
"392 626 LINE",
"374 627 LINE",
"459 545 OFFCURVE",
"487 424 OFFCURVE",
"466 293 CURVE",
"485 293 LINE",
"478 406 OFFCURVE",
"407 463 OFFCURVE",
"303 463 CURVE SMOOTH",
"169 463 OFFCURVE",
"73 371 OFFCURVE",
"52 237 CURVE SMOOTH",
"27 85 OFFCURVE",
"104 -8 OFFCURVE",
"241 -8 CURVE SMOOTH"
);
},
{
closed = 1;
nodes = (
"134 31 OFFCURVE",
"73 103 OFFCURVE",
"93 227 CURVE SMOOTH",
"114 355 OFFCURVE",
"193 423 OFFCURVE",
"304 423 CURVE SMOOTH",
"415 423 OFFCURVE",
"472 349 OFFCURVE",
"453 227 CURVE SMOOTH",
"434 105 OFFCURVE",
"352 31 OFFCURVE",
"241 31 CURVE SMOOTH"
);
}
);
width = 556;
},
{
layerId = "AFEE2FCF-314D-4571-9AD7-6410332F14FF";
paths = (
{
closed = 1;
nodes = (
"423 -10 OFFCURVE",
"532 89 OFFCURVE",
"562 274 CURVE SMOOTH",
"583 407 OFFCURVE",
"557 539 OFFCURVE",
"471 632 CURVE",
"468 614 LINE",
"574 658 LINE",
"550 712 LINE",
"421 659 LINE",
"446 656 LINE",
"394 699 OFFCURVE",
"324 731 OFFCURVE",
"234 745 CURVE",
"201 665 LINE",
"250 654 OFFCURVE",
"295 634 OFFCURVE",
"332 608 CURVE",
"334 622 LINE",
"157 550 LINE",
"180 495 LINE",
"394 583 LINE",
"366 583 LINE",
"437 516 OFFCURVE",
"467 420 OFFCURVE",
"451 318 CURVE",
"479 318 LINE",
"465 412 OFFCURVE",
"398 454 OFFCURVE",
"304 454 CURVE SMOOTH",
"167 454 OFFCURVE",
"59 371 OFFCURVE",
"39 239 CURVE SMOOTH",
"15 90 OFFCURVE",
"107 -10 OFFCURVE",
"265 -10 CURVE SMOOTH"
);
},
{
closed = 1;
nodes = (
"192 87 OFFCURVE",
"149 137 OFFCURVE",
"163 225 CURVE SMOOTH",
"177 310 OFFCURVE",
"233 359 OFFCURVE",
"313 359 CURVE SMOOTH",
"396 359 OFFCURVE",
"436 307 OFFCURVE",
"422 221 CURVE SMOOTH",
"409 139 OFFCURVE",
"352 87 OFFCURVE",
"273 87 CURVE SMOOTH"
);
}
);
width = 598.5;
}
);
leftKerningGroup = o;
rightKerningGroup = o;
unicode = 00F0;
userData = {
com.typemytype.robofont.layerData = {
b = {
anchors = (
);
components = (
);
contours = (
);
lib = {
};
name = eth;
unicodes = (
);
width = 1230;
};
};
};
},
{
color = 4;
glyphname = dcroat;
layers = (
{
background = {
paths = (
{
closed = 1;
nodes = (
"284 -12 OFFCURVE",
"357 25 OFFCURVE",
"384 78 CURVE",
"374 78 LINE",
"362 0 LINE",
"567 0 LINE",
"653 543 LINE",
"736 543 LINE",
"758 683 LINE",
"675 683 LINE",
"684 736 LINE",
"476 736 LINE",
"467 683 LINE",
"280 683 LINE",
"258 543 LINE",
"445 543 LINE",
"423 406 LINE",
"434 406 LINE",
"422 454 OFFCURVE",
"361 490 OFFCURVE",
"289 490 CURVE SMOOTH",
"157 490 OFFCURVE",
"49 394 OFFCURVE",
"25 239 CURVE SMOOTH",
"0 83 OFFCURVE",
"78 -12 OFFCURVE",
"209 -12 CURVE SMOOTH"
);
},
{
closed = 1;
nodes = (
"254 140 OFFCURVE",
"223 169 OFFCURVE",
"234 239 CURVE SMOOTH",
"245 308 OFFCURVE",
"285 337 OFFCURVE",
"332 337 CURVE SMOOTH",
"379 337 OFFCURVE",
"411 309 OFFCURVE",
"400 239 CURVE SMOOTH",
"389 169 OFFCURVE",
"348 140 OFFCURVE",
"301 140 CURVE SMOOTH"
);
}
);
};
layerId = "BFD2D546-DAD9-41DE-8B9F-F3E812C082B3";
paths = (
{
closed = 1;
nodes = (
"306 -12 OFFCURVE",
"365 24 OFFCURVE",
"393 76 CURVE",
"377 82 LINE",
"364 0 LINE",
"569 0 LINE",
"655 543 LINE",
"736 543 LINE",
"758 683 LINE",
"678 683 LINE",
"686 736 LINE",
"478 736 LINE",
"470 683 LINE",
"280 683 LINE",
"258 543 LINE",
"447 543 LINE",
"430 434 LINE",
"442 407 LINE",
"431 456 OFFCURVE",
"368 490 OFFCURVE",
"293 490 CURVE SMOOTH",
"162 490 OFFCURVE",
"57 414 OFFCURVE",
"31 258 CURVE SMOOTH",
"5 101 OFFCURVE",
"88 -12 OFFCURVE",
"228 -12 CURVE SMOOTH"
);
},
{
closed = 1;
nodes = (
"255 141 OFFCURVE",
"224 168 OFFCURVE",
"239 247 CURVE SMOOTH",
"251 310 OFFCURVE",
"285 336 OFFCURVE",
"334 336 CURVE SMOOTH",
"384 336 OFFCURVE",
"416 309 OFFCURVE",
"401 230 CURVE SMOOTH",
"389 167 OFFCURVE",
"354 141 OFFCURVE",
"306 141 CURVE SMOOTH"
);
}
);
width = 657;
},
{
background = {
paths = (
{
closed = 1;
nodes = (
"328 -8 OFFCURVE",
"408 44 OFFCURVE",
"445 131 CURVE",
"434 131 LINE",
"413 0 LINE",
"455 0 LINE",
"549 594 LINE",
"647 594 LINE",
"653 631 LINE",
"555 631 LINE",
"572 736 LINE",
"530 736 LINE",
"513 631 LINE",
"317 631 LINE",
"311 594 LINE",
"507 594 LINE",
"471 369 LINE",
"482 369 LINE",
"473 456 OFFCURVE",
"409 508 OFFCURVE",
"315 508 CURVE SMOOTH",
"180 508 OFFCURVE",
"79 411 OFFCURVE",
"54 250 CURVE SMOOTH",
"28 89 OFFCURVE",
"99 -8 OFFCURVE",
"234 -8 CURVE SMOOTH"
);
},
{
closed = 1;
nodes = (
"131 31 OFFCURVE",
"74 109 OFFCURVE",
"97 250 CURVE SMOOTH",
"119 391 OFFCURVE",
"200 469 OFFCURVE",
"310 469 CURVE SMOOTH",
"417 469 OFFCURVE",
"476 391 OFFCURVE",
"454 250 CURVE SMOOTH",
"431 109 OFFCURVE",
"348 31 OFFCURVE",
"241 31 CURVE SMOOTH"
);
}
);
};
layerId = "C98CF2FB-27AB-48B2-98BD-5B202BDF0FA3";
paths = (
{
closed = 1;
nodes = (
"339 -8 OFFCURVE",
"411 44 OFFCURVE",
"448 131 CURVE",
"434 131 LINE",
"413 0 LINE",
"455 0 LINE",
"549 594 LINE",
"647 594 LINE",
"653 631 LINE",
"555 631 LINE",
"572 736 LINE",
"530 736 LINE",
"513 631 LINE",
"317 631 LINE",
"311 594 LINE",
"508 594 LINE",
"472 369 LINE",
"482 369 LINE",
"468 456 OFFCURVE",
"404 508 OFFCURVE",
"311 508 CURVE SMOOTH",
"180 508 OFFCURVE",
"81 420 OFFCURVE",
"55 260 CURVE SMOOTH",
"27 88 OFFCURVE",
"101 -8 OFFCURVE",
"240 -8 CURVE SMOOTH"
);
},
{
closed = 1;
nodes = (
"131 31 OFFCURVE",
"74 109 OFFCURVE",
"97 250 CURVE SMOOTH",
"119 391 OFFCURVE",
"200 469 OFFCURVE",
"307 469 CURVE SMOOTH",
"419 469 OFFCURVE",
"478 391 OFFCURVE",
"456 250 CURVE SMOOTH",
"433 109 OFFCURVE",
"350 31 OFFCURVE",
"244 31 CURVE SMOOTH"
);
}
);
width = 583;
},
{
layerId = "AFEE2FCF-314D-4571-9AD7-6410332F14FF";
paths = (
{
closed = 1;
nodes = (
"323 -10 OFFCURVE",
"388 34 OFFCURVE",
"421 104 CURVE",
"406 107 LINE",
"389 0 LINE",
"512 0 LINE",
"602 569 LINE",
"692 569 LINE",
"706 657 LINE",
"617 657 LINE",
"629 736 LINE",
"504 736 LINE",
"492 657 LINE",
"299 657 LINE",
"285 569 LINE",
"478 569 LINE",
"451 402 LINE",
"462 388 LINE",
"450 456 OFFCURVE",
"386 499 OFFCURVE",
"302 499 CURVE SMOOTH",
"171 499 OFFCURVE",
"69 417 OFFCURVE",
"43 259 CURVE SMOOTH",
"16 95 OFFCURVE",
"95 -10 OFFCURVE",
"234 -10 CURVE SMOOTH"
);
},
{
closed = 1;
nodes = (
"193 86 OFFCURVE",
"149 139 OFFCURVE",
"168 249 CURVE SMOOTH",
"185 351 OFFCURVE",
"243 403 OFFCURVE",
"321 403 CURVE SMOOTH",
"402 403 OFFCURVE",
"447 350 OFFCURVE",
"429 240 CURVE SMOOTH",
"411 138 OFFCURVE",
"352 86 OFFCURVE",
"275 86 CURVE SMOOTH"
);
}
);
width = 620;
}
);
leftKerningGroup = o;
rightKerningGroup = l;
unicode = 0111;
userData = {
com.typemytype.robofont.layerData = {
b = {
anchors = (
);
components = (
);
contours = (
);
lib = {
};
name = dcroat;
unicodes = (
);
width = 1181;
};
};
};
},
{
color = 4;
glyphname = dhook;
production = uni0257;
layers = (
{
background = {
paths = (
{
closed = 1;
nodes = (
"306 -12 OFFCURVE",
"365 26 OFFCURVE",
"393 82 CURVE",
"377 82 LINE",
"364 0 LINE",
"569 0 LINE",
"686 736 LINE",
"478 736 LINE",
"430 434 LINE",
"442 434 LINE",
"431 486 OFFCURVE",
"368 522 OFFCURVE",
"293 522 CURVE SMOOTH",
"162 522 OFFCURVE",
"57 441 OFFCURVE",
"31 275 CURVE SMOOTH",
"5 108 OFFCURVE",
"88 -12 OFFCURVE",
"228 -12 CURVE SMOOTH"
);
},
{
closed = 1;
nodes = (
"255 141 OFFCURVE",
"224 172 OFFCURVE",
"239 265 CURVE SMOOTH",
"251 339 OFFCURVE",
"285 369 OFFCURVE",
"334 369 CURVE SMOOTH",
"384 369 OFFCURVE",
"416 338 OFFCURVE",
"401 245 CURVE SMOOTH",
"389 171 OFFCURVE",
"354 141 OFFCURVE",
"306 141 CURVE SMOOTH"
);
}
);
};
layerId = "BFD2D546-DAD9-41DE-8B9F-F3E812C082B3";
paths = (
{
closed = 1;
nodes = (
"304 -12 OFFCURVE",
"365 26 OFFCURVE",
"393 82 CURVE",
"377 82 LINE",
"364 0 LINE",
"569 0 LINE",
"649 508 LINE SMOOTH",
"660 572 OFFCURVE",
"694 589 OFFCURVE",
"731 589 CURVE SMOOTH",
"745 589 OFFCURVE",
"756 588 OFFCURVE",
"770 584 CURVE",
"807 735 LINE",
"789 743 OFFCURVE",
"750 748 OFFCURVE",
"723 748 CURVE SMOOTH",
"564 748 OFFCURVE",
"467 673 OFFCURVE",
"443 518 CURVE SMOOTH",
"430 434 LINE",
"442 434 LINE",
"431 486 OFFCURVE",
"368 522 OFFCURVE",
"293 522 CURVE SMOOTH",
"162 522 OFFCURVE",
"57 441 OFFCURVE",
"31 275 CURVE SMOOTH",
"5 108 OFFCURVE",
"88 -12 OFFCURVE",
"228 -12 CURVE SMOOTH"
);
},
{
closed = 1;
nodes = (
"255 141 OFFCURVE",
"224 172 OFFCURVE",
"239 265 CURVE SMOOTH",
"251 339 OFFCURVE",
"285 369 OFFCURVE",
"334 369 CURVE SMOOTH",
"384 369 OFFCURVE",
"416 338 OFFCURVE",
"401 245 CURVE SMOOTH",
"389 171 OFFCURVE",
"354 141 OFFCURVE",
"306 141 CURVE SMOOTH"
);
}
);
width = 655;
},
{
background = {
paths = (
{
closed = 1;
nodes = (
"339 -8 OFFCURVE",
"411 44 OFFCURVE",
"448 131 CURVE",
"434 131 LINE",
"413 0 LINE",
"455 0 LINE",
"572 736 LINE",
"530 736 LINE",
"472 369 LINE",
"482 369 LINE",
"468 456 OFFCURVE",
"404 508 OFFCURVE",
"311 508 CURVE SMOOTH",
"180 508 OFFCURVE",
"81 420 OFFCURVE",
"55 260 CURVE SMOOTH",
"27 88 OFFCURVE",
"101 -8 OFFCURVE",
"240 -8 CURVE SMOOTH"
);
},
{
closed = 1;
nodes = (
"131 31 OFFCURVE",
"74 109 OFFCURVE",
"97 250 CURVE SMOOTH",
"119 391 OFFCURVE",
"200 469 OFFCURVE",
"307 469 CURVE SMOOTH",
"419 469 OFFCURVE",
"478 391 OFFCURVE",
"456 250 CURVE SMOOTH",
"433 109 OFFCURVE",
"350 31 OFFCURVE",
"244 31 CURVE SMOOTH"
);
}
);
};
layerId = "C98CF2FB-27AB-48B2-98BD-5B202BDF0FA3";
paths = (
{
closed = 1;
nodes = (
"339 -8 OFFCURVE",
"411 44 OFFCURVE",
"448 131 CURVE",
"434 131 LINE",
"413 0 LINE",
"455 0 LINE",
"549 593 LINE SMOOTH",
"560 664 OFFCURVE",
"599 706 OFFCURVE",
"673 706 CURVE SMOOTH",
"686 706 OFFCURVE",
"694 705 OFFCURVE",
"712 700 CURVE",
"724 737 LINE",
"707 742 OFFCURVE",
"693 744 OFFCURVE",
"677 744 CURVE SMOOTH",
"582 744 OFFCURVE",
"525 698 OFFCURVE",
"508 594 CURVE SMOOTH",
"472 369 LINE",
"482 369 LINE",
"468 456 OFFCURVE",
"404 508 OFFCURVE",
"311 508 CURVE SMOOTH",
"180 508 OFFCURVE",
"81 420 OFFCURVE",
"55 260 CURVE SMOOTH",
"27 88 OFFCURVE",
"101 -8 OFFCURVE",
"240 -8 CURVE SMOOTH"
);
},
{
closed = 1;
nodes = (
"131 31 OFFCURVE",
"74 109 OFFCURVE",
"97 250 CURVE SMOOTH",
"119 391 OFFCURVE",
"200 469 OFFCURVE",
"307 469 CURVE SMOOTH",
"419 469 OFFCURVE",
"478 391 OFFCURVE",
"456 250 CURVE SMOOTH",
"433 109 OFFCURVE",
"350 31 OFFCURVE",
"244 31 CURVE SMOOTH"
);
}
);
width = 583;
},
{
layerId = "AFEE2FCF-314D-4571-9AD7-6410332F14FF";
paths = (
{
closed = 1;
nodes = (
"322 -10 OFFCURVE",
"388 35 OFFCURVE",
"421 107 CURVE",
"406 107 LINE",
"389 0 LINE",
"512 0 LINE",
"599 551 LINE SMOOTH",
"610 618 OFFCURVE",
"647 648 OFFCURVE",
"702 648 CURVE SMOOTH",
"716 648 OFFCURVE",
"725 647 OFFCURVE",
"741 642 CURVE",
"766 736 LINE",
"748 743 OFFCURVE",
"722 746 OFFCURVE",
"700 746 CURVE SMOOTH",
"573 746 OFFCURVE",
"496 686 OFFCURVE",
"476 556 CURVE SMOOTH",
"451 402 LINE",
"462 402 LINE",
"450 471 OFFCURVE",
"386 515 OFFCURVE",
"302 515 CURVE SMOOTH",
"171 515 OFFCURVE",
"69 431 OFFCURVE",
"43 268 CURVE SMOOTH",
"16 98 OFFCURVE",
"95 -10 OFFCURVE",
"234 -10 CURVE SMOOTH"
);
},
{
closed = 1;
nodes = (
"193 86 OFFCURVE",
"149 141 OFFCURVE",
"168 258 CURVE SMOOTH",
"185 365 OFFCURVE",
"243 419 OFFCURVE",
"321 419 CURVE SMOOTH",
"402 419 OFFCURVE",
"447 365 OFFCURVE",
"429 248 CURVE SMOOTH",
"411 140 OFFCURVE",
"352 86 OFFCURVE",
"275 86 CURVE SMOOTH"
);
}
);
width = 619;
}
);
leftKerningGroup = o;
rightKerningGroup = hook;
unicode = 0257;
},
{
color = 4;
glyphname = e;
layers = (
{
anchors = (
{
name = bottom;
position = "{262, 0}";
},
{
name = ogonek;
position = "{377, 0}";
},
{
name = top;
position = "{328, 484}";
}
);
background = {
anchors = (
{
name = bottom;
position = "{262, 0}";
},
{
name = ogonek;
position = "{377, 0}";
},
{
name = top;
position = "{328, 484}";
}
);
paths = (
{
closed = 1;
nodes = (
"383 -12 OFFCURVE",
"451 3 OFFCURVE",
"509 38 CURVE",
"460 173 LINE",
"415 150 OFFCURVE",
"379 141 OFFCURVE",
"338 141 CURVE SMOOTH",
"243 141 OFFCURVE",
"213 181 OFFCURVE",
"223 250 CURVE SMOOTH",
"231 301 LINE SMOOTH",
"239 349 OFFCURVE",
"264 387 OFFCURVE",
"310 387 CURVE SMOOTH",
"351 387 OFFCURVE",
"373 358 OFFCURVE",
"363 293 CURVE",
"383 307 LINE",
"212 307 LINE",
"197 213 LINE",
"523 213 LINE",
"529 253 LINE SMOOTH",
"554 408 OFFCURVE",
"474 522 OFFCURVE",
"315 522 CURVE SMOOTH",
"161 522 OFFCURVE",
"55 425 OFFCURVE",
"31 278 CURVE SMOOTH",
"5 110 OFFCURVE",
"105 -12 OFFCURVE",
"307 -12 CURVE SMOOTH"
);
}
);
};
layerId = "BFD2D546-DAD9-41DE-8B9F-F3E812C082B3";
paths = (
{
closed = 1;
nodes = (
"383 -12 OFFCURVE",
"451 3 OFFCURVE",
"509 38 CURVE",
"460 173 LINE",
"415 150 OFFCURVE",
"379 141 OFFCURVE",
"338 141 CURVE SMOOTH",
"243 141 OFFCURVE",
"213 181 OFFCURVE",
"223 250 CURVE SMOOTH",
"231 301 LINE SMOOTH",
"239 349 OFFCURVE",
"264 387 OFFCURVE",
"310 387 CURVE SMOOTH",
"351 387 OFFCURVE",
"373 358 OFFCURVE",
"363 293 CURVE",
"383 312 LINE",
"212 312 LINE",
"198 218 LINE",
"524 218 LINE",
"530 255 LINE SMOOTH",
"555 408 OFFCURVE",
"474 522 OFFCURVE",
"315 522 CURVE SMOOTH",
"161 522 OFFCURVE",
"55 425 OFFCURVE",
"31 278 CURVE SMOOTH",
"5 110 OFFCURVE",
"105 -12 OFFCURVE",
"307 -12 CURVE SMOOTH"
);
}
);
width = 555;
},
{
anchors = (
{
name = bottom;
position = "{245, 0}";
},
{
name = ogonek;
position = "{314, 0}";
},
{
name = top;
position = "{322, 484}";
}
);
background = {
anchors = (
{
name = bottom;
position = "{245, 0}";
},
{
name = ogonek;
position = "{314, 0}";
},
{
name = top;
position = "{322, 484}";
}
);
paths = (
{
closed = 1;
nodes = (
"371 -8 OFFCURVE",
"471 80 OFFCURVE",
"497 240 CURVE SMOOTH",
"524 412 OFFCURVE",
"450 508 OFFCURVE",
"311 508 CURVE SMOOTH",
"180 508 OFFCURVE",
"81 420 OFFCURVE",
"55 260 CURVE SMOOTH",
"28 88 OFFCURVE",
"101 -8 OFFCURVE",
"240 -8 CURVE SMOOTH"
);
},
{
closed = 1;
nodes = (
"131 31 OFFCURVE",
"74 109 OFFCURVE",
"97 250 CURVE SMOOTH",
"119 391 OFFCURVE",
"200 469 OFFCURVE",
"307 469 CURVE SMOOTH",
"419 469 OFFCURVE",
"478 391 OFFCURVE",
"456 250 CURVE SMOOTH",
"433 109 OFFCURVE",
"350 31 OFFCURVE",
"244 31 CURVE SMOOTH"
);
}
);
};
layerId = "C98CF2FB-27AB-48B2-98BD-5B202BDF0FA3";
paths = (
{
closed = 1;
nodes = (
"336 -8 OFFCURVE",
"410 18 OFFCURVE",
"462 64 CURVE",
"440 97 LINE",
"390 49 OFFCURVE",
"326 31 OFFCURVE",
"264 31 CURVE SMOOTH",
"137 31 OFFCURVE",
"77 108 OFFCURVE",
"96 248 CURVE SMOOTH",
"98 263 LINE SMOOTH",
"114 382 OFFCURVE",
"188 470 OFFCURVE",
"312 470 CURVE SMOOTH",
"427 470 OFFCURVE",
"474 399 OFFCURVE",
"457 277 CURVE",
"474 290 LINE",
"87 290 LINE",
"81 252 LINE",
"490 252 LINE",
"494 279 LINE SMOOTH",
"514 416 OFFCURVE",
"448 508 OFFCURVE",
"316 508 CURVE SMOOTH",
"177 508 OFFCURVE",
"81 419 OFFCURVE",
"56 264 CURVE SMOOTH",
"29 94 OFFCURVE",
"107 -8 OFFCURVE",
"263 -8 CURVE SMOOTH"
);
}
);
width = 541;
},
{
anchors = (
{
name = bottom;
position = "{254, 0}";
},
{
name = ogonek;
position = "{346, 0}";
},
{
name = top;
position = "{325, 484}";
}
);
layerId = "AFEE2FCF-314D-4571-9AD7-6410332F14FF";
paths = (
{
closed = 1;
nodes = (
"360 -10 OFFCURVE",
"431 11 OFFCURVE",
"486 51 CURVE",
"450 135 LINE",
"403 100 OFFCURVE",
"353 86 OFFCURVE",
"301 86 CURVE SMOOTH",
"190 86 OFFCURVE",
"145 145 OFFCURVE",
"160 249 CURVE SMOOTH",
"165 282 LINE SMOOTH",
"177 366 OFFCURVE",
"226 429 OFFCURVE",
"311 429 CURVE SMOOTH",
"389 429 OFFCURVE",
"424 379 OFFCURVE",
"410 285 CURVE",
"429 301 LINE",
"150 301 LINE",
"140 235 LINE",
"507 235 LINE",
"512 267 LINE SMOOTH",
"535 412 OFFCURVE",
"461 515 OFFCURVE",
"316 515 CURVE SMOOTH",
"169 515 OFFCURVE",
"68 422 OFFCURVE",
"44 271 CURVE SMOOTH",
"17 102 OFFCURVE",
"106 -10 OFFCURVE",
"285 -10 CURVE SMOOTH"
);
}
);
width = 548;
}
);
leftKerningGroup = o;
rightKerningGroup = e;
unicode = 0065;
userData = {
anchors = (
);
b = {
};
com.typemytype.robofont.layerData = {
b = {
anchors = (
);
components = (
);
contours = (
);
lib = {
};
name = e;
unicodes = (
);
width = 1132;
};
};
components = (
);
contours = (
);
lib = {
};
name = e;
unicodes = (
);
width = 1132;
};
},
{
color = 4;
glyphname = schwa;
production = uni0259;
layers = (
{
background = {
paths = (
{
closed = 1;
nodes = (
"382 -12 OFFCURVE",
"504 100 OFFCURVE",
"528 254 CURVE SMOOTH",
"554 419 OFFCURVE",
"461 522 OFFCURVE",
"289 522 CURVE SMOOTH",
"203 522 OFFCURVE",
"133 507 OFFCURVE",
"76 478 CURVE",
"95 337 LINE",
"141 360 OFFCURVE",
"186 369 OFFCURVE",
"227 369 CURVE SMOOTH",
"314 369 OFFCURVE",
"346 338 OFFCURVE",
"332 250 CURVE SMOOTH",
"327 219 LINE SMOOTH",
"317 158 OFFCURVE",
"288 123 OFFCURVE",
"241 123 CURVE SMOOTH",
"201 123 OFFCURVE",
"182 152 OFFCURVE",
"192 217 CURVE",
"172 198 LINE",
"343 198 LINE",
"358 292 LINE",
"32 292 LINE",
"24 237 LINE SMOOTH",
"-1 82 OFFCURVE",
"72 -12 OFFCURVE",
"222 -12 CURVE SMOOTH"
);
}
);
};
layerId = "BFD2D546-DAD9-41DE-8B9F-F3E812C082B3";
paths = (
{
closed = 1;
nodes = (
"402 -12 OFFCURVE",
"501 88 OFFCURVE",
"525 232 CURVE SMOOTH",
"552 400 OFFCURVE",
"451 522 OFFCURVE",
"262 522 CURVE SMOOTH",
"180 522 OFFCURVE",
"112 507 OFFCURVE",
"50 475 CURVE",
"96 340 LINE",
"141 360 OFFCURVE",
"177 369 OFFCURVE",
"218 369 CURVE SMOOTH",
"313 369 OFFCURVE",
"344 329 OFFCURVE",
"333 260 CURVE SMOOTH",
"325 209 LINE SMOOTH",
"317 161 OFFCURVE",
"292 123 OFFCURVE",
"246 123 CURVE SMOOTH",
"205 123 OFFCURVE",
"180 152 OFFCURVE",
"193 217 CURVE",
"173 198 LINE",
"344 198 LINE",
"358 292 LINE",
"32 292 LINE",
"26 255 LINE SMOOTH",
"1 102 OFFCURVE",
"79 -12 OFFCURVE",
"252 -12 CURVE SMOOTH"
);
}
);
width = 555;
},
{
background = {
paths = (
{
closed = 1;
nodes = (
"352 -8 OFFCURVE",
"462 93 OFFCURVE",
"487 252 CURVE SMOOTH",
"513 414 OFFCURVE",
"434 508 OFFCURVE",
"287 508 CURVE SMOOTH",
"214 508 OFFCURVE",
"137 482 OFFCURVE",
"88 436 CURVE",
"104 403 LINE",
"162 451 OFFCURVE",
"219 469 OFFCURVE",
"281 469 CURVE SMOOTH",
"405 469 OFFCURVE",
"466 393 OFFCURVE",
"444 252 CURVE SMOOTH",
"443 247 LINE SMOOTH",
"423 118 OFFCURVE",
"340 30 OFFCURVE",
"222 30 CURVE SMOOTH",
"112 30 OFFCURVE",
"66 103 OFFCURVE",
"85 223 CURVE",
"66 210 LINE",
"453 210 LINE",
"459 248 LINE",
"50 248 LINE",
"46 221 LINE SMOOTH",
"24 79 OFFCURVE",
"86 -8 OFFCURVE",
"215 -8 CURVE SMOOTH"
);
}
);
};
layerId = "C98CF2FB-27AB-48B2-98BD-5B202BDF0FA3";
paths = (
{
closed = 1;
nodes = (
"363 -8 OFFCURVE",
"459 81 OFFCURVE",
"484 236 CURVE SMOOTH",
"511 406 OFFCURVE",
"433 508 OFFCURVE",
"277 508 CURVE SMOOTH",
"204 508 OFFCURVE",
"130 484 OFFCURVE",
"78 436 CURVE",
"100 403 LINE",
"150 451 OFFCURVE",
"214 469 OFFCURVE",
"276 469 CURVE SMOOTH",
"403 469 OFFCURVE",
"463 392 OFFCURVE",
"444 252 CURVE SMOOTH",
"442 237 LINE SMOOTH",
"426 118 OFFCURVE",
"352 30 OFFCURVE",
"234 30 CURVE SMOOTH",
"113 30 OFFCURVE",
"66 101 OFFCURVE",
"87 223 CURVE",
"66 210 LINE",
"453 210 LINE",
"459 248 LINE",
"50 248 LINE",
"46 221 LINE SMOOTH",
"26 84 OFFCURVE",
"92 -8 OFFCURVE",
"230 -8 CURVE SMOOTH"
);
}
);
width = 541;
},
{
layerId = "AFEE2FCF-314D-4571-9AD7-6410332F14FF";
paths = (
{
closed = 1;
nodes = (
"383 -10 OFFCURVE",
"480 85 OFFCURVE",
"505 234 CURVE SMOOTH",
"532 403 OFFCURVE",
"442 515 OFFCURVE",
"270 515 CURVE SMOOTH",
"192 515 OFFCURVE",
"121 496 OFFCURVE",
"64 456 CURVE",
"98 372 LINE",
"146 406 OFFCURVE",
"196 419 OFFCURVE",
"247 419 CURVE SMOOTH",
"358 419 OFFCURVE",
"404 361 OFFCURVE",
"389 256 CURVE SMOOTH",
"384 223 LINE SMOOTH",
"372 140 OFFCURVE",
"322 77 OFFCURVE",
"240 77 CURVE SMOOTH",
"159 77 OFFCURVE",
"123 127 OFFCURVE",
"140 220 CURVE",
"120 204 LINE",
"399 204 LINE",
"409 270 LINE",
"41 270 LINE",
"36 238 LINE SMOOTH",
"14 93 OFFCURVE",
"86 -10 OFFCURVE",
"241 -10 CURVE SMOOTH"
);
}
);
width = 548;
}
);
leftKerningGroup = o;
rightKerningGroup = o;
unicode = 0259;
},
